%TF.GenerationSoftware,KiCad,Pcbnew,8.0.4*%
%TF.CreationDate,2025-07-27T19:27:02+02:00*%
%TF.ProjectId,GastroFocap,47617374-726f-4466-9f63-61702e6b6963,rev?*%
%TF.SameCoordinates,Original*%
%TF.FileFunction,Copper,L2,Bot*%
%TF.FilePolarity,Positive*%
%FSLAX46Y46*%
G04 Gerber Fmt 4.6, Leading zero omitted, Abs format (unit mm)*
G04 Created by KiCad (PCBNEW 8.0.4) date 2025-07-27 19:27:02*
%MOMM*%
%LPD*%
G01*
G04 APERTURE LIST*
G04 Aperture macros list*
%AMRoundRect*
0 Rectangle with rounded corners*
0 $1 Rounding radius*
0 $2 $3 $4 $5 $6 $7 $8 $9 X,Y pos of 4 corners*
0 Add a 4 corners polygon primitive as box body*
4,1,4,$2,$3,$4,$5,$6,$7,$8,$9,$2,$3,0*
0 Add four circle primitives for the rounded corners*
1,1,$1+$1,$2,$3*
1,1,$1+$1,$4,$5*
1,1,$1+$1,$6,$7*
1,1,$1+$1,$8,$9*
0 Add four rect primitives between the rounded corners*
20,1,$1+$1,$2,$3,$4,$5,0*
20,1,$1+$1,$4,$5,$6,$7,0*
20,1,$1+$1,$6,$7,$8,$9,0*
20,1,$1+$1,$8,$9,$2,$3,0*%
G04 Aperture macros list end*
%TA.AperFunction,NonConductor*%
%ADD10C,1.600000*%
%TD*%
%TA.AperFunction,Conductor*%
%ADD11C,1.600000*%
%TD*%
%TA.AperFunction,ComponentPad*%
%ADD12C,0.600000*%
%TD*%
%TA.AperFunction,SMDPad,CuDef*%
%ADD13R,2.950000X4.500000*%
%TD*%
%TA.AperFunction,ComponentPad*%
%ADD14C,1.600000*%
%TD*%
%TA.AperFunction,ComponentPad*%
%ADD15R,1.600000X1.600000*%
%TD*%
%TA.AperFunction,ComponentPad*%
%ADD16C,3.500000*%
%TD*%
%TA.AperFunction,ComponentPad*%
%ADD17C,1.700000*%
%TD*%
%TA.AperFunction,ComponentPad*%
%ADD18R,1.700000X1.700000*%
%TD*%
%TA.AperFunction,ComponentPad*%
%ADD19O,1.700000X1.950000*%
%TD*%
%TA.AperFunction,ComponentPad*%
%ADD20RoundRect,0.250000X-0.600000X-0.725000X0.600000X-0.725000X0.600000X0.725000X-0.600000X0.725000X0*%
%TD*%
%TA.AperFunction,ComponentPad*%
%ADD21RoundRect,0.875000X-0.875000X0.875000X-0.875000X-0.875000X0.875000X-0.875000X0.875000X0.875000X0*%
%TD*%
%TA.AperFunction,ComponentPad*%
%ADD22RoundRect,0.750000X-1.000000X0.750000X-1.000000X-0.750000X1.000000X-0.750000X1.000000X0.750000X0*%
%TD*%
%TA.AperFunction,ComponentPad*%
%ADD23R,3.500000X3.500000*%
%TD*%
%TA.AperFunction,ComponentPad*%
%ADD24O,1.950000X1.700000*%
%TD*%
%TA.AperFunction,ComponentPad*%
%ADD25RoundRect,0.250000X-0.725000X0.600000X-0.725000X-0.600000X0.725000X-0.600000X0.725000X0.600000X0*%
%TD*%
%TA.AperFunction,ComponentPad*%
%ADD26O,1.700000X2.000000*%
%TD*%
%TA.AperFunction,ComponentPad*%
%ADD27RoundRect,0.250000X0.600000X0.750000X-0.600000X0.750000X-0.600000X-0.750000X0.600000X-0.750000X0*%
%TD*%
%TA.AperFunction,ComponentPad*%
%ADD28O,1.700000X1.700000*%
%TD*%
%TA.AperFunction,ViaPad*%
%ADD29C,1.000000*%
%TD*%
%TA.AperFunction,ViaPad*%
%ADD30C,0.800000*%
%TD*%
%TA.AperFunction,ViaPad*%
%ADD31C,0.600000*%
%TD*%
%TA.AperFunction,ViaPad*%
%ADD32C,2.000000*%
%TD*%
%TA.AperFunction,Conductor*%
%ADD33C,1.000000*%
%TD*%
%TA.AperFunction,Conductor*%
%ADD34C,0.500000*%
%TD*%
%TA.AperFunction,Conductor*%
%ADD35C,0.200000*%
%TD*%
%TA.AperFunction,Conductor*%
%ADD36C,2.000000*%
%TD*%
%TA.AperFunction,Conductor*%
%ADD37C,1.500000*%
%TD*%
%TA.AperFunction,Conductor*%
%ADD38C,0.300000*%
%TD*%
G04 APERTURE END LIST*
D10*
X65700000Y-52625000D02*
G75*
G02*
X61300000Y-52625000I-2200000J0D01*
G01*
X61300000Y-52625000D02*
G75*
G02*
X65700000Y-52625000I2200000J0D01*
G01*
X120450000Y-44000000D02*
G75*
G02*
X116050000Y-44000000I-2200000J0D01*
G01*
X116050000Y-44000000D02*
G75*
G02*
X120450000Y-44000000I2200000J0D01*
G01*
D11*
%TO.N,SERVO*%
X109950000Y-68625000D02*
G75*
G02*
X105550000Y-68625000I-2200000J0D01*
G01*
X105550000Y-68625000D02*
G75*
G02*
X109950000Y-68625000I2200000J0D01*
G01*
%TA.AperFunction,Conductor*%
%TO.N,Earth*%
G36*
X89000000Y-63125000D02*
G01*
X96000000Y-63125000D01*
X96000000Y-70125000D01*
X89000000Y-70125000D01*
X89000000Y-63125000D01*
G37*
%TD.AperFunction*%
%TD*%
D12*
%TO.P,U4,9,GNDPAD*%
%TO.N,Earth*%
X116100000Y-63050000D03*
X116100000Y-61950000D03*
X116100000Y-60650000D03*
X116100000Y-59450000D03*
D13*
X115500000Y-61250000D03*
D12*
X114900000Y-63050000D03*
X114900000Y-61950000D03*
X114900000Y-60650000D03*
X114900000Y-59450000D03*
%TD*%
D14*
%TO.P,C7,2*%
%TO.N,Earth*%
X113750000Y-72750000D03*
D15*
%TO.P,C7,1*%
%TO.N,6\u002C5V*%
X113750000Y-70750000D03*
%TD*%
D16*
%TO.P,J5,5,Shield*%
%TO.N,Earth*%
X83020000Y-42000000D03*
X70980000Y-42000000D03*
D17*
%TO.P,J5,4,GND*%
X75750000Y-44710000D03*
%TO.P,J5,3,D+*%
%TO.N,D+*%
X78250000Y-44710000D03*
%TO.P,J5,2,D-*%
%TO.N,D-*%
X78250000Y-46710000D03*
D18*
%TO.P,J5,1,VBUS*%
%TO.N,Net-(D5-A)*%
X75750000Y-46710000D03*
%TD*%
D12*
%TO.P,U2,41_21*%
%TO.N,N/C*%
X93200000Y-68075000D03*
%TO.P,U2,41_20*%
X91800000Y-68075000D03*
%TO.P,U2,41_19*%
X93900000Y-67375000D03*
%TO.P,U2,41_18*%
X92500000Y-67375000D03*
%TO.P,U2,41_17*%
X91100000Y-67375000D03*
%TO.P,U2,41_16*%
X93200000Y-66675000D03*
%TO.P,U2,41_15*%
X91800000Y-66675000D03*
%TO.P,U2,41_14*%
X93900000Y-65975000D03*
%TO.P,U2,41_13*%
X92500000Y-65975000D03*
%TO.P,U2,41_12*%
X91100000Y-65975000D03*
%TO.P,U2,41_11*%
X93200000Y-65275000D03*
%TO.P,U2,41_10*%
X91800000Y-65275000D03*
%TD*%
D19*
%TO.P,U1,3,V_{DD}*%
%TO.N,VCC*%
X97000000Y-82600000D03*
%TO.P,U1,2,DQ*%
%TO.N,TEMP*%
X94500000Y-82600000D03*
D20*
%TO.P,U1,1,GND*%
%TO.N,Earth*%
X92000000Y-82600000D03*
%TD*%
D21*
%TO.P,J4,3,Pin_3*%
%TO.N,Earth*%
X89550000Y-42375000D03*
D22*
%TO.P,J4,2,Pin_2*%
X94250000Y-39375000D03*
D23*
%TO.P,J4,1,Pin_1*%
%TO.N,12V*%
X94250000Y-45375000D03*
%TD*%
D24*
%TO.P,J6,4,Pin_4*%
%TO.N,Net-(J6-Pin_4)*%
X63750000Y-80125000D03*
%TO.P,J6,3,Pin_3*%
%TO.N,Net-(J6-Pin_3)*%
X63750000Y-77625000D03*
%TO.P,J6,2,Pin_2*%
%TO.N,Net-(J6-Pin_2)*%
X63750000Y-75125000D03*
D25*
%TO.P,J6,1,Pin_1*%
%TO.N,Net-(J6-Pin_1)*%
X63750000Y-72625000D03*
%TD*%
D26*
%TO.P,D3,2,A*%
%TO.N,Net-(D2-K)*%
X101750000Y-52125000D03*
D27*
%TO.P,D3,1,K*%
%TO.N,Net-(D3-K)*%
X104250000Y-52125000D03*
%TD*%
D28*
%TO.P,J2,2,Pin_2*%
%TO.N,Net-(J2-Pin_2)*%
X84500000Y-83625000D03*
D18*
%TO.P,J2,1,Pin_1*%
%TO.N,Net-(J2-Pin_1)*%
X84500000Y-81085000D03*
%TD*%
D24*
%TO.P,J1,3,Pin_3*%
%TO.N,SERVO*%
X121025000Y-75250000D03*
%TO.P,J1,2,Pin_2*%
%TO.N,6\u002C5V*%
X121025000Y-72750000D03*
D25*
%TO.P,J1,1,Pin_1*%
%TO.N,Earth*%
X121025000Y-70250000D03*
%TD*%
D28*
%TO.P,J3,2,Pin_2*%
%TO.N,Net-(J3-Pin_2)*%
X87150000Y-83625000D03*
D18*
%TO.P,J3,1,Pin_1*%
%TO.N,Net-(J3-Pin_1)*%
X87150000Y-81085000D03*
%TD*%
D29*
%TO.N,Earth*%
X105750000Y-62500000D03*
%TO.N,12V*%
X120250000Y-59250000D03*
D30*
%TO.N,Earth*%
X81000000Y-85500000D03*
X67750000Y-83500000D03*
X71000000Y-68750000D03*
D31*
X99250000Y-56375000D03*
X122350000Y-80275000D03*
X109850000Y-79175000D03*
%TO.N,RXTMC*%
X81000000Y-70125000D03*
%TO.N,Earth*%
X113000000Y-52125000D03*
X113000000Y-50875000D03*
X114250000Y-52125000D03*
X114250000Y-50875000D03*
X114250000Y-53625000D03*
%TO.N,EN*%
X82000000Y-69125000D03*
%TO.N,D+*%
X83000000Y-77625000D03*
%TO.N,Earth*%
X79500000Y-75375000D03*
X74250000Y-76375000D03*
X76075000Y-71450000D03*
X65000000Y-62250000D03*
X77250000Y-77875000D03*
X76500000Y-75625000D03*
X77250000Y-76375000D03*
X85250000Y-56375000D03*
X75750000Y-74875000D03*
X74500000Y-80875000D03*
X71000000Y-48875000D03*
X75000000Y-77125000D03*
X74250000Y-77875000D03*
X75750000Y-76375000D03*
X75750000Y-77875000D03*
X77250000Y-74875000D03*
X78125000Y-58000000D03*
X76500000Y-77125000D03*
D32*
X89250000Y-52125000D03*
D31*
X74250000Y-74875000D03*
X78500000Y-65750000D03*
X76050000Y-72575000D03*
X75000000Y-75625000D03*
X78500000Y-68000000D03*
X80250000Y-79625000D03*
D29*
%TO.N,12V*%
X70750000Y-73875000D03*
X70500000Y-71125000D03*
D31*
X64750000Y-67625000D03*
D29*
X70750000Y-78875000D03*
X70800000Y-81700000D03*
D31*
%TO.N,D+*%
X90750000Y-55625000D03*
X87250000Y-49125000D03*
X91500000Y-49125000D03*
%TO.N,D-*%
X83000000Y-75625000D03*
X88500000Y-56375000D03*
%TO.N,EN*%
X74750000Y-82125000D03*
%TO.N,RXTMC*%
X79750000Y-73875000D03*
%TO.N,STEP*%
X82500000Y-67875000D03*
X77250000Y-72375000D03*
%TO.N,DIR*%
X83000000Y-66875000D03*
X74750000Y-72625000D03*
%TD*%
D33*
%TO.N,Earth*%
X78500000Y-68250000D02*
X78500000Y-69375000D01*
X78500000Y-69375000D02*
X76425000Y-71450000D01*
X76425000Y-71450000D02*
X76075000Y-71450000D01*
D34*
X78500000Y-68250000D02*
X78500000Y-69125000D01*
D35*
%TO.N,DIR*%
X74750000Y-72625000D02*
X74750000Y-70000000D01*
X74750000Y-70000000D02*
X77875000Y-66875000D01*
X77875000Y-66875000D02*
X83000000Y-66875000D01*
D33*
%TO.N,Earth*%
X78500000Y-58375000D02*
X78125000Y-58000000D01*
X78500000Y-65750000D02*
X78500000Y-58375000D01*
D35*
%TO.N,EN*%
X74750000Y-82125000D02*
X80750000Y-82125000D01*
X80750000Y-82125000D02*
X82000000Y-80875000D01*
X82000000Y-80875000D02*
X82000000Y-69125000D01*
D33*
%TO.N,12V*%
X111375000Y-45375000D02*
X94250000Y-45375000D01*
D36*
X67500000Y-67625000D02*
X67500000Y-68625000D01*
X67500000Y-68625000D02*
X70250000Y-71375000D01*
D37*
X70250000Y-81150000D02*
X70800000Y-81700000D01*
D36*
X70250000Y-71375000D02*
X70250000Y-81150000D01*
D34*
X64750000Y-67625000D02*
X67500000Y-67625000D01*
D36*
X84125000Y-46875000D02*
X67500000Y-63500000D01*
X94250000Y-45375000D02*
X92750000Y-46875000D01*
X92750000Y-46875000D02*
X84125000Y-46875000D01*
X67500000Y-63500000D02*
X67500000Y-67625000D01*
D34*
%TO.N,Earth*%
X71000000Y-48875000D02*
X73000000Y-46875000D01*
X73000000Y-46875000D02*
X73000000Y-46000000D01*
X73000000Y-46000000D02*
X74290000Y-44710000D01*
X74290000Y-44710000D02*
X75750000Y-44710000D01*
D38*
%TO.N,D-*%
X84750000Y-60875000D02*
X84750000Y-73875000D01*
X88500000Y-56375000D02*
X88500000Y-57125000D01*
X88500000Y-57125000D02*
X84750000Y-60875000D01*
X84750000Y-73875000D02*
X83000000Y-75625000D01*
%TO.N,D+*%
X87250000Y-49125000D02*
X91500000Y-49125000D01*
D34*
%TO.N,Earth*%
X75640000Y-44625000D02*
X75750000Y-44735000D01*
D33*
X89250000Y-52125000D02*
X85250000Y-56125000D01*
X85250000Y-56125000D02*
X85250000Y-56375000D01*
X79750000Y-56375000D02*
X85250000Y-56375000D01*
X78125000Y-58000000D02*
X79750000Y-56375000D01*
D35*
%TO.N,RXTMC*%
X81000000Y-72625000D02*
X81000000Y-70125000D01*
X79750000Y-73875000D02*
X81000000Y-72625000D01*
%TO.N,STEP*%
X81750000Y-67875000D02*
X77250000Y-72375000D01*
X82500000Y-67875000D02*
X81750000Y-67875000D01*
D38*
%TO.N,D+*%
X83000000Y-77625000D02*
X86500000Y-74125000D01*
X86500000Y-74125000D02*
X86500000Y-61375000D01*
X86500000Y-61375000D02*
X90750000Y-57125000D01*
X90750000Y-57125000D02*
X90750000Y-55625000D01*
D33*
%TO.N,12V*%
X120250000Y-54250000D02*
X111375000Y-45375000D01*
X120250000Y-59250000D02*
X120250000Y-54250000D01*
%TD*%
%TA.AperFunction,Conductor*%
%TO.N,Earth*%
G36*
X72950000Y-71175000D02*
G01*
X73650000Y-71175000D01*
X73650000Y-71125000D01*
X74149500Y-71125000D01*
X74149500Y-72042587D01*
X74129815Y-72109626D01*
X74122450Y-72119896D01*
X74120186Y-72122734D01*
X74024211Y-72275476D01*
X73964631Y-72445745D01*
X73964630Y-72445750D01*
X73944435Y-72624996D01*
X73944435Y-72625003D01*
X73964630Y-72804249D01*
X73964631Y-72804254D01*
X74024211Y-72974523D01*
X74106523Y-73105521D01*
X74120184Y-73127262D01*
X74247738Y-73254816D01*
X74400478Y-73350789D01*
X74463202Y-73372737D01*
X74570745Y-73410368D01*
X74570750Y-73410369D01*
X74749996Y-73430565D01*
X74750000Y-73430565D01*
X74750004Y-73430565D01*
X74929249Y-73410369D01*
X74929252Y-73410368D01*
X74929255Y-73410368D01*
X75099522Y-73350789D01*
X75252262Y-73254816D01*
X75379816Y-73127262D01*
X75475789Y-72974522D01*
X75535368Y-72804255D01*
X75544352Y-72724521D01*
X75555565Y-72625003D01*
X75555565Y-72624996D01*
X75535369Y-72445750D01*
X75535368Y-72445745D01*
X75475788Y-72275476D01*
X75442645Y-72222730D01*
X75379816Y-72122738D01*
X75379814Y-72122736D01*
X75379813Y-72122734D01*
X75377550Y-72119896D01*
X75376659Y-72117715D01*
X75376111Y-72116842D01*
X75376264Y-72116745D01*
X75351144Y-72055209D01*
X75350500Y-72042587D01*
X75350500Y-71125000D01*
X77650764Y-71125000D01*
X77231465Y-71544298D01*
X77170142Y-71577783D01*
X77157668Y-71579837D01*
X77070750Y-71589630D01*
X76900478Y-71649210D01*
X76747737Y-71745184D01*
X76620184Y-71872737D01*
X76524211Y-72025476D01*
X76464631Y-72195745D01*
X76464630Y-72195750D01*
X76444435Y-72374996D01*
X76444435Y-72375003D01*
X76464630Y-72554249D01*
X76464631Y-72554254D01*
X76524211Y-72724523D01*
X76607317Y-72856785D01*
X76620184Y-72877262D01*
X76747738Y-73004816D01*
X76810573Y-73044298D01*
X76882721Y-73089632D01*
X76900478Y-73100789D01*
X77038857Y-73149210D01*
X77070745Y-73160368D01*
X77070750Y-73160369D01*
X77249996Y-73180565D01*
X77250000Y-73180565D01*
X77250004Y-73180565D01*
X77429249Y-73160369D01*
X77429252Y-73160368D01*
X77429255Y-73160368D01*
X77599522Y-73100789D01*
X77752262Y-73004816D01*
X77879816Y-72877262D01*
X77975789Y-72724522D01*
X78035368Y-72554255D01*
X78045161Y-72467329D01*
X78072226Y-72402918D01*
X78080690Y-72393543D01*
X79349234Y-71125000D01*
X80399500Y-71125000D01*
X80399500Y-72324902D01*
X80379815Y-72391941D01*
X80363181Y-72412583D01*
X79731465Y-73044298D01*
X79670142Y-73077783D01*
X79657668Y-73079837D01*
X79570750Y-73089630D01*
X79400478Y-73149210D01*
X79247737Y-73245184D01*
X79120184Y-73372737D01*
X79024211Y-73525476D01*
X78964631Y-73695745D01*
X78964630Y-73695750D01*
X78944435Y-73874996D01*
X78944435Y-73875003D01*
X78964630Y-74054249D01*
X78964631Y-74054254D01*
X79024211Y-74224523D01*
X79120184Y-74377262D01*
X79247738Y-74504816D01*
X79400478Y-74600789D01*
X79570745Y-74660368D01*
X79570750Y-74660369D01*
X79749996Y-74680565D01*
X79750000Y-74680565D01*
X79750004Y-74680565D01*
X79929249Y-74660369D01*
X79929252Y-74660368D01*
X79929255Y-74660368D01*
X80099522Y-74600789D01*
X80252262Y-74504816D01*
X80379816Y-74377262D01*
X80475789Y-74224522D01*
X80535368Y-74054255D01*
X80545161Y-73967329D01*
X80572226Y-73902918D01*
X80580690Y-73893543D01*
X80750000Y-73724234D01*
X80750000Y-81275765D01*
X80650765Y-81375000D01*
X75030332Y-81375000D01*
X74929254Y-81339631D01*
X74929249Y-81339630D01*
X74750004Y-81319435D01*
X74749996Y-81319435D01*
X74570750Y-81339630D01*
X74570745Y-81339631D01*
X74469667Y-81375000D01*
X72250000Y-81375000D01*
X72250000Y-71125000D01*
X72900000Y-71125000D01*
X72950000Y-71175000D01*
G37*
%TD.AperFunction*%
%TD*%
%TA.AperFunction,Conductor*%
%TO.N,Earth*%
G36*
X73650000Y-71175000D02*
G01*
X72950000Y-71175000D01*
X72850000Y-71075000D01*
X72850000Y-70475000D01*
X73450000Y-69875000D01*
X73650000Y-69875000D01*
X73650000Y-71175000D01*
G37*
%TD.AperFunction*%
%TD*%
%TA.AperFunction,Conductor*%
%TO.N,Earth*%
G36*
X80913091Y-74416032D02*
G01*
X81000555Y-74458330D01*
X81065175Y-74530879D01*
X81097112Y-74622635D01*
X81099500Y-74657037D01*
X81099500Y-80398860D01*
X81080546Y-80494148D01*
X81026570Y-80574930D01*
X80750000Y-80851500D01*
X80750000Y-74433431D01*
X80816098Y-74410425D01*
X80913091Y-74416032D01*
G37*
%TD.AperFunction*%
%TA.AperFunction,Conductor*%
G36*
X80070148Y-67794454D02*
G01*
X80150930Y-67848430D01*
X80204906Y-67929212D01*
X80223860Y-68024500D01*
X80204906Y-68119788D01*
X80150930Y-68200570D01*
X77226498Y-71125000D01*
X75650500Y-71125000D01*
X75650500Y-70476139D01*
X75669454Y-70380851D01*
X75723430Y-70300069D01*
X78175069Y-67848430D01*
X78255851Y-67794454D01*
X78351139Y-67775500D01*
X79974860Y-67775500D01*
X80070148Y-67794454D01*
G37*
%TD.AperFunction*%
%TA.AperFunction,Conductor*%
G36*
X114827728Y-35394454D02*
G01*
X114908509Y-35448429D01*
X119337107Y-39877028D01*
X119391082Y-39957808D01*
X119410036Y-40053096D01*
X119391082Y-40148384D01*
X119337106Y-40229166D01*
X119256324Y-40283142D01*
X119161036Y-40302096D01*
X119110913Y-40296999D01*
X118865704Y-40246607D01*
X118826241Y-40238498D01*
X118826238Y-40238497D01*
X118826229Y-40238496D01*
X118442758Y-40199501D01*
X118442744Y-40199500D01*
X118442740Y-40199500D01*
X118057260Y-40199500D01*
X118057255Y-40199500D01*
X118057241Y-40199501D01*
X117673770Y-40238496D01*
X117673758Y-40238498D01*
X117296169Y-40316095D01*
X116928366Y-40431493D01*
X116574133Y-40583507D01*
X116237099Y-40770577D01*
X116237077Y-40770590D01*
X115920711Y-40990787D01*
X115920695Y-40990800D01*
X115628223Y-41241878D01*
X115628217Y-41241883D01*
X115628216Y-41241885D01*
X115362634Y-41521278D01*
X115362631Y-41521281D01*
X115362627Y-41521286D01*
X115203242Y-41727195D01*
X115126680Y-41826105D01*
X114961141Y-42091687D01*
X114922770Y-42153248D01*
X114753010Y-42499331D01*
X114619133Y-42860807D01*
X114522513Y-43233975D01*
X114522513Y-43233976D01*
X114522512Y-43233981D01*
X114522512Y-43233982D01*
X114469497Y-43580046D01*
X114464139Y-43615023D01*
X114464138Y-43615028D01*
X114444616Y-43999991D01*
X114444616Y-44000008D01*
X114464138Y-44384971D01*
X114464139Y-44384976D01*
X114464139Y-44384981D01*
X114464140Y-44384984D01*
X114513930Y-44710000D01*
X114522513Y-44766023D01*
X114522513Y-44766024D01*
X114619133Y-45139192D01*
X114753010Y-45500668D01*
X114753013Y-45500675D01*
X114761713Y-45518411D01*
X114922770Y-45846751D01*
X114922772Y-45846755D01*
X114922775Y-45846760D01*
X115126680Y-46173895D01*
X115362634Y-46478722D01*
X115628216Y-46758115D01*
X115628223Y-46758121D01*
X115920695Y-47009199D01*
X115920711Y-47009212D01*
X116237077Y-47229409D01*
X116237080Y-47229410D01*
X116237089Y-47229417D01*
X116574131Y-47416491D01*
X116574133Y-47416492D01*
X116928366Y-47568506D01*
X117044535Y-47604954D01*
X117296171Y-47683905D01*
X117673759Y-47761502D01*
X118057260Y-47800500D01*
X118057267Y-47800500D01*
X118442733Y-47800500D01*
X118442740Y-47800500D01*
X118826241Y-47761502D01*
X119203829Y-47683905D01*
X119571630Y-47568507D01*
X119571630Y-47568506D01*
X119571633Y-47568506D01*
X119748749Y-47492499D01*
X119925869Y-47416491D01*
X120262911Y-47229417D01*
X120579298Y-47009205D01*
X120871784Y-46758115D01*
X121137366Y-46478722D01*
X121373320Y-46173895D01*
X121577225Y-45846760D01*
X121746987Y-45500675D01*
X121880866Y-45139192D01*
X121977488Y-44766018D01*
X122035860Y-44384984D01*
X122035959Y-44383030D01*
X122055384Y-44000008D01*
X122055384Y-43999991D01*
X122035861Y-43615028D01*
X122035860Y-43615023D01*
X122035860Y-43615016D01*
X121977488Y-43233982D01*
X121956185Y-43151708D01*
X121950650Y-43054715D01*
X121982655Y-42962983D01*
X122047327Y-42890481D01*
X122134822Y-42848247D01*
X122231820Y-42842711D01*
X122323552Y-42874716D01*
X122373307Y-42913228D01*
X124176570Y-44716490D01*
X124230546Y-44797272D01*
X124249500Y-44892560D01*
X124249500Y-85875500D01*
X124230546Y-85970788D01*
X124176570Y-86051570D01*
X124095788Y-86105546D01*
X124000500Y-86124500D01*
X59499500Y-86124500D01*
X59404212Y-86105546D01*
X59323430Y-86051570D01*
X59269454Y-85970788D01*
X59250500Y-85875500D01*
X59250500Y-71973391D01*
X61974500Y-71973391D01*
X61974500Y-73276608D01*
X61989699Y-73430934D01*
X62049768Y-73628955D01*
X62101373Y-73725500D01*
X62147315Y-73811450D01*
X62233157Y-73916050D01*
X62278954Y-74001730D01*
X62288477Y-74098417D01*
X62260274Y-74191389D01*
X62242122Y-74220368D01*
X62213366Y-74259946D01*
X62213365Y-74259948D01*
X62095423Y-74491422D01*
X62095419Y-74491432D01*
X62015140Y-74738506D01*
X62015138Y-74738512D01*
X61974501Y-74995091D01*
X61974500Y-74995107D01*
X61974500Y-75254892D01*
X61974501Y-75254908D01*
X62015138Y-75511487D01*
X62015140Y-75511493D01*
X62095419Y-75758567D01*
X62095423Y-75758577D01*
X62213365Y-75990050D01*
X62213366Y-75990051D01*
X62366069Y-76200229D01*
X62366073Y-76200233D01*
X62372422Y-76207667D01*
X62371268Y-76208651D01*
X62418754Y-76279732D01*
X62437700Y-76375022D01*
X62418738Y-76470309D01*
X62371269Y-76541348D01*
X62372422Y-76542333D01*
X62366068Y-76549772D01*
X62213365Y-76759949D01*
X62095423Y-76991422D01*
X62095419Y-76991432D01*
X62015140Y-77238506D01*
X62015138Y-77238512D01*
X61974501Y-77495091D01*
X61974500Y-77495107D01*
X61974500Y-77754892D01*
X61974501Y-77754908D01*
X62015138Y-78011487D01*
X62015140Y-78011493D01*
X62095419Y-78258567D01*
X62095423Y-78258577D01*
X62213365Y-78490050D01*
X62225666Y-78506981D01*
X62366069Y-78700229D01*
X62366073Y-78700233D01*
X62372422Y-78707667D01*
X62371268Y-78708651D01*
X62418754Y-78779732D01*
X62437700Y-78875022D01*
X62418738Y-78970309D01*
X62371269Y-79041348D01*
X62372422Y-79042333D01*
X62366068Y-79049772D01*
X62213365Y-79259949D01*
X62095423Y-79491422D01*
X62095419Y-79491432D01*
X62015140Y-79738506D01*
X62015138Y-79738512D01*
X61974501Y-79995091D01*
X61974500Y-79995107D01*
X61974500Y-80254892D01*
X61974501Y-80254908D01*
X62015138Y-80511487D01*
X62015140Y-80511493D01*
X62095419Y-80758567D01*
X62095423Y-80758577D01*
X62213365Y-80990050D01*
X62319153Y-81135655D01*
X62366069Y-81200229D01*
X62549771Y-81383931D01*
X62759949Y-81536634D01*
X62991428Y-81654579D01*
X63238507Y-81734860D01*
X63238510Y-81734860D01*
X63238512Y-81734861D01*
X63412135Y-81762359D01*
X63495103Y-81775500D01*
X63495107Y-81775500D01*
X64004893Y-81775500D01*
X64004897Y-81775500D01*
X64261493Y-81734860D01*
X64508572Y-81654579D01*
X64740051Y-81536634D01*
X64950229Y-81383931D01*
X65133931Y-81200229D01*
X65286634Y-80990051D01*
X65404579Y-80758572D01*
X65484860Y-80511493D01*
X65525500Y-80254897D01*
X65525500Y-79995103D01*
X65484860Y-79738507D01*
X65404579Y-79491428D01*
X65286634Y-79259949D01*
X65133931Y-79049771D01*
X65133925Y-79049765D01*
X65127578Y-79042333D01*
X65128732Y-79041347D01*
X65081253Y-78970288D01*
X65062299Y-78875000D01*
X65081253Y-78779712D01*
X65128732Y-78708652D01*
X65127578Y-78707667D01*
X65133919Y-78700240D01*
X65133931Y-78700229D01*
X65286634Y-78490051D01*
X65404579Y-78258572D01*
X65484860Y-78011493D01*
X65525500Y-77754897D01*
X65525500Y-77495103D01*
X65484860Y-77238507D01*
X65404579Y-76991428D01*
X65286634Y-76759949D01*
X65133931Y-76549771D01*
X65133925Y-76549765D01*
X65127578Y-76542333D01*
X65128732Y-76541347D01*
X65081253Y-76470288D01*
X65062299Y-76375000D01*
X65081253Y-76279712D01*
X65128732Y-76208652D01*
X65127578Y-76207667D01*
X65133919Y-76200240D01*
X65133931Y-76200229D01*
X65286634Y-75990051D01*
X65404579Y-75758572D01*
X65484860Y-75511493D01*
X65525500Y-75254897D01*
X65525500Y-74995103D01*
X65504790Y-74864345D01*
X65484861Y-74738512D01*
X65484860Y-74738510D01*
X65484860Y-74738507D01*
X65404579Y-74491428D01*
X65359141Y-74402251D01*
X65286634Y-74259948D01*
X65257879Y-74220371D01*
X65217203Y-74132141D01*
X65213388Y-74035061D01*
X65247015Y-73943911D01*
X65266832Y-73916062D01*
X65352685Y-73811450D01*
X65450232Y-73628954D01*
X65510300Y-73430934D01*
X65525500Y-73276608D01*
X65525500Y-71973392D01*
X65510300Y-71819066D01*
X65502447Y-71793179D01*
X65466529Y-71674771D01*
X65450232Y-71621046D01*
X65352685Y-71438550D01*
X65352683Y-71438547D01*
X65221416Y-71278596D01*
X65221403Y-71278583D01*
X65061452Y-71147316D01*
X64878955Y-71049768D01*
X64680934Y-70989699D01*
X64526608Y-70974500D01*
X62973392Y-70974500D01*
X62973391Y-70974500D01*
X62819065Y-70989699D01*
X62621044Y-71049768D01*
X62438547Y-71147316D01*
X62278596Y-71278583D01*
X62278583Y-71278596D01*
X62147316Y-71438547D01*
X62049768Y-71621044D01*
X61989699Y-71819065D01*
X61974500Y-71973391D01*
X59250500Y-71973391D01*
X59250500Y-67625000D01*
X63644785Y-67625000D01*
X63663602Y-67828079D01*
X63663603Y-67828087D01*
X63719417Y-68024247D01*
X63719418Y-68024251D01*
X63810323Y-68206815D01*
X63810325Y-68206818D01*
X63810327Y-68206821D01*
X63848206Y-68256981D01*
X63933239Y-68369583D01*
X64083957Y-68506980D01*
X64083959Y-68506981D01*
X64257363Y-68614348D01*
X64447544Y-68688024D01*
X64581197Y-68713008D01*
X64648022Y-68725500D01*
X64648024Y-68725500D01*
X64851977Y-68725500D01*
X64902096Y-68716131D01*
X65052456Y-68688024D01*
X65052464Y-68688020D01*
X65063063Y-68685006D01*
X65131207Y-68675500D01*
X65472245Y-68675500D01*
X65567533Y-68694454D01*
X65648315Y-68748430D01*
X65702291Y-68829212D01*
X65719115Y-68892000D01*
X65730305Y-68977007D01*
X65791394Y-69204995D01*
X65830969Y-69300535D01*
X65830969Y-69300536D01*
X65881713Y-69423044D01*
X65881715Y-69423048D01*
X65881716Y-69423050D01*
X65999727Y-69627450D01*
X66143408Y-69814699D01*
X66143411Y-69814702D01*
X68376570Y-72047861D01*
X68430546Y-72128643D01*
X68449500Y-72223931D01*
X68449500Y-81268011D01*
X68480307Y-81502014D01*
X68541394Y-81729993D01*
X68561054Y-81777456D01*
X68631713Y-81948043D01*
X68631718Y-81948054D01*
X68749721Y-82152440D01*
X68749727Y-82152450D01*
X68893408Y-82339699D01*
X69060301Y-82506592D01*
X69247550Y-82650273D01*
X69302633Y-82682075D01*
X69451945Y-82768281D01*
X69451948Y-82768282D01*
X69451951Y-82768284D01*
X69670007Y-82858606D01*
X69762962Y-82883513D01*
X69844873Y-82922582D01*
X69892180Y-82956953D01*
X69986526Y-83025500D01*
X69987361Y-83026106D01*
X70204814Y-83136904D01*
X70436924Y-83212321D01*
X70520132Y-83225500D01*
X70677963Y-83250499D01*
X70677970Y-83250499D01*
X70677973Y-83250500D01*
X70677976Y-83250500D01*
X70922024Y-83250500D01*
X70922027Y-83250500D01*
X70922030Y-83250499D01*
X70922036Y-83250499D01*
X71035906Y-83232462D01*
X71163076Y-83212321D01*
X71395185Y-83136904D01*
X71612639Y-83026106D01*
X71810083Y-82882655D01*
X71982655Y-82710083D01*
X72126106Y-82512639D01*
X72236904Y-82295185D01*
X72312321Y-82063076D01*
X72350500Y-81822027D01*
X72350500Y-81577973D01*
X72350499Y-81577970D01*
X72350499Y-81577963D01*
X72322275Y-81399771D01*
X72318352Y-81375000D01*
X73939180Y-81375000D01*
X73933239Y-81380416D01*
X73810323Y-81543184D01*
X73719418Y-81725748D01*
X73719417Y-81725752D01*
X73663603Y-81921912D01*
X73663602Y-81921920D01*
X73644785Y-82125000D01*
X73663602Y-82328079D01*
X73663603Y-82328087D01*
X73719417Y-82524247D01*
X73719418Y-82524251D01*
X73810323Y-82706815D01*
X73810325Y-82706818D01*
X73810327Y-82706821D01*
X73856742Y-82768284D01*
X73933239Y-82869583D01*
X74083957Y-83006980D01*
X74114844Y-83026104D01*
X74257363Y-83114348D01*
X74447544Y-83188024D01*
X74577522Y-83212321D01*
X74648022Y-83225500D01*
X74648024Y-83225500D01*
X74851977Y-83225500D01*
X74885389Y-83219254D01*
X75052456Y-83188024D01*
X75242637Y-83114348D01*
X75325895Y-83062796D01*
X75416889Y-83028748D01*
X75456978Y-83025500D01*
X80838689Y-83025500D01*
X80838692Y-83025500D01*
X81012666Y-82990895D01*
X81094606Y-82956953D01*
X81176547Y-82923013D01*
X81278489Y-82854897D01*
X81324036Y-82824464D01*
X82424433Y-81724066D01*
X82505212Y-81670093D01*
X82600500Y-81651139D01*
X82695788Y-81670093D01*
X82776570Y-81724069D01*
X82830546Y-81804851D01*
X82849500Y-81900139D01*
X82849500Y-81979968D01*
X82864630Y-82114245D01*
X82864631Y-82114251D01*
X82864632Y-82114255D01*
X82924211Y-82284522D01*
X82924212Y-82284523D01*
X82924214Y-82284529D01*
X83020180Y-82437257D01*
X83020182Y-82437259D01*
X83020184Y-82437262D01*
X83049979Y-82467057D01*
X83103953Y-82547836D01*
X83122907Y-82643124D01*
X83103953Y-82738412D01*
X83086216Y-82773224D01*
X83024845Y-82873373D01*
X82925427Y-83113388D01*
X82925426Y-83113391D01*
X82864778Y-83366008D01*
X82844396Y-83624994D01*
X82844396Y-83625005D01*
X82864778Y-83883991D01*
X82925426Y-84136608D01*
X82925427Y-84136611D01*
X82974292Y-84254580D01*
X83024846Y-84376628D01*
X83160588Y-84598140D01*
X83329311Y-84795689D01*
X83526860Y-84964412D01*
X83748372Y-85100154D01*
X83988390Y-85199573D01*
X84241006Y-85260221D01*
X84305754Y-85265316D01*
X84499994Y-85280604D01*
X84500000Y-85280604D01*
X84500006Y-85280604D01*
X84672662Y-85267015D01*
X84758994Y-85260221D01*
X85011610Y-85199573D01*
X85251628Y-85100154D01*
X85473140Y-84964412D01*
X85663290Y-84802008D01*
X85748054Y-84754538D01*
X85844536Y-84743119D01*
X85938043Y-84769490D01*
X85986708Y-84802006D01*
X86176860Y-84964412D01*
X86398372Y-85100154D01*
X86638390Y-85199573D01*
X86891006Y-85260221D01*
X86955754Y-85265316D01*
X87149994Y-85280604D01*
X87150000Y-85280604D01*
X87150006Y-85280604D01*
X87322662Y-85267015D01*
X87408994Y-85260221D01*
X87661610Y-85199573D01*
X87901628Y-85100154D01*
X88123140Y-84964412D01*
X88320689Y-84795689D01*
X88489412Y-84598140D01*
X88625154Y-84376628D01*
X88724573Y-84136610D01*
X88785221Y-83883994D01*
X88805604Y-83625000D01*
X88802853Y-83590051D01*
X88785221Y-83366008D01*
X88724573Y-83113391D01*
X88724572Y-83113388D01*
X88708671Y-83075000D01*
X88625154Y-82873372D01*
X88563783Y-82773224D01*
X88530157Y-82682075D01*
X88533972Y-82584995D01*
X88574647Y-82496765D01*
X88600019Y-82467058D01*
X88629816Y-82437262D01*
X88725789Y-82284522D01*
X88785368Y-82114255D01*
X88788269Y-82088506D01*
X88800499Y-81979968D01*
X88800500Y-81979953D01*
X88800500Y-81850371D01*
X91150000Y-81850371D01*
X91150000Y-82349999D01*
X91150001Y-82350000D01*
X91595854Y-82350000D01*
X91557370Y-82416657D01*
X91525000Y-82537465D01*
X91525000Y-82662535D01*
X91557370Y-82783343D01*
X91595854Y-82850000D01*
X91150001Y-82850000D01*
X91150000Y-82850001D01*
X91150000Y-83349628D01*
X91164504Y-83422543D01*
X91164504Y-83422544D01*
X91219758Y-83505237D01*
X91219762Y-83505241D01*
X91302455Y-83560495D01*
X91375371Y-83574999D01*
X91375376Y-83575000D01*
X91749999Y-83575000D01*
X91750000Y-83574999D01*
X91750000Y-83004145D01*
X91816657Y-83042630D01*
X91937465Y-83075000D01*
X92062535Y-83075000D01*
X92183343Y-83042630D01*
X92250000Y-83004145D01*
X92250000Y-83574999D01*
X92250001Y-83575000D01*
X92624624Y-83575000D01*
X92624628Y-83574999D01*
X92697543Y-83560495D01*
X92747123Y-83527367D01*
X92836882Y-83490187D01*
X92934037Y-83490186D01*
X93023797Y-83527365D01*
X93086907Y-83588043D01*
X93241066Y-83800225D01*
X93241069Y-83800229D01*
X93424771Y-83983931D01*
X93634949Y-84136634D01*
X93866428Y-84254579D01*
X94113507Y-84334860D01*
X94113510Y-84334860D01*
X94113512Y-84334861D01*
X94287135Y-84362359D01*
X94370103Y-84375500D01*
X94370107Y-84375500D01*
X94629893Y-84375500D01*
X94629897Y-84375500D01*
X94886493Y-84334860D01*
X95133572Y-84254579D01*
X95365051Y-84136634D01*
X95575229Y-83983931D01*
X95575240Y-83983919D01*
X95582667Y-83977578D01*
X95583652Y-83978732D01*
X95654712Y-83931253D01*
X95750000Y-83912299D01*
X95845288Y-83931253D01*
X95916347Y-83978732D01*
X95917333Y-83977578D01*
X95924765Y-83983925D01*
X95924771Y-83983931D01*
X96134949Y-84136634D01*
X96366428Y-84254579D01*
X96613507Y-84334860D01*
X96613510Y-84334860D01*
X96613512Y-84334861D01*
X96787135Y-84362359D01*
X96870103Y-84375500D01*
X96870107Y-84375500D01*
X97129893Y-84375500D01*
X97129897Y-84375500D01*
X97386493Y-84334860D01*
X97633572Y-84254579D01*
X97865051Y-84136634D01*
X98075229Y-83983931D01*
X98258931Y-83800229D01*
X98411634Y-83590051D01*
X98529579Y-83358572D01*
X98609860Y-83111493D01*
X98650500Y-82854897D01*
X98650500Y-82345103D01*
X98620767Y-82157370D01*
X98609861Y-82088512D01*
X98609860Y-82088510D01*
X98609860Y-82088507D01*
X98529579Y-81841428D01*
X98496983Y-81777456D01*
X98411634Y-81609949D01*
X98258933Y-81399774D01*
X98258931Y-81399771D01*
X98075229Y-81216069D01*
X97986454Y-81151570D01*
X97865050Y-81063365D01*
X97633577Y-80945423D01*
X97633567Y-80945419D01*
X97386493Y-80865140D01*
X97386487Y-80865138D01*
X97129908Y-80824501D01*
X97129899Y-80824500D01*
X97129897Y-80824500D01*
X96870103Y-80824500D01*
X96870100Y-80824500D01*
X96870091Y-80824501D01*
X96613512Y-80865138D01*
X96613506Y-80865140D01*
X96366432Y-80945419D01*
X96366422Y-80945423D01*
X96134949Y-81063365D01*
X95924772Y-81216068D01*
X95917333Y-81222422D01*
X95916348Y-81221268D01*
X95845268Y-81268754D01*
X95749978Y-81287700D01*
X95654691Y-81268738D01*
X95583651Y-81221269D01*
X95582667Y-81222422D01*
X95575233Y-81216073D01*
X95575229Y-81216069D01*
X95365051Y-81063366D01*
X95365052Y-81063366D01*
X95365050Y-81063365D01*
X95133577Y-80945423D01*
X95133567Y-80945419D01*
X94886493Y-80865140D01*
X94886487Y-80865138D01*
X94629908Y-80824501D01*
X94629899Y-80824500D01*
X94629897Y-80824500D01*
X94370103Y-80824500D01*
X94370100Y-80824500D01*
X94370091Y-80824501D01*
X94113512Y-80865138D01*
X94113506Y-80865140D01*
X93866432Y-80945419D01*
X93866422Y-80945423D01*
X93634949Y-81063365D01*
X93424774Y-81216066D01*
X93241066Y-81399774D01*
X93086907Y-81611956D01*
X93015564Y-81677905D01*
X92924414Y-81711531D01*
X92827334Y-81707717D01*
X92747125Y-81672633D01*
X92697544Y-81639504D01*
X92624628Y-81625000D01*
X92250001Y-81625000D01*
X92250000Y-81625001D01*
X92250000Y-82195854D01*
X92183343Y-82157370D01*
X92062535Y-82125000D01*
X91937465Y-82125000D01*
X91816657Y-82157370D01*
X91750000Y-82195854D01*
X91750000Y-81625001D01*
X91749999Y-81625000D01*
X91375371Y-81625000D01*
X91302456Y-81639504D01*
X91302455Y-81639504D01*
X91219762Y-81694758D01*
X91219758Y-81694762D01*
X91164504Y-81777455D01*
X91164504Y-81777456D01*
X91150000Y-81850371D01*
X88800500Y-81850371D01*
X88800500Y-80190046D01*
X88800499Y-80190031D01*
X88785369Y-80055754D01*
X88785368Y-80055745D01*
X88725789Y-79885478D01*
X88725786Y-79885473D01*
X88725785Y-79885470D01*
X88629819Y-79732742D01*
X88629817Y-79732740D01*
X88629816Y-79732738D01*
X88502262Y-79605184D01*
X88502259Y-79605182D01*
X88502257Y-79605180D01*
X88349529Y-79509214D01*
X88349524Y-79509212D01*
X88349522Y-79509211D01*
X88179255Y-79449632D01*
X88179251Y-79449631D01*
X88179245Y-79449630D01*
X88044968Y-79434500D01*
X88044954Y-79434500D01*
X86255046Y-79434500D01*
X86255031Y-79434500D01*
X86120754Y-79449630D01*
X86120746Y-79449631D01*
X86120745Y-79449632D01*
X85950478Y-79509211D01*
X85950476Y-79509211D01*
X85950476Y-79509212D01*
X85937874Y-79515281D01*
X85936660Y-79512761D01*
X85866693Y-79539464D01*
X85769577Y-79536733D01*
X85713067Y-79513325D01*
X85712126Y-79515281D01*
X85699525Y-79509213D01*
X85699522Y-79509211D01*
X85529255Y-79449632D01*
X85529251Y-79449631D01*
X85529245Y-79449630D01*
X85394968Y-79434500D01*
X85394954Y-79434500D01*
X83605046Y-79434500D01*
X83605031Y-79434500D01*
X83470754Y-79449630D01*
X83470746Y-79449631D01*
X83470745Y-79449632D01*
X83300478Y-79509211D01*
X83300476Y-79509211D01*
X83300476Y-79509212D01*
X83300473Y-79509213D01*
X83281975Y-79520837D01*
X83191208Y-79555484D01*
X83094091Y-79552759D01*
X83005410Y-79513076D01*
X82938665Y-79442477D01*
X82904018Y-79351710D01*
X82900500Y-79310002D01*
X82900500Y-78969929D01*
X82919454Y-78874641D01*
X82973430Y-78793859D01*
X83054212Y-78739883D01*
X83103747Y-78725169D01*
X83197375Y-78707667D01*
X83302456Y-78688024D01*
X83492637Y-78614348D01*
X83666041Y-78506981D01*
X83816764Y-78369579D01*
X83939673Y-78206821D01*
X84030582Y-78024250D01*
X84046935Y-77966774D01*
X84091242Y-77880313D01*
X84110350Y-77858858D01*
X87238301Y-74730909D01*
X87249507Y-74714139D01*
X87342322Y-74575231D01*
X87413973Y-74402251D01*
X87417415Y-74384949D01*
X87442210Y-74260299D01*
X87450151Y-74220371D01*
X87450500Y-74218617D01*
X87450500Y-74031384D01*
X87450500Y-65975000D01*
X89994785Y-65975000D01*
X90013602Y-66178079D01*
X90013603Y-66178087D01*
X90069417Y-66374247D01*
X90069418Y-66374251D01*
X90163907Y-66564012D01*
X90189413Y-66657759D01*
X90177103Y-66754131D01*
X90163907Y-66785988D01*
X90069418Y-66975748D01*
X90069417Y-66975752D01*
X90013603Y-67171912D01*
X90013602Y-67171920D01*
X89994785Y-67375000D01*
X90013602Y-67578079D01*
X90013603Y-67578087D01*
X90069417Y-67774247D01*
X90069418Y-67774251D01*
X90160323Y-67956815D01*
X90160325Y-67956818D01*
X90160327Y-67956821D01*
X90211245Y-68024247D01*
X90283239Y-68119583D01*
X90433955Y-68256978D01*
X90433957Y-68256979D01*
X90433959Y-68256981D01*
X90607363Y-68364348D01*
X90650391Y-68381017D01*
X90650394Y-68381018D01*
X90732401Y-68433113D01*
X90783343Y-68502216D01*
X90860323Y-68656815D01*
X90860325Y-68656817D01*
X90860327Y-68656821D01*
X90935964Y-68756981D01*
X90983239Y-68819583D01*
X91133957Y-68956980D01*
X91133959Y-68956981D01*
X91307363Y-69064348D01*
X91497544Y-69138024D01*
X91631197Y-69163008D01*
X91698022Y-69175500D01*
X91698024Y-69175500D01*
X91901977Y-69175500D01*
X91935389Y-69169254D01*
X92102456Y-69138024D01*
X92292637Y-69064348D01*
X92368921Y-69017114D01*
X92459911Y-68983068D01*
X92557008Y-68986434D01*
X92631077Y-69017114D01*
X92707363Y-69064348D01*
X92897544Y-69138024D01*
X93031197Y-69163008D01*
X93098022Y-69175500D01*
X93098024Y-69175500D01*
X93301977Y-69175500D01*
X93335389Y-69169254D01*
X93502456Y-69138024D01*
X93692637Y-69064348D01*
X93866041Y-68956981D01*
X94016764Y-68819579D01*
X94139673Y-68656821D01*
X94155522Y-68624991D01*
X103944616Y-68624991D01*
X103944616Y-68625008D01*
X103964138Y-69009971D01*
X103964139Y-69009976D01*
X103964139Y-69009981D01*
X103964140Y-69009984D01*
X104012871Y-69328087D01*
X104022513Y-69391023D01*
X104022513Y-69391024D01*
X104119133Y-69764192D01*
X104231155Y-70066657D01*
X104253013Y-70125675D01*
X104325256Y-70272953D01*
X104422770Y-70471751D01*
X104422772Y-70471755D01*
X104422775Y-70471760D01*
X104626680Y-70798895D01*
X104862634Y-71103722D01*
X105128216Y-71383115D01*
X105128223Y-71383121D01*
X105420695Y-71634199D01*
X105420711Y-71634212D01*
X105737077Y-71854409D01*
X105737080Y-71854410D01*
X105737089Y-71854417D01*
X106007223Y-72004354D01*
X106074133Y-72041492D01*
X106428366Y-72193506D01*
X106577833Y-72240401D01*
X106796171Y-72308905D01*
X107173759Y-72386502D01*
X107557260Y-72425500D01*
X107557267Y-72425500D01*
X107942733Y-72425500D01*
X107942740Y-72425500D01*
X108326241Y-72386502D01*
X108703829Y-72308905D01*
X109071630Y-72193507D01*
X109071630Y-72193506D01*
X109071633Y-72193506D01*
X109342016Y-72077475D01*
X109425869Y-72041491D01*
X109762911Y-71854417D01*
X110079298Y-71634205D01*
X110371784Y-71383115D01*
X110637366Y-71103722D01*
X110873320Y-70798895D01*
X111077225Y-70471760D01*
X111246987Y-70125675D01*
X111328705Y-69905031D01*
X112149500Y-69905031D01*
X112149500Y-71594968D01*
X112164630Y-71729245D01*
X112164631Y-71729251D01*
X112164632Y-71729255D01*
X112224211Y-71899522D01*
X112224212Y-71899523D01*
X112224214Y-71899529D01*
X112320180Y-72052257D01*
X112320182Y-72052259D01*
X112320184Y-72052262D01*
X112447738Y-72179816D01*
X112447740Y-72179817D01*
X112447742Y-72179819D01*
X112600470Y-72275785D01*
X112600473Y-72275786D01*
X112600478Y-72275789D01*
X112770745Y-72335368D01*
X112770747Y-72335368D01*
X112783944Y-72339986D01*
X112783449Y-72341397D01*
X112857849Y-72374685D01*
X112924597Y-72445281D01*
X112959248Y-72536047D01*
X112961202Y-72605644D01*
X112944938Y-72749994D01*
X112944938Y-72750003D01*
X112965122Y-72929140D01*
X113024665Y-73099305D01*
X113033337Y-73113106D01*
X113350000Y-72796443D01*
X113350000Y-72802661D01*
X113377259Y-72904394D01*
X113429920Y-72995606D01*
X113504394Y-73070080D01*
X113595606Y-73122741D01*
X113697339Y-73150000D01*
X113703553Y-73150000D01*
X113386892Y-73466661D01*
X113400693Y-73475334D01*
X113400698Y-73475336D01*
X113570858Y-73534877D01*
X113570857Y-73534877D01*
X113749996Y-73555062D01*
X113750004Y-73555062D01*
X113929141Y-73534877D01*
X114099301Y-73475336D01*
X114099307Y-73475333D01*
X114113107Y-73466661D01*
X114113107Y-73466660D01*
X113796447Y-73150000D01*
X113802661Y-73150000D01*
X113904394Y-73122741D01*
X113995606Y-73070080D01*
X114070080Y-72995606D01*
X114122741Y-72904394D01*
X114150000Y-72802661D01*
X114150000Y-72796447D01*
X114466660Y-73113107D01*
X114466661Y-73113107D01*
X114475333Y-73099307D01*
X114475336Y-73099301D01*
X114534877Y-72929141D01*
X114555062Y-72750003D01*
X114555062Y-72749997D01*
X114540426Y-72620107D01*
X119249500Y-72620107D01*
X119249500Y-72879892D01*
X119249501Y-72879908D01*
X119290138Y-73136487D01*
X119290140Y-73136493D01*
X119370419Y-73383567D01*
X119370423Y-73383577D01*
X119488365Y-73615050D01*
X119488366Y-73615051D01*
X119641069Y-73825229D01*
X119641073Y-73825233D01*
X119647422Y-73832667D01*
X119646268Y-73833651D01*
X119693754Y-73904732D01*
X119712700Y-74000022D01*
X119693738Y-74095309D01*
X119646269Y-74166348D01*
X119647422Y-74167333D01*
X119641068Y-74174772D01*
X119488365Y-74384949D01*
X119370423Y-74616422D01*
X119370419Y-74616432D01*
X119290140Y-74863506D01*
X119290138Y-74863512D01*
X119249501Y-75120091D01*
X119249500Y-75120107D01*
X119249500Y-75379892D01*
X119249501Y-75379908D01*
X119290138Y-75636487D01*
X119290140Y-75636493D01*
X119370419Y-75883567D01*
X119370423Y-75883577D01*
X119488365Y-76115050D01*
X119641066Y-76325225D01*
X119641069Y-76325229D01*
X119824771Y-76508931D01*
X120034949Y-76661634D01*
X120266428Y-76779579D01*
X120513507Y-76859860D01*
X120513510Y-76859860D01*
X120513512Y-76859861D01*
X120687135Y-76887359D01*
X120770103Y-76900500D01*
X120770107Y-76900500D01*
X121279893Y-76900500D01*
X121279897Y-76900500D01*
X121536493Y-76859860D01*
X121783572Y-76779579D01*
X122015051Y-76661634D01*
X122225229Y-76508931D01*
X122408931Y-76325229D01*
X122561634Y-76115051D01*
X122679579Y-75883572D01*
X122759860Y-75636493D01*
X122800500Y-75379897D01*
X122800500Y-75120103D01*
X122759860Y-74863507D01*
X122679579Y-74616428D01*
X122561634Y-74384949D01*
X122408931Y-74174771D01*
X122408925Y-74174765D01*
X122402578Y-74167333D01*
X122403732Y-74166347D01*
X122356253Y-74095288D01*
X122337299Y-74000000D01*
X122356253Y-73904712D01*
X122403732Y-73833652D01*
X122402578Y-73832667D01*
X122408919Y-73825240D01*
X122408931Y-73825229D01*
X122561634Y-73615051D01*
X122679579Y-73383572D01*
X122759860Y-73136493D01*
X122760823Y-73130416D01*
X122782174Y-72995606D01*
X122800500Y-72879897D01*
X122800500Y-72620103D01*
X122781412Y-72499585D01*
X122759861Y-72363512D01*
X122759860Y-72363510D01*
X122759860Y-72363507D01*
X122679579Y-72116428D01*
X122561634Y-71884949D01*
X122408931Y-71674771D01*
X122225229Y-71491069D01*
X122152939Y-71438547D01*
X122013043Y-71336907D01*
X121947095Y-71265564D01*
X121913468Y-71174414D01*
X121917282Y-71077334D01*
X121952367Y-70997123D01*
X121985495Y-70947543D01*
X121999999Y-70874628D01*
X122000000Y-70874623D01*
X122000000Y-70500001D01*
X121999999Y-70500000D01*
X121429146Y-70500000D01*
X121467630Y-70433343D01*
X121500000Y-70312535D01*
X121500000Y-70187465D01*
X121467630Y-70066657D01*
X121429146Y-70000000D01*
X121999999Y-70000000D01*
X122000000Y-69999999D01*
X122000000Y-69625376D01*
X121999999Y-69625371D01*
X121985495Y-69552456D01*
X121985495Y-69552455D01*
X121930241Y-69469762D01*
X121930237Y-69469758D01*
X121847544Y-69414504D01*
X121774628Y-69400000D01*
X121275001Y-69400000D01*
X121275000Y-69400001D01*
X121275000Y-69845854D01*
X121208343Y-69807370D01*
X121087535Y-69775000D01*
X120962465Y-69775000D01*
X120841657Y-69807370D01*
X120775000Y-69845854D01*
X120775000Y-69400001D01*
X120774999Y-69400000D01*
X120275371Y-69400000D01*
X120202456Y-69414504D01*
X120202455Y-69414504D01*
X120119762Y-69469758D01*
X120119758Y-69469762D01*
X120064504Y-69552455D01*
X120064504Y-69552456D01*
X120050000Y-69625371D01*
X120050000Y-69999999D01*
X120050001Y-70000000D01*
X120620854Y-70000000D01*
X120582370Y-70066657D01*
X120550000Y-70187465D01*
X120550000Y-70312535D01*
X120582370Y-70433343D01*
X120620854Y-70500000D01*
X120050001Y-70500000D01*
X120050000Y-70500001D01*
X120050000Y-70874628D01*
X120064504Y-70947543D01*
X120064504Y-70947544D01*
X120097633Y-70997125D01*
X120134813Y-71086885D01*
X120134812Y-71184040D01*
X120097633Y-71273799D01*
X120036956Y-71336907D01*
X119824774Y-71491066D01*
X119641066Y-71674774D01*
X119488365Y-71884949D01*
X119370423Y-72116422D01*
X119370419Y-72116432D01*
X119290140Y-72363506D01*
X119290138Y-72363512D01*
X119249501Y-72620091D01*
X119249500Y-72620107D01*
X114540426Y-72620107D01*
X114538797Y-72605646D01*
X114546962Y-72508835D01*
X114591554Y-72422518D01*
X114665784Y-72359836D01*
X114716260Y-72340570D01*
X114716056Y-72339986D01*
X114729252Y-72335368D01*
X114729255Y-72335368D01*
X114899522Y-72275789D01*
X114899527Y-72275785D01*
X114899529Y-72275785D01*
X115030473Y-72193507D01*
X115052262Y-72179816D01*
X115179816Y-72052262D01*
X115227893Y-71975748D01*
X115275785Y-71899529D01*
X115275785Y-71899527D01*
X115275789Y-71899522D01*
X115335368Y-71729255D01*
X115338091Y-71705079D01*
X115350499Y-71594968D01*
X115350500Y-71594953D01*
X115350500Y-69905046D01*
X115350499Y-69905031D01*
X115335369Y-69770754D01*
X115335368Y-69770745D01*
X115275789Y-69600478D01*
X115275786Y-69600473D01*
X115275785Y-69600470D01*
X115179819Y-69447742D01*
X115179817Y-69447740D01*
X115179816Y-69447738D01*
X115052262Y-69320184D01*
X115052259Y-69320182D01*
X115052257Y-69320180D01*
X114899529Y-69224214D01*
X114899524Y-69224212D01*
X114899522Y-69224211D01*
X114729255Y-69164632D01*
X114729251Y-69164631D01*
X114729245Y-69164630D01*
X114594968Y-69149500D01*
X114594954Y-69149500D01*
X112905046Y-69149500D01*
X112905031Y-69149500D01*
X112770754Y-69164630D01*
X112770746Y-69164631D01*
X112770745Y-69164632D01*
X112600478Y-69224211D01*
X112600476Y-69224211D01*
X112600476Y-69224212D01*
X112600470Y-69224214D01*
X112447742Y-69320180D01*
X112320180Y-69447742D01*
X112224214Y-69600470D01*
X112224211Y-69600476D01*
X112224211Y-69600478D01*
X112185942Y-69709846D01*
X112164632Y-69770746D01*
X112164630Y-69770754D01*
X112149500Y-69905031D01*
X111328705Y-69905031D01*
X111380866Y-69764192D01*
X111477488Y-69391018D01*
X111535860Y-69009984D01*
X111535861Y-69009971D01*
X111555384Y-68625008D01*
X111555384Y-68624991D01*
X111535861Y-68240028D01*
X111535860Y-68240023D01*
X111535860Y-68240016D01*
X111477488Y-67858982D01*
X111380866Y-67485808D01*
X111357204Y-67421920D01*
X111297185Y-67259864D01*
X111246987Y-67124325D01*
X111077225Y-66778240D01*
X110873320Y-66451105D01*
X110637366Y-66146278D01*
X110371784Y-65866885D01*
X110313798Y-65817106D01*
X110079304Y-65615800D01*
X110079288Y-65615787D01*
X109762922Y-65395590D01*
X109762915Y-65395586D01*
X109762911Y-65395583D01*
X109465338Y-65230416D01*
X109425866Y-65208507D01*
X109071633Y-65056493D01*
X108703830Y-64941095D01*
X108326241Y-64863498D01*
X108326229Y-64863496D01*
X107942758Y-64824501D01*
X107942744Y-64824500D01*
X107942740Y-64824500D01*
X107557260Y-64824500D01*
X107557255Y-64824500D01*
X107557241Y-64824501D01*
X107173770Y-64863496D01*
X107173758Y-64863498D01*
X106796169Y-64941095D01*
X106428366Y-65056493D01*
X106074133Y-65208507D01*
X105737099Y-65395577D01*
X105737077Y-65395590D01*
X105420711Y-65615787D01*
X105420695Y-65615800D01*
X105128223Y-65866878D01*
X105128217Y-65866883D01*
X105128216Y-65866885D01*
X104862634Y-66146278D01*
X104862631Y-66146281D01*
X104862627Y-66146286D01*
X104650147Y-66420788D01*
X104626680Y-66451105D01*
X104555692Y-66564994D01*
X104422770Y-66778248D01*
X104253010Y-67124331D01*
X104119133Y-67485807D01*
X104022513Y-67858975D01*
X104022513Y-67858976D01*
X104022512Y-67858981D01*
X104022512Y-67858982D01*
X103997194Y-68024250D01*
X103964139Y-68240023D01*
X103964138Y-68240028D01*
X103944616Y-68624991D01*
X94155522Y-68624991D01*
X94216658Y-68502212D01*
X94276095Y-68425367D01*
X94349601Y-68381019D01*
X94392637Y-68364348D01*
X94566041Y-68256981D01*
X94716764Y-68119579D01*
X94839673Y-67956821D01*
X94930582Y-67774250D01*
X94986397Y-67578083D01*
X95005215Y-67375000D01*
X94986397Y-67171917D01*
X94972857Y-67124331D01*
X94949767Y-67043179D01*
X94930582Y-66975750D01*
X94883112Y-66880416D01*
X94836093Y-66785988D01*
X94810587Y-66692241D01*
X94822897Y-66595869D01*
X94836093Y-66564012D01*
X94907409Y-66420788D01*
X94930582Y-66374250D01*
X94986397Y-66178083D01*
X95005215Y-65975000D01*
X94986397Y-65771917D01*
X94930582Y-65575750D01*
X94840874Y-65395590D01*
X94839676Y-65393184D01*
X94839674Y-65393182D01*
X94839673Y-65393179D01*
X94716764Y-65230421D01*
X94716763Y-65230420D01*
X94716760Y-65230416D01*
X94566042Y-65093019D01*
X94392642Y-64985655D01*
X94392640Y-64985654D01*
X94392637Y-64985652D01*
X94392635Y-64985651D01*
X94392631Y-64985649D01*
X94349600Y-64968979D01*
X94267594Y-64916882D01*
X94216657Y-64847785D01*
X94139673Y-64693179D01*
X94016764Y-64530421D01*
X94016763Y-64530420D01*
X94016760Y-64530416D01*
X93866042Y-64393019D01*
X93692640Y-64285654D01*
X93692637Y-64285652D01*
X93502456Y-64211976D01*
X93502451Y-64211975D01*
X93301979Y-64174500D01*
X93301976Y-64174500D01*
X93098024Y-64174500D01*
X93098021Y-64174500D01*
X92897548Y-64211975D01*
X92897546Y-64211975D01*
X92897544Y-64211976D01*
X92750698Y-64268863D01*
X92707360Y-64285653D01*
X92631080Y-64332884D01*
X92540087Y-64366931D01*
X92442990Y-64363565D01*
X92368920Y-64332884D01*
X92292639Y-64285653D01*
X92292637Y-64285652D01*
X92102456Y-64211976D01*
X92102451Y-64211975D01*
X91901979Y-64174500D01*
X91901976Y-64174500D01*
X91698024Y-64174500D01*
X91698021Y-64174500D01*
X91497548Y-64211975D01*
X91497546Y-64211975D01*
X91497544Y-64211976D01*
X91307363Y-64285652D01*
X91307361Y-64285653D01*
X91307359Y-64285654D01*
X91133957Y-64393019D01*
X90983239Y-64530416D01*
X90860324Y-64693182D01*
X90783343Y-64847783D01*
X90723902Y-64924633D01*
X90650401Y-64968978D01*
X90607367Y-64985650D01*
X90607357Y-64985655D01*
X90433957Y-65093019D01*
X90283239Y-65230416D01*
X90160323Y-65393184D01*
X90069418Y-65575748D01*
X90069417Y-65575752D01*
X90013603Y-65771912D01*
X90013602Y-65771920D01*
X89994785Y-65975000D01*
X87450500Y-65975000D01*
X87450500Y-61871849D01*
X87469454Y-61776561D01*
X87523427Y-61695782D01*
X87719208Y-61500001D01*
X114025000Y-61500001D01*
X114025000Y-63499999D01*
X114025001Y-63500000D01*
X115249999Y-63500000D01*
X115250000Y-63499999D01*
X115250000Y-61500001D01*
X115750000Y-61500001D01*
X115750000Y-63499999D01*
X115750001Y-63500000D01*
X116974999Y-63500000D01*
X116975000Y-63499999D01*
X116975000Y-61500001D01*
X116974999Y-61500000D01*
X115750001Y-61500000D01*
X115750000Y-61500001D01*
X115250000Y-61500001D01*
X115249999Y-61500000D01*
X114025001Y-61500000D01*
X114025000Y-61500001D01*
X87719208Y-61500001D01*
X90219209Y-59000001D01*
X114025000Y-59000001D01*
X114025000Y-60999999D01*
X114025001Y-61000000D01*
X115249999Y-61000000D01*
X115250000Y-60999999D01*
X115250000Y-59000001D01*
X115750000Y-59000001D01*
X115750000Y-60999999D01*
X115750001Y-61000000D01*
X116974999Y-61000000D01*
X116975000Y-60999999D01*
X116975000Y-59000001D01*
X116974999Y-59000000D01*
X115750001Y-59000000D01*
X115750000Y-59000001D01*
X115250000Y-59000001D01*
X115249999Y-59000000D01*
X114025001Y-59000000D01*
X114025000Y-59000001D01*
X90219209Y-59000001D01*
X91488302Y-57730908D01*
X91592323Y-57575230D01*
X91663973Y-57402250D01*
X91700500Y-57218616D01*
X91700500Y-57031383D01*
X91700500Y-56243641D01*
X91719454Y-56148353D01*
X91726604Y-56132652D01*
X91780582Y-56024250D01*
X91836397Y-55828083D01*
X91855215Y-55625000D01*
X91836397Y-55421917D01*
X91825358Y-55383121D01*
X91805115Y-55311975D01*
X91780582Y-55225750D01*
X91719820Y-55103722D01*
X91689676Y-55043184D01*
X91689674Y-55043182D01*
X91689673Y-55043179D01*
X91566764Y-54880421D01*
X91566763Y-54880420D01*
X91566760Y-54880416D01*
X91416042Y-54743019D01*
X91242640Y-54635654D01*
X91242637Y-54635652D01*
X91052456Y-54561976D01*
X91052451Y-54561975D01*
X90851979Y-54524500D01*
X90851976Y-54524500D01*
X90648024Y-54524500D01*
X90648021Y-54524500D01*
X90447548Y-54561975D01*
X90447546Y-54561975D01*
X90447544Y-54561976D01*
X90257363Y-54635652D01*
X90257361Y-54635653D01*
X90257359Y-54635654D01*
X90083957Y-54743019D01*
X89933239Y-54880416D01*
X89810323Y-55043184D01*
X89719418Y-55225748D01*
X89719417Y-55225752D01*
X89663602Y-55421917D01*
X89661944Y-55430788D01*
X89625802Y-55520970D01*
X89557899Y-55590456D01*
X89468574Y-55628667D01*
X89371425Y-55629787D01*
X89281243Y-55593645D01*
X89249436Y-55569042D01*
X89166042Y-55493019D01*
X88992640Y-55385654D01*
X88992637Y-55385652D01*
X88802456Y-55311976D01*
X88802451Y-55311975D01*
X88601979Y-55274500D01*
X88601976Y-55274500D01*
X88398024Y-55274500D01*
X88398021Y-55274500D01*
X88197548Y-55311975D01*
X88197546Y-55311975D01*
X88197544Y-55311976D01*
X88007363Y-55385652D01*
X88007361Y-55385653D01*
X88007359Y-55385654D01*
X87833957Y-55493019D01*
X87683239Y-55630416D01*
X87560323Y-55793184D01*
X87469418Y-55975748D01*
X87469417Y-55975752D01*
X87413603Y-56171912D01*
X87413602Y-56171920D01*
X87394785Y-56375000D01*
X87413602Y-56578079D01*
X87413602Y-56578081D01*
X87437595Y-56662406D01*
X87445441Y-56759244D01*
X87415632Y-56851713D01*
X87374170Y-56906618D01*
X84011695Y-60269095D01*
X83907677Y-60424768D01*
X83907674Y-60424775D01*
X83892659Y-60461026D01*
X83892659Y-60461027D01*
X83836027Y-60597746D01*
X83819699Y-60679837D01*
X83800340Y-60777164D01*
X83799500Y-60781385D01*
X83799500Y-65641036D01*
X83780546Y-65736324D01*
X83726570Y-65817106D01*
X83645788Y-65871082D01*
X83550500Y-65890036D01*
X83460552Y-65873222D01*
X83302453Y-65811975D01*
X83101979Y-65774500D01*
X83101976Y-65774500D01*
X82898024Y-65774500D01*
X82898021Y-65774500D01*
X82697548Y-65811975D01*
X82697546Y-65811975D01*
X82697544Y-65811976D01*
X82507363Y-65885652D01*
X82507361Y-65885652D01*
X82507356Y-65885655D01*
X82424105Y-65937203D01*
X82333111Y-65971252D01*
X82293022Y-65974500D01*
X77786305Y-65974500D01*
X77716483Y-65988389D01*
X77693208Y-65993019D01*
X77612334Y-66009106D01*
X77485575Y-66061610D01*
X77448450Y-66076988D01*
X77300966Y-66175534D01*
X77300963Y-66175536D01*
X77300964Y-66175537D01*
X74050536Y-69425964D01*
X74011062Y-69485041D01*
X74011061Y-69485040D01*
X73951987Y-69573451D01*
X73951987Y-69573452D01*
X73938794Y-69605304D01*
X73938793Y-69605306D01*
X73884105Y-69737331D01*
X73868716Y-69814699D01*
X73852095Y-69898261D01*
X73852094Y-69898263D01*
X73849500Y-69911304D01*
X73849500Y-71125000D01*
X73650000Y-71125000D01*
X73650000Y-69875000D01*
X73450000Y-69875000D01*
X72850000Y-70475000D01*
X72850000Y-71075000D01*
X72900000Y-71125000D01*
X72250000Y-71125000D01*
X72250000Y-81145119D01*
X72236904Y-81104814D01*
X72126106Y-80887361D01*
X72109960Y-80865138D01*
X72098054Y-80848750D01*
X72057380Y-80760520D01*
X72050500Y-80702393D01*
X72050500Y-78942651D01*
X72051448Y-78920947D01*
X72055468Y-78875000D01*
X72055468Y-78874996D01*
X72051448Y-78829051D01*
X72050500Y-78807348D01*
X72050500Y-73942651D01*
X72051448Y-73920947D01*
X72052869Y-73904712D01*
X72055468Y-73875000D01*
X72051447Y-73829050D01*
X72050500Y-73807348D01*
X72050500Y-71256989D01*
X72039060Y-71170093D01*
X72019693Y-71022986D01*
X71958606Y-70795007D01*
X71874522Y-70592012D01*
X71871018Y-70581687D01*
X71868284Y-70576951D01*
X71868284Y-70576950D01*
X71750273Y-70372549D01*
X71606592Y-70185300D01*
X69373430Y-67952138D01*
X69319454Y-67871356D01*
X69300500Y-67776068D01*
X69300500Y-64348931D01*
X69319454Y-64253643D01*
X69373430Y-64172861D01*
X81701185Y-51845107D01*
X100099500Y-51845107D01*
X100099500Y-52404892D01*
X100099501Y-52404908D01*
X100140138Y-52661487D01*
X100140140Y-52661493D01*
X100220419Y-52908567D01*
X100220423Y-52908577D01*
X100338365Y-53140050D01*
X100439285Y-53278954D01*
X100491069Y-53350229D01*
X100674771Y-53533931D01*
X100884949Y-53686634D01*
X101116428Y-53804579D01*
X101363507Y-53884860D01*
X101363510Y-53884860D01*
X101363512Y-53884861D01*
X101524132Y-53910300D01*
X101620103Y-53925500D01*
X101620107Y-53925500D01*
X101879893Y-53925500D01*
X101879897Y-53925500D01*
X102136493Y-53884860D01*
X102383572Y-53804579D01*
X102615051Y-53686634D01*
X102654630Y-53657878D01*
X102742856Y-53617204D01*
X102839936Y-53613388D01*
X102931086Y-53647013D01*
X102958952Y-53666844D01*
X103063547Y-53752683D01*
X103063548Y-53752683D01*
X103063550Y-53752685D01*
X103246046Y-53850232D01*
X103357841Y-53884144D01*
X103444065Y-53910300D01*
X103459265Y-53911796D01*
X103598392Y-53925500D01*
X103598395Y-53925500D01*
X104901605Y-53925500D01*
X104901608Y-53925500D01*
X105055934Y-53910300D01*
X105253954Y-53850232D01*
X105436450Y-53752685D01*
X105551971Y-53657880D01*
X105596403Y-53621416D01*
X105596404Y-53621414D01*
X105596410Y-53621410D01*
X105602994Y-53613388D01*
X105668202Y-53533931D01*
X105727685Y-53461450D01*
X105825232Y-53278954D01*
X105885300Y-53080934D01*
X105900500Y-52926608D01*
X105900500Y-51323392D01*
X105885300Y-51169066D01*
X105825232Y-50971046D01*
X105727685Y-50788550D01*
X105727683Y-50788547D01*
X105596416Y-50628596D01*
X105596403Y-50628583D01*
X105436452Y-50497316D01*
X105253955Y-50399768D01*
X105055934Y-50339699D01*
X104901608Y-50324500D01*
X103598392Y-50324500D01*
X103598391Y-50324500D01*
X103444065Y-50339699D01*
X103246044Y-50399768D01*
X103063547Y-50497316D01*
X102958950Y-50583156D01*
X102873267Y-50628954D01*
X102776580Y-50638476D01*
X102683608Y-50610272D01*
X102654631Y-50592122D01*
X102615048Y-50563364D01*
X102383577Y-50445423D01*
X102383567Y-50445419D01*
X102136493Y-50365140D01*
X102136487Y-50365138D01*
X101879908Y-50324501D01*
X101879899Y-50324500D01*
X101879897Y-50324500D01*
X101620103Y-50324500D01*
X101620100Y-50324500D01*
X101620091Y-50324501D01*
X101363512Y-50365138D01*
X101363506Y-50365140D01*
X101116432Y-50445419D01*
X101116422Y-50445423D01*
X100884949Y-50563365D01*
X100674774Y-50716066D01*
X100491066Y-50899774D01*
X100338365Y-51109949D01*
X100220423Y-51341422D01*
X100220419Y-51341432D01*
X100140140Y-51588506D01*
X100140138Y-51588512D01*
X100099501Y-51845091D01*
X100099500Y-51845107D01*
X81701185Y-51845107D01*
X84797862Y-48748430D01*
X84878644Y-48694454D01*
X84973932Y-48675500D01*
X85913297Y-48675500D01*
X86008585Y-48694454D01*
X86089367Y-48748430D01*
X86143343Y-48829212D01*
X86162297Y-48924500D01*
X86161235Y-48947474D01*
X86144785Y-49125000D01*
X86163602Y-49328079D01*
X86163603Y-49328087D01*
X86219417Y-49524247D01*
X86219418Y-49524251D01*
X86310323Y-49706815D01*
X86310325Y-49706818D01*
X86310327Y-49706821D01*
X86428636Y-49863488D01*
X86433239Y-49869583D01*
X86583957Y-50006980D01*
X86583959Y-50006981D01*
X86757363Y-50114348D01*
X86947544Y-50188024D01*
X87081197Y-50213008D01*
X87148022Y-50225500D01*
X87148024Y-50225500D01*
X87351977Y-50225500D01*
X87385389Y-50219254D01*
X87552456Y-50188024D01*
X87742637Y-50114348D01*
X87745140Y-50112797D01*
X87747594Y-50111879D01*
X87752946Y-50109215D01*
X87753223Y-50109773D01*
X87836133Y-50078749D01*
X87876225Y-50075500D01*
X90873775Y-50075500D01*
X90969063Y-50094454D01*
X91004857Y-50112796D01*
X91007363Y-50114348D01*
X91197544Y-50188024D01*
X91331197Y-50213008D01*
X91398022Y-50225500D01*
X91398024Y-50225500D01*
X91601977Y-50225500D01*
X91635389Y-50219254D01*
X91802456Y-50188024D01*
X91992637Y-50114348D01*
X92166041Y-50006981D01*
X92316764Y-49869579D01*
X92439673Y-49706821D01*
X92530582Y-49524250D01*
X92586397Y-49328083D01*
X92605215Y-49125000D01*
X92588765Y-48947473D01*
X92598846Y-48850844D01*
X92645139Y-48765427D01*
X92720596Y-48704227D01*
X92813729Y-48676562D01*
X92836703Y-48675500D01*
X92868011Y-48675500D01*
X93102014Y-48644693D01*
X93329993Y-48583606D01*
X93485743Y-48519092D01*
X93548050Y-48493284D01*
X93752450Y-48375273D01*
X93939699Y-48231592D01*
X94172861Y-47998430D01*
X94253643Y-47944454D01*
X94348931Y-47925500D01*
X96044954Y-47925500D01*
X96044968Y-47925499D01*
X96155079Y-47913091D01*
X96179255Y-47910368D01*
X96349522Y-47850789D01*
X96349527Y-47850785D01*
X96349529Y-47850785D01*
X96502257Y-47754819D01*
X96502256Y-47754819D01*
X96502262Y-47754816D01*
X96629816Y-47627262D01*
X96725789Y-47474522D01*
X96785368Y-47304255D01*
X96794680Y-47221608D01*
X96800499Y-47169968D01*
X96800500Y-47169953D01*
X96800500Y-46924500D01*
X96819454Y-46829212D01*
X96873430Y-46748430D01*
X96954212Y-46694454D01*
X97049500Y-46675500D01*
X110733175Y-46675500D01*
X110828463Y-46694454D01*
X110909245Y-46748430D01*
X118876570Y-54715755D01*
X118930546Y-54796537D01*
X118949500Y-54891825D01*
X118949500Y-59182348D01*
X118948552Y-59204051D01*
X118944532Y-59249996D01*
X118944532Y-59250002D01*
X118948552Y-59295947D01*
X118949500Y-59317651D01*
X118949500Y-59352353D01*
X118957046Y-59399996D01*
X118959163Y-59417243D01*
X118964364Y-59476686D01*
X118964366Y-59476699D01*
X118972796Y-59508161D01*
X118978212Y-59533639D01*
X118981521Y-59554527D01*
X118981522Y-59554531D01*
X118981523Y-59554534D01*
X119000613Y-59613290D01*
X119004303Y-59625746D01*
X119004310Y-59625770D01*
X119023261Y-59696496D01*
X119031298Y-59713732D01*
X119042437Y-59742009D01*
X119044779Y-59749216D01*
X119044780Y-59749220D01*
X119078956Y-59816294D01*
X119082765Y-59824104D01*
X119119428Y-59902728D01*
X119119430Y-59902731D01*
X119119431Y-59902733D01*
X119119432Y-59902734D01*
X119119433Y-59902736D01*
X119122546Y-59907181D01*
X119132319Y-59923445D01*
X119132603Y-59923272D01*
X119137715Y-59931615D01*
X119189916Y-60003463D01*
X119192397Y-60006940D01*
X119249953Y-60089139D01*
X119410861Y-60250047D01*
X119493047Y-60307594D01*
X119496546Y-60310090D01*
X119568379Y-60362280D01*
X119576730Y-60367397D01*
X119576555Y-60367682D01*
X119592807Y-60377445D01*
X119597266Y-60380568D01*
X119675901Y-60417236D01*
X119683657Y-60421018D01*
X119750781Y-60455220D01*
X119757986Y-60457561D01*
X119786265Y-60468700D01*
X119803504Y-60476739D01*
X119874230Y-60495689D01*
X119886725Y-60499391D01*
X119919362Y-60509995D01*
X119945466Y-60518477D01*
X119966351Y-60521785D01*
X119991830Y-60527200D01*
X120023308Y-60535635D01*
X120082773Y-60540836D01*
X120099999Y-60542952D01*
X120147648Y-60550500D01*
X120182349Y-60550500D01*
X120204050Y-60551447D01*
X120218712Y-60552730D01*
X120249997Y-60555468D01*
X120250000Y-60555468D01*
X120250003Y-60555468D01*
X120281287Y-60552730D01*
X120295949Y-60551447D01*
X120317651Y-60550500D01*
X120352346Y-60550500D01*
X120352352Y-60550500D01*
X120400018Y-60542949D01*
X120417228Y-60540836D01*
X120476692Y-60535635D01*
X120508162Y-60527202D01*
X120533649Y-60521784D01*
X120554534Y-60518477D01*
X120613303Y-60499380D01*
X120625761Y-60495691D01*
X120696496Y-60476739D01*
X120713733Y-60468700D01*
X120742017Y-60457559D01*
X120749219Y-60455220D01*
X120808970Y-60424775D01*
X120816300Y-60421040D01*
X120824074Y-60417247D01*
X120902734Y-60380568D01*
X120907171Y-60377460D01*
X120923445Y-60367684D01*
X120923269Y-60367397D01*
X120931598Y-60362292D01*
X120931610Y-60362287D01*
X121003548Y-60310020D01*
X121006935Y-60307604D01*
X121089139Y-60250047D01*
X121250047Y-60089139D01*
X121307604Y-60006935D01*
X121310020Y-60003548D01*
X121362287Y-59931610D01*
X121362292Y-59931598D01*
X121367397Y-59923269D01*
X121367684Y-59923445D01*
X121377460Y-59907171D01*
X121380568Y-59902734D01*
X121417247Y-59824074D01*
X121421040Y-59816300D01*
X121455216Y-59749227D01*
X121455216Y-59749226D01*
X121455220Y-59749219D01*
X121457559Y-59742017D01*
X121468701Y-59713732D01*
X121476739Y-59696496D01*
X121495691Y-59625761D01*
X121499380Y-59613303D01*
X121518477Y-59554534D01*
X121521784Y-59533649D01*
X121527204Y-59508154D01*
X121535633Y-59476698D01*
X121535635Y-59476692D01*
X121540836Y-59417228D01*
X121542949Y-59400018D01*
X121550500Y-59352352D01*
X121550500Y-59317651D01*
X121551448Y-59295947D01*
X121555468Y-59250002D01*
X121555468Y-59249996D01*
X121551448Y-59204051D01*
X121550500Y-59182348D01*
X121550500Y-54147650D01*
X121550499Y-54147638D01*
X121518477Y-53945468D01*
X121518477Y-53945466D01*
X121455220Y-53750781D01*
X121362287Y-53568390D01*
X121241966Y-53402781D01*
X121097219Y-53258034D01*
X112222219Y-44383034D01*
X112222215Y-44383031D01*
X112222214Y-44383030D01*
X112222212Y-44383028D01*
X112056617Y-44262717D01*
X112056615Y-44262716D01*
X112056611Y-44262713D01*
X111930369Y-44198390D01*
X111930368Y-44198389D01*
X111930367Y-44198389D01*
X111874219Y-44169780D01*
X111874218Y-44169779D01*
X111874217Y-44169779D01*
X111776876Y-44138151D01*
X111776876Y-44138150D01*
X111679534Y-44106522D01*
X111477361Y-44074500D01*
X111477352Y-44074500D01*
X97049500Y-44074500D01*
X96954212Y-44055546D01*
X96873430Y-44001570D01*
X96819454Y-43920788D01*
X96800500Y-43825500D01*
X96800500Y-43580046D01*
X96800499Y-43580031D01*
X96785369Y-43445754D01*
X96785368Y-43445745D01*
X96725789Y-43275478D01*
X96725786Y-43275473D01*
X96725785Y-43275470D01*
X96629819Y-43122742D01*
X96629817Y-43122740D01*
X96629816Y-43122738D01*
X96502262Y-42995184D01*
X96502259Y-42995182D01*
X96502257Y-42995180D01*
X96349529Y-42899214D01*
X96349524Y-42899212D01*
X96349522Y-42899211D01*
X96179255Y-42839632D01*
X96179251Y-42839631D01*
X96179245Y-42839630D01*
X96044968Y-42824500D01*
X96044954Y-42824500D01*
X92455046Y-42824500D01*
X92455031Y-42824500D01*
X92320754Y-42839630D01*
X92320746Y-42839631D01*
X92320745Y-42839632D01*
X92150478Y-42899211D01*
X92150476Y-42899211D01*
X92150476Y-42899212D01*
X92150470Y-42899214D01*
X91997742Y-42995180D01*
X91870180Y-43122742D01*
X91774213Y-43275473D01*
X91773342Y-43277283D01*
X91771733Y-43279420D01*
X91766771Y-43287318D01*
X91766104Y-43286899D01*
X91714921Y-43354911D01*
X91631241Y-43404274D01*
X91535040Y-43417855D01*
X91440964Y-43393589D01*
X91363336Y-43335168D01*
X91313973Y-43251488D01*
X91300000Y-43169247D01*
X91300000Y-42625001D01*
X91299999Y-42625000D01*
X90050000Y-42625000D01*
X90050000Y-42125000D01*
X91299999Y-42125000D01*
X91300000Y-42124999D01*
X91300000Y-41423907D01*
X91299999Y-41423900D01*
X91297102Y-41381178D01*
X91251170Y-41196479D01*
X91166607Y-41025974D01*
X91166606Y-41025972D01*
X91047370Y-40877637D01*
X91047362Y-40877629D01*
X90899027Y-40758393D01*
X90899025Y-40758392D01*
X90728520Y-40673829D01*
X90543821Y-40627897D01*
X90501099Y-40625000D01*
X89800001Y-40625000D01*
X89800000Y-40625001D01*
X89800000Y-40941988D01*
X89742993Y-40909075D01*
X89615826Y-40875000D01*
X89484174Y-40875000D01*
X89357007Y-40909075D01*
X89300000Y-40941988D01*
X89300000Y-40625001D01*
X89299999Y-40625000D01*
X88598900Y-40625000D01*
X88556178Y-40627897D01*
X88371479Y-40673829D01*
X88200974Y-40758392D01*
X88200972Y-40758393D01*
X88052637Y-40877629D01*
X88052629Y-40877637D01*
X87933393Y-41025972D01*
X87933392Y-41025974D01*
X87848829Y-41196479D01*
X87802897Y-41381178D01*
X87800000Y-41423900D01*
X87800000Y-42124999D01*
X87800001Y-42125000D01*
X89050000Y-42125000D01*
X89050000Y-42625000D01*
X87800001Y-42625000D01*
X87800000Y-42625001D01*
X87800000Y-43326099D01*
X87802897Y-43368821D01*
X87848829Y-43553520D01*
X87933392Y-43724025D01*
X87933393Y-43724027D01*
X88052629Y-43872362D01*
X88052637Y-43872370D01*
X88200972Y-43991606D01*
X88200974Y-43991607D01*
X88371479Y-44076170D01*
X88556178Y-44122102D01*
X88598900Y-44124999D01*
X88598907Y-44125000D01*
X89299999Y-44125000D01*
X89300000Y-44124999D01*
X89300000Y-43808012D01*
X89357007Y-43840925D01*
X89484174Y-43875000D01*
X89615826Y-43875000D01*
X89742993Y-43840925D01*
X89800000Y-43808012D01*
X89800000Y-44124999D01*
X89800001Y-44125000D01*
X90501093Y-44125000D01*
X90501099Y-44124999D01*
X90543821Y-44122102D01*
X90728520Y-44076170D01*
X90899025Y-43991607D01*
X90899027Y-43991606D01*
X91047362Y-43872370D01*
X91047370Y-43872362D01*
X91166606Y-43724027D01*
X91166607Y-43724025D01*
X91227428Y-43601392D01*
X91286746Y-43524448D01*
X91370994Y-43476060D01*
X91467346Y-43463597D01*
X91561134Y-43488954D01*
X91638078Y-43548272D01*
X91686466Y-43632520D01*
X91699500Y-43712026D01*
X91699500Y-44825500D01*
X91680546Y-44920788D01*
X91626570Y-45001570D01*
X91545788Y-45055546D01*
X91450500Y-45074500D01*
X84006989Y-45074500D01*
X83772992Y-45105306D01*
X83772990Y-45105306D01*
X83772986Y-45105307D01*
X83648545Y-45138651D01*
X83545002Y-45166395D01*
X83478687Y-45193863D01*
X83478688Y-45193864D01*
X83326955Y-45256713D01*
X83326944Y-45256718D01*
X83122558Y-45374721D01*
X83122548Y-45374727D01*
X82935300Y-45518408D01*
X82935296Y-45518411D01*
X66143411Y-62310297D01*
X66143408Y-62310301D01*
X65999727Y-62497549D01*
X65878980Y-62706687D01*
X65875469Y-62717032D01*
X65791394Y-62920007D01*
X65730307Y-63147986D01*
X65730306Y-63147990D01*
X65730306Y-63147992D01*
X65699500Y-63381989D01*
X65699500Y-66325500D01*
X65680546Y-66420788D01*
X65626570Y-66501570D01*
X65545788Y-66555546D01*
X65450500Y-66574500D01*
X65131207Y-66574500D01*
X65063063Y-66564994D01*
X65052453Y-66561975D01*
X64851979Y-66524500D01*
X64851976Y-66524500D01*
X64648024Y-66524500D01*
X64648021Y-66524500D01*
X64447548Y-66561975D01*
X64447546Y-66561975D01*
X64447544Y-66561976D01*
X64257363Y-66635652D01*
X64257361Y-66635653D01*
X64257359Y-66635654D01*
X64083957Y-66743019D01*
X63933239Y-66880416D01*
X63810323Y-67043184D01*
X63719418Y-67225748D01*
X63719417Y-67225752D01*
X63663603Y-67421912D01*
X63663602Y-67421920D01*
X63644785Y-67625000D01*
X59250500Y-67625000D01*
X59250500Y-53253236D01*
X59269454Y-53157948D01*
X59323430Y-53077166D01*
X59404212Y-53023190D01*
X59499500Y-53004236D01*
X59594788Y-53023190D01*
X59675570Y-53077166D01*
X59729546Y-53157948D01*
X59745627Y-53215527D01*
X59772512Y-53391018D01*
X59772513Y-53391023D01*
X59772513Y-53391024D01*
X59869133Y-53764192D01*
X59936271Y-53945468D01*
X60003013Y-54125675D01*
X60075256Y-54272953D01*
X60172770Y-54471751D01*
X60172772Y-54471755D01*
X60172775Y-54471760D01*
X60376680Y-54798895D01*
X60612634Y-55103722D01*
X60878216Y-55383115D01*
X60878223Y-55383121D01*
X61170695Y-55634199D01*
X61170711Y-55634212D01*
X61487077Y-55854409D01*
X61487080Y-55854410D01*
X61487089Y-55854417D01*
X61793069Y-56024250D01*
X61824133Y-56041492D01*
X62178366Y-56193506D01*
X62327833Y-56240401D01*
X62546171Y-56308905D01*
X62923759Y-56386502D01*
X63307260Y-56425500D01*
X63307267Y-56425500D01*
X63692733Y-56425500D01*
X63692740Y-56425500D01*
X64076241Y-56386502D01*
X64453829Y-56308905D01*
X64821630Y-56193507D01*
X64821630Y-56193506D01*
X64821633Y-56193506D01*
X64998749Y-56117499D01*
X65175869Y-56041491D01*
X65512911Y-55854417D01*
X65829298Y-55634205D01*
X66121784Y-55383115D01*
X66387366Y-55103722D01*
X66623320Y-54798895D01*
X66827225Y-54471760D01*
X66996987Y-54125675D01*
X67130866Y-53764192D01*
X67227488Y-53391018D01*
X67285860Y-53009984D01*
X67286152Y-53004236D01*
X67305384Y-52625008D01*
X67305384Y-52624991D01*
X67285861Y-52240028D01*
X67285860Y-52240023D01*
X67285860Y-52240016D01*
X67227488Y-51858982D01*
X67130866Y-51485808D01*
X67130865Y-51485806D01*
X67031121Y-51216490D01*
X66996987Y-51124325D01*
X66827225Y-50778240D01*
X66623320Y-50451105D01*
X66387366Y-50146278D01*
X66121784Y-49866885D01*
X65829298Y-49615795D01*
X65829296Y-49615794D01*
X65829288Y-49615787D01*
X65512922Y-49395590D01*
X65512915Y-49395586D01*
X65512911Y-49395583D01*
X65391292Y-49328079D01*
X65175866Y-49208507D01*
X64821633Y-49056493D01*
X64453830Y-48941095D01*
X64076241Y-48863498D01*
X64076229Y-48863496D01*
X63692758Y-48824501D01*
X63692744Y-48824500D01*
X63692740Y-48824500D01*
X63307260Y-48824500D01*
X63307255Y-48824500D01*
X63307241Y-48824501D01*
X62923770Y-48863496D01*
X62923758Y-48863498D01*
X62546169Y-48941095D01*
X62178371Y-49056492D01*
X62150712Y-49068362D01*
X62055672Y-49088521D01*
X61960151Y-49070775D01*
X61878692Y-49017826D01*
X61823697Y-48937735D01*
X61803538Y-48842695D01*
X61821284Y-48747174D01*
X61874233Y-48665715D01*
X61876448Y-48663471D01*
X61895226Y-48644693D01*
X64724889Y-45815031D01*
X74099500Y-45815031D01*
X74099500Y-47604968D01*
X74114630Y-47739245D01*
X74114631Y-47739251D01*
X74114632Y-47739255D01*
X74174211Y-47909522D01*
X74174212Y-47909523D01*
X74174214Y-47909529D01*
X74270180Y-48062257D01*
X74270182Y-48062259D01*
X74270184Y-48062262D01*
X74397738Y-48189816D01*
X74397740Y-48189817D01*
X74397742Y-48189819D01*
X74550470Y-48285785D01*
X74550473Y-48285786D01*
X74550478Y-48285789D01*
X74720745Y-48345368D01*
X74720754Y-48345369D01*
X74855031Y-48360499D01*
X74855046Y-48360500D01*
X76644954Y-48360500D01*
X76644968Y-48360499D01*
X76755079Y-48348091D01*
X76779255Y-48345368D01*
X76949522Y-48285789D01*
X76949527Y-48285785D01*
X76949529Y-48285785D01*
X77102259Y-48189818D01*
X77102259Y-48189817D01*
X77102262Y-48189816D01*
X77116856Y-48175221D01*
X77197633Y-48121246D01*
X77292921Y-48102290D01*
X77388209Y-48121242D01*
X77423024Y-48138981D01*
X77470538Y-48168097D01*
X77482167Y-48175224D01*
X77498372Y-48185154D01*
X77738390Y-48284573D01*
X77991006Y-48345221D01*
X78055754Y-48350316D01*
X78249994Y-48365604D01*
X78250000Y-48365604D01*
X78250006Y-48365604D01*
X78422662Y-48352015D01*
X78508994Y-48345221D01*
X78761610Y-48284573D01*
X79001628Y-48185154D01*
X79223140Y-48049412D01*
X79420689Y-47880689D01*
X79589412Y-47683140D01*
X79725154Y-47461628D01*
X79824573Y-47221610D01*
X79885221Y-46968994D01*
X79901817Y-46758121D01*
X79905604Y-46710005D01*
X79905604Y-46709994D01*
X79887402Y-46478722D01*
X79885221Y-46451006D01*
X79824573Y-46198390D01*
X79725154Y-45958372D01*
X79652677Y-45840100D01*
X79619051Y-45748952D01*
X79622865Y-45651872D01*
X79652678Y-45579898D01*
X79725154Y-45461628D01*
X79824573Y-45221610D01*
X79885221Y-44968994D01*
X79901195Y-44766023D01*
X79905604Y-44710005D01*
X79905604Y-44709994D01*
X79886995Y-44473546D01*
X79885221Y-44451006D01*
X79824573Y-44198390D01*
X79725154Y-43958372D01*
X79589412Y-43736860D01*
X79420689Y-43539311D01*
X79223140Y-43370588D01*
X79001628Y-43234846D01*
X78881619Y-43185136D01*
X78761611Y-43135427D01*
X78761608Y-43135426D01*
X78508991Y-43074778D01*
X78250006Y-43054396D01*
X78249994Y-43054396D01*
X77991008Y-43074778D01*
X77738391Y-43135426D01*
X77738388Y-43135427D01*
X77498372Y-43234846D01*
X77276861Y-43370587D01*
X77079314Y-43539308D01*
X77079308Y-43539314D01*
X76910587Y-43736861D01*
X76774843Y-43958377D01*
X76694970Y-44151205D01*
X76640994Y-44231987D01*
X76560212Y-44285963D01*
X76519490Y-44294062D01*
X76200302Y-44613249D01*
X76178651Y-44532447D01*
X76118091Y-44427554D01*
X76032446Y-44341909D01*
X75927553Y-44281349D01*
X75846748Y-44259697D01*
X76149165Y-43957280D01*
X76014112Y-43897149D01*
X76014106Y-43897147D01*
X75839339Y-43860000D01*
X75660661Y-43860000D01*
X75485892Y-43897147D01*
X75350833Y-43957279D01*
X75653251Y-44259697D01*
X75572447Y-44281349D01*
X75467554Y-44341909D01*
X75381909Y-44427554D01*
X75321349Y-44532447D01*
X75299697Y-44613249D01*
X74998347Y-44311900D01*
X74998346Y-44311900D01*
X74969208Y-44362370D01*
X74913995Y-44532300D01*
X74895318Y-44710000D01*
X74895318Y-44710001D01*
X74905569Y-44807537D01*
X74896679Y-44904285D01*
X74851442Y-44990266D01*
X74776745Y-45052390D01*
X74733491Y-45068720D01*
X74733944Y-45070014D01*
X74720747Y-45074631D01*
X74720745Y-45074632D01*
X74550478Y-45134211D01*
X74550476Y-45134211D01*
X74550476Y-45134212D01*
X74550470Y-45134214D01*
X74397742Y-45230180D01*
X74270180Y-45357742D01*
X74174214Y-45510470D01*
X74174212Y-45510476D01*
X74114632Y-45680746D01*
X74114630Y-45680754D01*
X74099500Y-45815031D01*
X64724889Y-45815031D01*
X67527140Y-43012781D01*
X67554419Y-42971953D01*
X67636632Y-42848914D01*
X67659391Y-42793967D01*
X67674340Y-42757878D01*
X67674342Y-42757873D01*
X67712048Y-42666844D01*
X67712052Y-42666835D01*
X67750500Y-42473540D01*
X67750500Y-42276460D01*
X67750500Y-42000000D01*
X69225093Y-42000000D01*
X69244694Y-42261558D01*
X69303058Y-42517267D01*
X69398883Y-42761425D01*
X69398885Y-42761430D01*
X69530028Y-42988574D01*
X69577873Y-43048570D01*
X69997173Y-42629270D01*
X70091388Y-42758946D01*
X70221054Y-42888612D01*
X70350726Y-42982825D01*
X69930831Y-43402721D01*
X70102545Y-43519792D01*
X70102551Y-43519795D01*
X70338858Y-43633596D01*
X70589489Y-43710906D01*
X70848854Y-43750000D01*
X71111146Y-43750000D01*
X71370510Y-43710906D01*
X71621141Y-43633596D01*
X71621146Y-43633594D01*
X71857452Y-43519794D01*
X71857457Y-43519792D01*
X72029167Y-43402721D01*
X71609271Y-42982825D01*
X71738946Y-42888612D01*
X71868612Y-42758946D01*
X71962825Y-42629272D01*
X72382125Y-43048572D01*
X72429966Y-42988581D01*
X72429972Y-42988572D01*
X72561112Y-42761434D01*
X72561116Y-42761425D01*
X72656941Y-42517267D01*
X72715305Y-42261558D01*
X72734906Y-42000000D01*
X81265093Y-42000000D01*
X81284694Y-42261558D01*
X81343058Y-42517267D01*
X81438883Y-42761425D01*
X81438885Y-42761430D01*
X81570028Y-42988574D01*
X81617873Y-43048570D01*
X82037173Y-42629270D01*
X82131388Y-42758946D01*
X82261054Y-42888612D01*
X82390726Y-42982825D01*
X81970831Y-43402721D01*
X82142545Y-43519792D01*
X82142551Y-43519795D01*
X82378858Y-43633596D01*
X82629489Y-43710906D01*
X82888854Y-43750000D01*
X83151146Y-43750000D01*
X83410510Y-43710906D01*
X83661141Y-43633596D01*
X83661146Y-43633594D01*
X83897452Y-43519794D01*
X83897457Y-43519792D01*
X84069167Y-43402721D01*
X83649271Y-42982825D01*
X83778946Y-42888612D01*
X83908612Y-42758946D01*
X84002825Y-42629272D01*
X84422125Y-43048572D01*
X84469966Y-42988581D01*
X84469972Y-42988572D01*
X84601112Y-42761434D01*
X84601116Y-42761425D01*
X84696941Y-42517267D01*
X84755305Y-42261558D01*
X84774906Y-42000000D01*
X84755305Y-41738441D01*
X84696941Y-41482732D01*
X84601116Y-41238574D01*
X84601114Y-41238569D01*
X84469971Y-41011425D01*
X84422125Y-40951427D01*
X84002825Y-41370727D01*
X83908612Y-41241054D01*
X83778946Y-41111388D01*
X83649271Y-41017173D01*
X84069167Y-40597277D01*
X83897455Y-40480207D01*
X83897444Y-40480201D01*
X83661146Y-40366405D01*
X83661141Y-40366403D01*
X83410510Y-40289093D01*
X83151146Y-40250000D01*
X82888854Y-40250000D01*
X82629489Y-40289093D01*
X82378858Y-40366403D01*
X82142539Y-40480209D01*
X81970830Y-40597277D01*
X82390727Y-41017174D01*
X82261054Y-41111388D01*
X82131388Y-41241054D01*
X82037174Y-41370727D01*
X81617873Y-40951426D01*
X81570030Y-41011422D01*
X81438885Y-41238569D01*
X81438883Y-41238574D01*
X81343058Y-41482732D01*
X81284694Y-41738441D01*
X81265093Y-42000000D01*
X72734906Y-42000000D01*
X72715305Y-41738441D01*
X72656941Y-41482732D01*
X72561116Y-41238574D01*
X72561114Y-41238569D01*
X72429971Y-41011425D01*
X72382125Y-40951427D01*
X71962825Y-41370727D01*
X71868612Y-41241054D01*
X71738946Y-41111388D01*
X71609271Y-41017173D01*
X72029167Y-40597277D01*
X71857455Y-40480207D01*
X71857444Y-40480201D01*
X71621146Y-40366405D01*
X71621141Y-40366403D01*
X71370510Y-40289093D01*
X71111146Y-40250000D01*
X70848854Y-40250000D01*
X70589489Y-40289093D01*
X70338858Y-40366403D01*
X70102539Y-40480209D01*
X69930830Y-40597277D01*
X70350727Y-41017174D01*
X70221054Y-41111388D01*
X70091388Y-41241054D01*
X69997174Y-41370727D01*
X69577873Y-40951426D01*
X69530030Y-41011422D01*
X69398885Y-41238569D01*
X69398883Y-41238574D01*
X69303058Y-41482732D01*
X69244694Y-41738441D01*
X69225093Y-42000000D01*
X67750500Y-42000000D01*
X67750500Y-41276459D01*
X67750500Y-38575018D01*
X92500000Y-38575018D01*
X92500000Y-39124999D01*
X92500001Y-39125000D01*
X92816988Y-39125000D01*
X92784075Y-39182007D01*
X92750000Y-39309174D01*
X92750000Y-39440826D01*
X92784075Y-39567993D01*
X92816988Y-39625000D01*
X92500002Y-39625000D01*
X92500001Y-39625001D01*
X92500001Y-40174984D01*
X92510494Y-40277699D01*
X92510495Y-40277702D01*
X92565640Y-40444119D01*
X92565641Y-40444121D01*
X92657681Y-40593341D01*
X92657684Y-40593345D01*
X92781654Y-40717315D01*
X92781658Y-40717318D01*
X92930878Y-40809358D01*
X92930879Y-40809359D01*
X93097298Y-40864504D01*
X93097305Y-40864505D01*
X93200023Y-40874999D01*
X93999998Y-40874999D01*
X94000000Y-40874998D01*
X94000000Y-39875000D01*
X94500000Y-39875000D01*
X94500000Y-40874998D01*
X94500001Y-40874999D01*
X95299968Y-40874999D01*
X95299984Y-40874998D01*
X95402699Y-40864505D01*
X95402702Y-40864504D01*
X95569119Y-40809359D01*
X95569121Y-40809358D01*
X95718341Y-40717318D01*
X95718345Y-40717315D01*
X95842315Y-40593345D01*
X95842318Y-40593341D01*
X95934358Y-40444121D01*
X95934359Y-40444120D01*
X95989504Y-40277701D01*
X95989505Y-40277694D01*
X95999999Y-40174981D01*
X96000000Y-40174971D01*
X96000000Y-39625001D01*
X95999999Y-39625000D01*
X95683012Y-39625000D01*
X95715925Y-39567993D01*
X95750000Y-39440826D01*
X95750000Y-39309174D01*
X95715925Y-39182007D01*
X95683012Y-39125000D01*
X95999998Y-39125000D01*
X95999999Y-39124999D01*
X95999999Y-38575032D01*
X95999998Y-38575015D01*
X95989505Y-38472300D01*
X95989504Y-38472297D01*
X95934359Y-38305880D01*
X95934358Y-38305878D01*
X95842318Y-38156658D01*
X95842315Y-38156654D01*
X95718345Y-38032684D01*
X95718341Y-38032681D01*
X95569121Y-37940641D01*
X95569120Y-37940640D01*
X95402701Y-37885495D01*
X95402694Y-37885494D01*
X95299981Y-37875000D01*
X94500001Y-37875000D01*
X94500000Y-37875001D01*
X94500000Y-38875000D01*
X94000000Y-38875000D01*
X94000000Y-37875001D01*
X93999999Y-37875000D01*
X93200023Y-37875000D01*
X93097300Y-37885494D01*
X93097297Y-37885495D01*
X92930880Y-37940640D01*
X92930878Y-37940641D01*
X92781658Y-38032681D01*
X92781654Y-38032684D01*
X92657684Y-38156654D01*
X92657681Y-38156658D01*
X92565641Y-38305878D01*
X92565640Y-38305879D01*
X92510495Y-38472298D01*
X92510494Y-38472305D01*
X92500000Y-38575018D01*
X67750500Y-38575018D01*
X67750500Y-37892560D01*
X67769454Y-37797272D01*
X67823430Y-37716490D01*
X70091491Y-35448430D01*
X70172273Y-35394454D01*
X70267561Y-35375500D01*
X114732440Y-35375500D01*
X114827728Y-35394454D01*
G37*
%TD.AperFunction*%
%TD*%
M02*
