%TF.GenerationSoftware,KiCad,Pcbnew,8.0.4*%
%TF.CreationDate,2025-07-27T19:27:02+02:00*%
%TF.ProjectId,GastroFocap,47617374-726f-4466-9f63-61702e6b6963,rev?*%
%TF.SameCoordinates,Original*%
%TF.FileFunction,Copper,L1,Top*%
%TF.FilePolarity,Positive*%
%FSLAX46Y46*%
G04 Gerber Fmt 4.6, Leading zero omitted, Abs format (unit mm)*
G04 Created by KiCad (PCBNEW 8.0.4) date 2025-07-27 19:27:02*
%MOMM*%
%LPD*%
G01*
G04 APERTURE LIST*
G04 Aperture macros list*
%AMRoundRect*
0 Rectangle with rounded corners*
0 $1 Rounding radius*
0 $2 $3 $4 $5 $6 $7 $8 $9 X,Y pos of 4 corners*
0 Add a 4 corners polygon primitive as box body*
4,1,4,$2,$3,$4,$5,$6,$7,$8,$9,$2,$3,0*
0 Add four circle primitives for the rounded corners*
1,1,$1+$1,$2,$3*
1,1,$1+$1,$4,$5*
1,1,$1+$1,$6,$7*
1,1,$1+$1,$8,$9*
0 Add four rect primitives between the rounded corners*
20,1,$1+$1,$2,$3,$4,$5,0*
20,1,$1+$1,$4,$5,$6,$7,0*
20,1,$1+$1,$6,$7,$8,$9,0*
20,1,$1+$1,$8,$9,$2,$3,0*%
G04 Aperture macros list end*
%TA.AperFunction,Conductor*%
%ADD10C,0.000000*%
%TD*%
%TA.AperFunction,Conductor*%
%ADD11C,0.200000*%
%TD*%
%TA.AperFunction,NonConductor*%
%ADD12C,1.600000*%
%TD*%
%TA.AperFunction,Conductor*%
%ADD13C,1.600000*%
%TD*%
%TA.AperFunction,SMDPad,CuDef*%
%ADD14RoundRect,0.225000X-0.250000X0.225000X-0.250000X-0.225000X0.250000X-0.225000X0.250000X0.225000X0*%
%TD*%
%TA.AperFunction,SMDPad,CuDef*%
%ADD15RoundRect,0.250000X0.250000X0.475000X-0.250000X0.475000X-0.250000X-0.475000X0.250000X-0.475000X0*%
%TD*%
%TA.AperFunction,SMDPad,CuDef*%
%ADD16RoundRect,0.250000X-0.250000X-0.475000X0.250000X-0.475000X0.250000X0.475000X-0.250000X0.475000X0*%
%TD*%
%TA.AperFunction,ComponentPad*%
%ADD17C,0.600000*%
%TD*%
%TA.AperFunction,SMDPad,CuDef*%
%ADD18R,2.950000X4.500000*%
%TD*%
%TA.AperFunction,SMDPad,CuDef*%
%ADD19R,2.600000X3.100000*%
%TD*%
%TA.AperFunction,SMDPad,CuDef*%
%ADD20R,1.550000X0.600000*%
%TD*%
%TA.AperFunction,SMDPad,CuDef*%
%ADD21RoundRect,0.200000X0.200000X0.275000X-0.200000X0.275000X-0.200000X-0.275000X0.200000X-0.275000X0*%
%TD*%
%TA.AperFunction,SMDPad,CuDef*%
%ADD22RoundRect,0.200000X-0.200000X-0.275000X0.200000X-0.275000X0.200000X0.275000X-0.200000X0.275000X0*%
%TD*%
%TA.AperFunction,SMDPad,CuDef*%
%ADD23R,1.500000X2.400000*%
%TD*%
%TA.AperFunction,SMDPad,CuDef*%
%ADD24RoundRect,0.250000X-0.650000X1.000000X-0.650000X-1.000000X0.650000X-1.000000X0.650000X1.000000X0*%
%TD*%
%TA.AperFunction,ComponentPad*%
%ADD25C,1.600000*%
%TD*%
%TA.AperFunction,ComponentPad*%
%ADD26R,1.600000X1.600000*%
%TD*%
%TA.AperFunction,SMDPad,CuDef*%
%ADD27RoundRect,0.225000X0.225000X0.250000X-0.225000X0.250000X-0.225000X-0.250000X0.225000X-0.250000X0*%
%TD*%
%TA.AperFunction,SMDPad,CuDef*%
%ADD28RoundRect,0.250000X0.450000X-0.262500X0.450000X0.262500X-0.450000X0.262500X-0.450000X-0.262500X0*%
%TD*%
%TA.AperFunction,SMDPad,CuDef*%
%ADD29RoundRect,0.225000X0.225000X0.375000X-0.225000X0.375000X-0.225000X-0.375000X0.225000X-0.375000X0*%
%TD*%
%TA.AperFunction,ComponentPad*%
%ADD30C,3.500000*%
%TD*%
%TA.AperFunction,ComponentPad*%
%ADD31C,1.700000*%
%TD*%
%TA.AperFunction,ComponentPad*%
%ADD32R,1.700000X1.700000*%
%TD*%
%TA.AperFunction,SMDPad,CuDef*%
%ADD33RoundRect,0.300000X0.500000X0.300000X-0.500000X0.300000X-0.500000X-0.300000X0.500000X-0.300000X0*%
%TD*%
%TA.AperFunction,SMDPad,CuDef*%
%ADD34RoundRect,0.225000X-0.225000X-0.250000X0.225000X-0.250000X0.225000X0.250000X-0.225000X0.250000X0*%
%TD*%
%TA.AperFunction,SMDPad,CuDef*%
%ADD35RoundRect,0.225000X0.250000X-0.225000X0.250000X0.225000X-0.250000X0.225000X-0.250000X-0.225000X0*%
%TD*%
%TA.AperFunction,SMDPad,CuDef*%
%ADD36RoundRect,0.250001X-2.049999X-0.799999X2.049999X-0.799999X2.049999X0.799999X-2.049999X0.799999X0*%
%TD*%
%TA.AperFunction,SMDPad,CuDef*%
%ADD37RoundRect,0.200000X-0.275000X0.200000X-0.275000X-0.200000X0.275000X-0.200000X0.275000X0.200000X0*%
%TD*%
%TA.AperFunction,SMDPad,CuDef*%
%ADD38RoundRect,0.200000X0.275000X-0.200000X0.275000X0.200000X-0.275000X0.200000X-0.275000X-0.200000X0*%
%TD*%
%TA.AperFunction,SMDPad,CuDef*%
%ADD39R,0.900000X0.900000*%
%TD*%
%TA.AperFunction,SMDPad,CuDef*%
%ADD40R,1.500000X0.900000*%
%TD*%
%TA.AperFunction,SMDPad,CuDef*%
%ADD41R,0.900000X1.500000*%
%TD*%
%TA.AperFunction,ComponentPad*%
%ADD42O,1.700000X1.950000*%
%TD*%
%TA.AperFunction,ComponentPad*%
%ADD43RoundRect,0.250000X-0.600000X-0.725000X0.600000X-0.725000X0.600000X0.725000X-0.600000X0.725000X0*%
%TD*%
%TA.AperFunction,SMDPad,CuDef*%
%ADD44RoundRect,0.150000X0.825000X0.150000X-0.825000X0.150000X-0.825000X-0.150000X0.825000X-0.150000X0*%
%TD*%
%TA.AperFunction,ComponentPad*%
%ADD45RoundRect,0.875000X-0.875000X0.875000X-0.875000X-0.875000X0.875000X-0.875000X0.875000X0.875000X0*%
%TD*%
%TA.AperFunction,ComponentPad*%
%ADD46RoundRect,0.750000X-1.000000X0.750000X-1.000000X-0.750000X1.000000X-0.750000X1.000000X0.750000X0*%
%TD*%
%TA.AperFunction,ComponentPad*%
%ADD47R,3.500000X3.500000*%
%TD*%
%TA.AperFunction,SMDPad,CuDef*%
%ADD48RoundRect,0.250000X0.650000X-1.000000X0.650000X1.000000X-0.650000X1.000000X-0.650000X-1.000000X0*%
%TD*%
%TA.AperFunction,SMDPad,CuDef*%
%ADD49RoundRect,0.375000X0.625000X0.375000X-0.625000X0.375000X-0.625000X-0.375000X0.625000X-0.375000X0*%
%TD*%
%TA.AperFunction,SMDPad,CuDef*%
%ADD50RoundRect,0.500000X0.500000X1.400000X-0.500000X1.400000X-0.500000X-1.400000X0.500000X-1.400000X0*%
%TD*%
%TA.AperFunction,SMDPad,CuDef*%
%ADD51RoundRect,0.150000X-0.150000X-0.200000X0.150000X-0.200000X0.150000X0.200000X-0.150000X0.200000X0*%
%TD*%
%TA.AperFunction,SMDPad,CuDef*%
%ADD52R,3.700000X3.700000*%
%TD*%
%TA.AperFunction,SMDPad,CuDef*%
%ADD53RoundRect,0.033750X0.371250X-0.101250X0.371250X0.101250X-0.371250X0.101250X-0.371250X-0.101250X0*%
%TD*%
%TA.AperFunction,SMDPad,CuDef*%
%ADD54RoundRect,0.033750X0.101250X-0.371250X0.101250X0.371250X-0.101250X0.371250X-0.101250X-0.371250X0*%
%TD*%
%TA.AperFunction,SMDPad,CuDef*%
%ADD55RoundRect,0.150000X0.150000X-0.587500X0.150000X0.587500X-0.150000X0.587500X-0.150000X-0.587500X0*%
%TD*%
%TA.AperFunction,ComponentPad*%
%ADD56O,1.950000X1.700000*%
%TD*%
%TA.AperFunction,ComponentPad*%
%ADD57RoundRect,0.250000X-0.725000X0.600000X-0.725000X-0.600000X0.725000X-0.600000X0.725000X0.600000X0*%
%TD*%
%TA.AperFunction,ComponentPad*%
%ADD58O,1.700000X2.000000*%
%TD*%
%TA.AperFunction,ComponentPad*%
%ADD59RoundRect,0.250000X0.600000X0.750000X-0.600000X0.750000X-0.600000X-0.750000X0.600000X-0.750000X0*%
%TD*%
%TA.AperFunction,ComponentPad*%
%ADD60O,1.700000X1.700000*%
%TD*%
%TA.AperFunction,SMDPad,CuDef*%
%ADD61RoundRect,0.250000X-0.625000X0.312500X-0.625000X-0.312500X0.625000X-0.312500X0.625000X0.312500X0*%
%TD*%
%TA.AperFunction,SMDPad,CuDef*%
%ADD62RoundRect,0.150000X-0.200000X0.150000X-0.200000X-0.150000X0.200000X-0.150000X0.200000X0.150000X0*%
%TD*%
%TA.AperFunction,SMDPad,CuDef*%
%ADD63RoundRect,0.300000X-0.500000X-0.300000X0.500000X-0.300000X0.500000X0.300000X-0.500000X0.300000X0*%
%TD*%
%TA.AperFunction,ViaPad*%
%ADD64C,1.000000*%
%TD*%
%TA.AperFunction,ViaPad*%
%ADD65C,0.800000*%
%TD*%
%TA.AperFunction,ViaPad*%
%ADD66C,0.600000*%
%TD*%
%TA.AperFunction,ViaPad*%
%ADD67C,2.000000*%
%TD*%
%TA.AperFunction,Conductor*%
%ADD68C,0.300000*%
%TD*%
%TA.AperFunction,Conductor*%
%ADD69C,0.500000*%
%TD*%
%TA.AperFunction,Conductor*%
%ADD70C,1.000000*%
%TD*%
%TA.AperFunction,Conductor*%
%ADD71C,0.250000*%
%TD*%
%TA.AperFunction,Conductor*%
%ADD72C,1.500000*%
%TD*%
%TA.AperFunction,Conductor*%
%ADD73C,0.750000*%
%TD*%
%TA.AperFunction,Conductor*%
%ADD74C,0.600000*%
%TD*%
%TA.AperFunction,Conductor*%
%ADD75C,2.000000*%
%TD*%
G04 APERTURE END LIST*
D10*
%TA.AperFunction,Conductor*%
%TO.N,Net-(D4-K)*%
G36*
X118250000Y-55500000D02*
G01*
X116250000Y-55500000D01*
X116250000Y-53000000D01*
X118250000Y-53000000D01*
X118250000Y-55500000D01*
G37*
%TD.AperFunction*%
%TA.AperFunction,Conductor*%
%TO.N,6\u002C5V*%
G36*
X124250000Y-55500000D02*
G01*
X122250000Y-55500000D01*
X122250000Y-53000000D01*
X124250000Y-53000000D01*
X124250000Y-55500000D01*
G37*
%TD.AperFunction*%
D11*
%TO.N,Net-(D4-K)*%
X119000000Y-55250000D02*
X119000000Y-59500000D01*
X117750000Y-59500000D01*
X117750000Y-58250000D01*
X117250000Y-57750000D01*
X114000000Y-57750000D01*
X113750000Y-57500000D01*
X113750000Y-56250000D01*
X116250000Y-53750000D01*
X117500000Y-53750000D01*
X119000000Y-55250000D01*
%TA.AperFunction,Conductor*%
G36*
X119000000Y-55250000D02*
G01*
X119000000Y-59500000D01*
X117750000Y-59500000D01*
X117750000Y-58250000D01*
X117250000Y-57750000D01*
X114000000Y-57750000D01*
X113750000Y-57500000D01*
X113750000Y-56250000D01*
X116250000Y-53750000D01*
X117500000Y-53750000D01*
X119000000Y-55250000D01*
G37*
%TD.AperFunction*%
%TO.N,Earth*%
X77500000Y-42750000D02*
X76000000Y-44250000D01*
X76000000Y-45000000D01*
X74250000Y-45000000D01*
X71750000Y-42500000D01*
X77250000Y-42500000D01*
X77500000Y-42750000D01*
%TA.AperFunction,Conductor*%
G36*
X77500000Y-42750000D02*
G01*
X76000000Y-44250000D01*
X76000000Y-45000000D01*
X74250000Y-45000000D01*
X71750000Y-42500000D01*
X77250000Y-42500000D01*
X77500000Y-42750000D01*
G37*
%TD.AperFunction*%
D10*
%TA.AperFunction,Conductor*%
G36*
X114750000Y-50625000D02*
G01*
X114750000Y-53875000D01*
X114500000Y-54125000D01*
X112750000Y-54125000D01*
X112500000Y-53875000D01*
X112500000Y-52375000D01*
X111750000Y-51625000D01*
X111750000Y-50625000D01*
X112000000Y-50375000D01*
X114500000Y-50375000D01*
X114750000Y-50625000D01*
G37*
%TD.AperFunction*%
D12*
X120450000Y-44000000D02*
G75*
G02*
X116050000Y-44000000I-2200000J0D01*
G01*
X116050000Y-44000000D02*
G75*
G02*
X120450000Y-44000000I2200000J0D01*
G01*
D13*
%TO.N,SERVO*%
X109950000Y-68625000D02*
G75*
G02*
X105550000Y-68625000I-2200000J0D01*
G01*
X105550000Y-68625000D02*
G75*
G02*
X109950000Y-68625000I2200000J0D01*
G01*
D12*
X65700000Y-52625000D02*
G75*
G02*
X61300000Y-52625000I-2200000J0D01*
G01*
X61300000Y-52625000D02*
G75*
G02*
X65700000Y-52625000I2200000J0D01*
G01*
%TD*%
D14*
%TO.P,C11,1*%
%TO.N,Earth*%
X79250000Y-69225000D03*
%TO.P,C11,2*%
%TO.N,VCC*%
X79250000Y-70775000D03*
%TD*%
D15*
%TO.P,C19,1*%
%TO.N,Net-(U5-CPI)*%
X77950000Y-81500000D03*
%TO.P,C19,2*%
%TO.N,Net-(U5-CPO)*%
X76050000Y-81500000D03*
%TD*%
%TO.P,C9,1*%
%TO.N,6\u002C5V*%
X123200000Y-65750000D03*
%TO.P,C9,2*%
%TO.N,Earth*%
X121300000Y-65750000D03*
%TD*%
D16*
%TO.P,C8,1*%
%TO.N,6\u002C5V*%
X117050000Y-65750000D03*
%TO.P,C8,2*%
%TO.N,Earth*%
X118950000Y-65750000D03*
%TD*%
D17*
%TO.P,U4,9,GNDPAD*%
%TO.N,Earth*%
X116100000Y-63050000D03*
X116100000Y-61950000D03*
X116100000Y-60650000D03*
X116100000Y-59450000D03*
D18*
X115500000Y-61250000D03*
D19*
X115500000Y-61250000D03*
D17*
X114900000Y-63050000D03*
X114900000Y-61950000D03*
X114900000Y-60650000D03*
X114900000Y-59450000D03*
D20*
%TO.P,U4,8,PH*%
%TO.N,Net-(D4-K)*%
X118200000Y-59345000D03*
%TO.P,U4,7,VIN*%
%TO.N,12V*%
X118200000Y-60615000D03*
%TO.P,U4,6,GND*%
%TO.N,Earth*%
X118200000Y-61885000D03*
%TO.P,U4,5,EN*%
%TO.N,unconnected-(U4-EN-Pad5)*%
X118200000Y-63155000D03*
%TO.P,U4,4,VSENSE*%
%TO.N,Net-(U4-VSENSE)*%
X112800000Y-63155000D03*
%TO.P,U4,3,NC*%
%TO.N,unconnected-(U4-NC-Pad3)*%
X112800000Y-61885000D03*
%TO.P,U4,2,NC*%
%TO.N,unconnected-(U4-NC-Pad2)*%
X112800000Y-60615000D03*
%TO.P,U4,1,BOOT*%
%TO.N,Net-(U4-BOOT)*%
X112800000Y-59345000D03*
%TD*%
D21*
%TO.P,R10,1*%
%TO.N,6\u002C5V*%
X114575000Y-67500000D03*
%TO.P,R10,2*%
%TO.N,Net-(U4-VSENSE)*%
X112925000Y-67500000D03*
%TD*%
D22*
%TO.P,R11,2*%
%TO.N,Earth*%
X114575000Y-65500000D03*
%TO.P,R11,1*%
%TO.N,Net-(U4-VSENSE)*%
X112925000Y-65500000D03*
%TD*%
D23*
%TO.P,L1,1*%
%TO.N,Net-(D4-K)*%
X117500000Y-54250000D03*
%TO.P,L1,2*%
%TO.N,6\u002C5V*%
X123000000Y-54250000D03*
%TD*%
D24*
%TO.P,D4,1,K*%
%TO.N,Net-(D4-K)*%
X108750000Y-58500000D03*
%TO.P,D4,2,A*%
%TO.N,Earth*%
X108750000Y-62500000D03*
%TD*%
D14*
%TO.P,C6,1*%
%TO.N,12V*%
X121000000Y-60725000D03*
%TO.P,C6,2*%
%TO.N,Earth*%
X121000000Y-62275000D03*
%TD*%
D25*
%TO.P,C7,2*%
%TO.N,Earth*%
X113750000Y-72750000D03*
D26*
%TO.P,C7,1*%
%TO.N,6\u002C5V*%
X113750000Y-70750000D03*
%TD*%
D27*
%TO.P,C5,1*%
%TO.N,Net-(D4-K)*%
X114025000Y-57250000D03*
%TO.P,C5,2*%
%TO.N,Net-(U4-BOOT)*%
X112475000Y-57250000D03*
%TD*%
D28*
%TO.P,R4,2*%
%TO.N,Net-(Q1-G)*%
X108750000Y-53337500D03*
%TO.P,R4,1*%
%TO.N,BRINA*%
X108750000Y-55162500D03*
%TD*%
D29*
%TO.P,D5,1,K*%
%TO.N,VCC_5V*%
X78150000Y-50375000D03*
%TO.P,D5,2,A*%
%TO.N,Net-(D5-A)*%
X74850000Y-50375000D03*
%TD*%
D30*
%TO.P,J5,5,Shield*%
%TO.N,Earth*%
X83020000Y-42000000D03*
X70980000Y-42000000D03*
D31*
%TO.P,J5,4,GND*%
X75750000Y-44710000D03*
%TO.P,J5,3,D+*%
%TO.N,D+*%
X78250000Y-44710000D03*
%TO.P,J5,2,D-*%
%TO.N,D-*%
X78250000Y-46710000D03*
D32*
%TO.P,J5,1,VBUS*%
%TO.N,Net-(D5-A)*%
X75750000Y-46710000D03*
%TD*%
D33*
%TO.P,SW1,1,A*%
%TO.N,Earth*%
X109225000Y-80675000D03*
%TO.P,SW1,2,B*%
%TO.N,GPIO0*%
X102275000Y-80675000D03*
%TD*%
D14*
%TO.P,C17,2*%
%TO.N,Earth*%
X80250000Y-78425000D03*
%TO.P,C17,1*%
%TO.N,Net-(U5-5VOUT)*%
X80250000Y-76875000D03*
%TD*%
D34*
%TO.P,C14,2*%
%TO.N,Earth*%
X74275000Y-69125000D03*
%TO.P,C14,1*%
%TO.N,12V*%
X72725000Y-69125000D03*
%TD*%
%TO.P,C13,2*%
%TO.N,Earth*%
X74275000Y-71125000D03*
%TO.P,C13,1*%
%TO.N,12V*%
X72725000Y-71125000D03*
%TD*%
D27*
%TO.P,C23,2*%
%TO.N,Earth*%
X81475000Y-59625000D03*
%TO.P,C23,1*%
%TO.N,VCC*%
X83025000Y-59625000D03*
%TD*%
%TO.P,C22,2*%
%TO.N,Earth*%
X81475000Y-57625000D03*
%TO.P,C22,1*%
%TO.N,VCC*%
X83025000Y-57625000D03*
%TD*%
D14*
%TO.P,C21,2*%
%TO.N,Earth*%
X83000000Y-54650000D03*
%TO.P,C21,1*%
%TO.N,VCC_5V*%
X83000000Y-53100000D03*
%TD*%
%TO.P,C20,2*%
%TO.N,Earth*%
X80750000Y-54650000D03*
%TO.P,C20,1*%
%TO.N,VCC_5V*%
X80750000Y-53100000D03*
%TD*%
D27*
%TO.P,C18,2*%
%TO.N,Earth*%
X72225000Y-65750000D03*
%TO.P,C18,1*%
%TO.N,CHIP_PU*%
X73775000Y-65750000D03*
%TD*%
D34*
%TO.P,C10,2*%
%TO.N,Earth*%
X106525000Y-83625000D03*
%TO.P,C10,1*%
%TO.N,GPIO0*%
X104975000Y-83625000D03*
%TD*%
D35*
%TO.P,C3,2*%
%TO.N,Earth*%
X79500000Y-57850000D03*
%TO.P,C3,1*%
%TO.N,CHIP_PU*%
X79500000Y-59400000D03*
%TD*%
D14*
%TO.P,C2,2*%
%TO.N,Earth*%
X67000000Y-60900000D03*
%TO.P,C2,1*%
%TO.N,VCC*%
X67000000Y-59350000D03*
%TD*%
%TO.P,C1,2*%
%TO.N,Earth*%
X64500000Y-60900000D03*
%TO.P,C1,1*%
%TO.N,VCC*%
X64500000Y-59350000D03*
%TD*%
D27*
%TO.P,C16,2*%
%TO.N,Earth*%
X70975000Y-50875000D03*
%TO.P,C16,1*%
%TO.N,VCC_5V*%
X72525000Y-50875000D03*
%TD*%
D36*
%TO.P,C4,2*%
%TO.N,Earth*%
X111650000Y-41625000D03*
%TO.P,C4,1*%
%TO.N,12V*%
X102850000Y-41625000D03*
%TD*%
D37*
%TO.P,R8,2*%
%TO.N,Net-(U3-WP)*%
X111750000Y-83700000D03*
%TO.P,R8,1*%
%TO.N,EEPROM_WC*%
X111750000Y-82050000D03*
%TD*%
%TO.P,R7,2*%
%TO.N,Net-(U3-SCL)*%
X112500000Y-80200000D03*
%TO.P,R7,1*%
%TO.N,EEPROM_SCL*%
X112500000Y-78550000D03*
%TD*%
D22*
%TO.P,R6,2*%
%TO.N,Net-(U3-SDA)*%
X116075000Y-78125000D03*
%TO.P,R6,1*%
%TO.N,EEPROM_SDA*%
X114425000Y-78125000D03*
%TD*%
D38*
%TO.P,R12,1*%
%TO.N,CHIP_PU*%
X80250000Y-63700000D03*
%TO.P,R12,2*%
%TO.N,VCC*%
X80250000Y-62050000D03*
%TD*%
D37*
%TO.P,R9,2*%
%TO.N,VCC*%
X101250000Y-84200000D03*
%TO.P,R9,1*%
%TO.N,GPIO0*%
X101250000Y-82550000D03*
%TD*%
D22*
%TO.P,R3,1*%
%TO.N,VCC*%
X80925000Y-74125000D03*
%TO.P,R3,2*%
%TO.N,TXTMC*%
X82575000Y-74125000D03*
%TD*%
D37*
%TO.P,R1,2*%
%TO.N,TXTMC*%
X82500000Y-72275000D03*
%TO.P,R1,1*%
%TO.N,RXTMC*%
X82500000Y-70625000D03*
%TD*%
D21*
%TO.P,R5,2*%
%TO.N,Net-(Q1-G)*%
X111175000Y-53625000D03*
%TO.P,R5,1*%
%TO.N,Earth*%
X112825000Y-53625000D03*
%TD*%
D22*
%TO.P,R2,2*%
%TO.N,VCC*%
X95825000Y-78875000D03*
%TO.P,R2,1*%
%TO.N,TEMP*%
X94175000Y-78875000D03*
%TD*%
D17*
%TO.P,U2,41_21*%
%TO.N,N/C*%
X93200000Y-68075000D03*
%TO.P,U2,41_20*%
X91800000Y-68075000D03*
%TO.P,U2,41_19*%
X93900000Y-67375000D03*
%TO.P,U2,41_18*%
X92500000Y-67375000D03*
%TO.P,U2,41_17*%
X91100000Y-67375000D03*
%TO.P,U2,41_16*%
X93200000Y-66675000D03*
%TO.P,U2,41_15*%
X91800000Y-66675000D03*
%TO.P,U2,41_14*%
X93900000Y-65975000D03*
%TO.P,U2,41_13*%
X92500000Y-65975000D03*
%TO.P,U2,41_12*%
X91100000Y-65975000D03*
%TO.P,U2,41_11*%
X93200000Y-65275000D03*
%TO.P,U2,41_10*%
X91800000Y-65275000D03*
D39*
%TO.P,U2,41_9,GND*%
%TO.N,Earth*%
X93900000Y-68085000D03*
%TO.P,U2,41_8,GND*%
X92500000Y-68085000D03*
%TO.P,U2,41_7,GND*%
X91100000Y-68085000D03*
%TO.P,U2,41_6,GND*%
X93900000Y-66685000D03*
%TO.P,U2,41_5,GND*%
X92500000Y-66685000D03*
%TO.P,U2,41_4,GND*%
X91100000Y-66685000D03*
%TO.P,U2,41_3,GND*%
X93900000Y-65285000D03*
%TO.P,U2,41_2,GND*%
X92500000Y-65285000D03*
%TO.P,U2,41_1,GND*%
X91100000Y-65285000D03*
D40*
%TO.P,U2,40,GND*%
X102750000Y-58965000D03*
%TO.P,U2,39,IO1*%
%TO.N,unconnected-(U2-IO1-Pad39)*%
X102750000Y-60235000D03*
%TO.P,U2,38,IO2*%
%TO.N,BRINA*%
X102750000Y-61505000D03*
%TO.P,U2,37,TXD0*%
%TO.N,unconnected-(U2-TXD0-Pad37)*%
X102750000Y-62775000D03*
%TO.P,U2,36,RXD0*%
%TO.N,unconnected-(U2-RXD0-Pad36)*%
X102750000Y-64045000D03*
%TO.P,U2,35,IO42*%
%TO.N,unconnected-(U2-IO42-Pad35)*%
X102750000Y-65315000D03*
%TO.P,U2,34,IO41*%
%TO.N,unconnected-(U2-IO41-Pad34)*%
X102750000Y-66585000D03*
%TO.P,U2,33,IO40*%
%TO.N,unconnected-(U2-IO40-Pad33)*%
X102750000Y-67855000D03*
%TO.P,U2,32,IO39*%
%TO.N,unconnected-(U2-IO39-Pad32)*%
X102750000Y-69125000D03*
%TO.P,U2,31,IO38*%
%TO.N,SERVO*%
X102750000Y-70395000D03*
%TO.P,U2,30,IO37*%
%TO.N,EEPROM_SDA*%
X102750000Y-71665000D03*
%TO.P,U2,29,IO36*%
%TO.N,EEPROM_SCL*%
X102750000Y-72935000D03*
%TO.P,U2,28,IO35*%
%TO.N,EEPROM_WC*%
X102750000Y-74205000D03*
%TO.P,U2,27,IO0*%
%TO.N,GPIO0*%
X102750000Y-75475000D03*
D41*
%TO.P,U2,26,IO45*%
%TO.N,unconnected-(U2-IO45-Pad26)*%
X100985000Y-76725000D03*
%TO.P,U2,25,IO48*%
%TO.N,unconnected-(U2-IO48-Pad25)*%
X99715000Y-76725000D03*
%TO.P,U2,24,IO47*%
%TO.N,unconnected-(U2-IO47-Pad24)*%
X98445000Y-76725000D03*
%TO.P,U2,23,IO21*%
%TO.N,unconnected-(U2-IO21-Pad23)*%
X97175000Y-76725000D03*
%TO.P,U2,22,IO14*%
%TO.N,unconnected-(U2-IO14-Pad22)*%
X95905000Y-76725000D03*
%TO.P,U2,21,IO13*%
%TO.N,TEMP*%
X94635000Y-76725000D03*
%TO.P,U2,20,IO12*%
%TO.N,Net-(J3-Pin_2)*%
X93365000Y-76725000D03*
%TO.P,U2,19,IO11*%
%TO.N,Net-(J3-Pin_1)*%
X92095000Y-76725000D03*
%TO.P,U2,18,IO10*%
%TO.N,Net-(J2-Pin_2)*%
X90825000Y-76725000D03*
%TO.P,U2,17,IO9*%
%TO.N,Net-(J2-Pin_1)*%
X89555000Y-76725000D03*
%TO.P,U2,16,IO46*%
%TO.N,unconnected-(U2-IO46-Pad16)*%
X88285000Y-76725000D03*
%TO.P,U2,15,IO3*%
%TO.N,unconnected-(U2-IO3-Pad15)*%
X87015000Y-76725000D03*
D40*
%TO.P,U2,14,IO20*%
%TO.N,D+*%
X85250000Y-75475000D03*
%TO.P,U2,13,IO19*%
%TO.N,D-*%
X85250000Y-74205000D03*
%TO.P,U2,12,IO8*%
%TO.N,TXTMC*%
X85250000Y-72935000D03*
%TO.P,U2,11,IO18*%
%TO.N,RXTMC*%
X85250000Y-71665000D03*
%TO.P,U2,10,IO17*%
%TO.N,EN*%
X85250000Y-70395000D03*
%TO.P,U2,9,IO16*%
%TO.N,STEP*%
X85250000Y-69125000D03*
%TO.P,U2,8,IO15*%
%TO.N,DIR*%
X85250000Y-67855000D03*
%TO.P,U2,7,IO7*%
%TO.N,unconnected-(U2-IO7-Pad7)*%
X85250000Y-66585000D03*
%TO.P,U2,6,IO6*%
%TO.N,unconnected-(U2-IO6-Pad6)*%
X85250000Y-65315000D03*
%TO.P,U2,5,IO5*%
%TO.N,unconnected-(U2-IO5-Pad5)*%
X85250000Y-64045000D03*
%TO.P,U2,4,IO4*%
%TO.N,unconnected-(U2-IO4-Pad4)*%
X85250000Y-62775000D03*
%TO.P,U2,3,EN*%
%TO.N,CHIP_PU*%
X85250000Y-61505000D03*
%TO.P,U2,2,3V3*%
%TO.N,VCC*%
X85250000Y-60235000D03*
%TO.P,U2,1,GND*%
%TO.N,Earth*%
X85250000Y-58965000D03*
%TD*%
D42*
%TO.P,U1,3,V_{DD}*%
%TO.N,VCC*%
X97000000Y-82600000D03*
%TO.P,U1,2,DQ*%
%TO.N,TEMP*%
X94500000Y-82600000D03*
D43*
%TO.P,U1,1,GND*%
%TO.N,Earth*%
X92000000Y-82600000D03*
%TD*%
D44*
%TO.P,U3,8,VDD*%
%TO.N,VCC*%
X115025000Y-84030000D03*
%TO.P,U3,7,WP*%
%TO.N,Net-(U3-WP)*%
X115025000Y-82760000D03*
%TO.P,U3,6,SCL*%
%TO.N,Net-(U3-SCL)*%
X115025000Y-81490000D03*
%TO.P,U3,5,SDA*%
%TO.N,Net-(U3-SDA)*%
X115025000Y-80220000D03*
%TO.P,U3,4,VSS*%
%TO.N,Earth*%
X119975000Y-80220000D03*
%TO.P,U3,3,A2*%
%TO.N,unconnected-(U3-A2-Pad3)*%
X119975000Y-81490000D03*
%TO.P,U3,2,A1*%
%TO.N,unconnected-(U3-A1-Pad2)*%
X119975000Y-82760000D03*
%TO.P,U3,1,A0*%
%TO.N,unconnected-(U3-A0-Pad1)*%
X119975000Y-84030000D03*
%TD*%
D45*
%TO.P,J4,3,Pin_3*%
%TO.N,Earth*%
X89550000Y-42375000D03*
D46*
%TO.P,J4,2,Pin_2*%
X94250000Y-39375000D03*
D47*
%TO.P,J4,1,Pin_1*%
%TO.N,12V*%
X94250000Y-45375000D03*
%TD*%
D48*
%TO.P,D2,2,A*%
%TO.N,12V*%
X95500000Y-50625000D03*
%TO.P,D2,1,K*%
%TO.N,Net-(D2-K)*%
X95500000Y-54625000D03*
%TD*%
D49*
%TO.P,U6,3,VI*%
%TO.N,VCC_5V*%
X75900000Y-53825000D03*
D50*
%TO.P,U6,2,VO*%
%TO.N,VCC*%
X69600000Y-56125000D03*
D49*
X75900000Y-56125000D03*
%TO.P,U6,1,GND*%
%TO.N,Earth*%
X75900000Y-58425000D03*
%TD*%
D51*
%TO.P,D7,2,A2*%
%TO.N,Earth*%
X84300000Y-49875000D03*
%TO.P,D7,1,A1*%
%TO.N,D+*%
X85700000Y-49875000D03*
%TD*%
D52*
%TO.P,U5,29,EXP*%
%TO.N,Earth*%
X75750000Y-76375000D03*
D53*
%TO.P,U5,28,VS*%
%TO.N,12V*%
X73300000Y-77875000D03*
%TO.P,U5,27,BRB*%
%TO.N,Net-(U5-BRB)*%
X73300000Y-77375000D03*
%TO.P,U5,26,OB1*%
%TO.N,Net-(J6-Pin_3)*%
X73300000Y-76875000D03*
%TO.P,U5,25,NC*%
%TO.N,unconnected-(U5-NC-Pad25)*%
X73300000Y-76375000D03*
%TO.P,U5,24,OA1*%
%TO.N,Net-(J6-Pin_2)*%
X73300000Y-75875000D03*
%TO.P,U5,23,BRA*%
%TO.N,Net-(U5-BRA)*%
X73300000Y-75375000D03*
%TO.P,U5,22,VS*%
%TO.N,12V*%
X73300000Y-74875000D03*
D54*
%TO.P,U5,21,OA2*%
%TO.N,Net-(J6-Pin_1)*%
X74250000Y-73925000D03*
%TO.P,U5,20,STDBY*%
%TO.N,unconnected-(U5-STDBY-Pad20)*%
X74750000Y-73925000D03*
%TO.P,U5,19,DIR*%
%TO.N,DIR*%
X75250000Y-73925000D03*
%TO.P,U5,18,GND*%
%TO.N,Earth*%
X75750000Y-73925000D03*
%TO.P,U5,17,VREF*%
%TO.N,unconnected-(U5-VREF-Pad17)*%
X76250000Y-73925000D03*
%TO.P,U5,16,STEP*%
%TO.N,STEP*%
X76750000Y-73925000D03*
%TO.P,U5,15,VCC_IO*%
%TO.N,VCC*%
X77250000Y-73925000D03*
D53*
%TO.P,U5,14,~{PD}_UART*%
%TO.N,RXTMC*%
X78200000Y-74875000D03*
%TO.P,U5,13,CLK*%
%TO.N,Earth*%
X78200000Y-75375000D03*
%TO.P,U5,12,INDEX*%
%TO.N,unconnected-(U5-INDEX-Pad12)*%
X78200000Y-75875000D03*
%TO.P,U5,11,DIAG*%
%TO.N,unconnected-(U5-DIAG-Pad11)*%
X78200000Y-76375000D03*
%TO.P,U5,10,MS2_AD1*%
%TO.N,unconnected-(U5-MS2_AD1-Pad10)*%
X78200000Y-76875000D03*
%TO.P,U5,9,MS1_AD0*%
%TO.N,unconnected-(U5-MS1_AD0-Pad9)*%
X78200000Y-77375000D03*
%TO.P,U5,8,5VOUT*%
%TO.N,Net-(U5-5VOUT)*%
X78200000Y-77875000D03*
D54*
%TO.P,U5,7,SPREAD*%
%TO.N,unconnected-(U5-SPREAD-Pad7)*%
X77250000Y-78825000D03*
%TO.P,U5,6,VCP*%
%TO.N,Net-(U5-VCP)*%
X76750000Y-78825000D03*
%TO.P,U5,5,CPI*%
%TO.N,Net-(U5-CPI)*%
X76250000Y-78825000D03*
%TO.P,U5,4,CPO*%
%TO.N,Net-(U5-CPO)*%
X75750000Y-78825000D03*
%TO.P,U5,3,GND*%
%TO.N,Earth*%
X75250000Y-78825000D03*
%TO.P,U5,2,~{EN}*%
%TO.N,EN*%
X74750000Y-78825000D03*
%TO.P,U5,1,OB2*%
%TO.N,Net-(J6-Pin_4)*%
X74250000Y-78825000D03*
%TD*%
D51*
%TO.P,D8,2,A2*%
%TO.N,Earth*%
X81050000Y-49875000D03*
%TO.P,D8,1,A1*%
%TO.N,D-*%
X82450000Y-49875000D03*
%TD*%
D55*
%TO.P,Q1,3,D*%
%TO.N,Net-(D3-K)*%
X111000000Y-49187500D03*
%TO.P,Q1,2,S*%
%TO.N,Earth*%
X111950000Y-51062500D03*
%TO.P,Q1,1,G*%
%TO.N,Net-(Q1-G)*%
X110050000Y-51062500D03*
%TD*%
D48*
%TO.P,D1,2,A*%
%TO.N,VCC*%
X62000000Y-63625000D03*
%TO.P,D1,1,K*%
%TO.N,12V*%
X62000000Y-67625000D03*
%TD*%
D56*
%TO.P,J6,4,Pin_4*%
%TO.N,Net-(J6-Pin_4)*%
X63750000Y-80125000D03*
%TO.P,J6,3,Pin_3*%
%TO.N,Net-(J6-Pin_3)*%
X63750000Y-77625000D03*
%TO.P,J6,2,Pin_2*%
%TO.N,Net-(J6-Pin_2)*%
X63750000Y-75125000D03*
D57*
%TO.P,J6,1,Pin_1*%
%TO.N,Net-(J6-Pin_1)*%
X63750000Y-72625000D03*
%TD*%
D58*
%TO.P,D3,2,A*%
%TO.N,Net-(D2-K)*%
X101750000Y-52125000D03*
D59*
%TO.P,D3,1,K*%
%TO.N,Net-(D3-K)*%
X104250000Y-52125000D03*
%TD*%
D60*
%TO.P,J2,2,Pin_2*%
%TO.N,Net-(J2-Pin_2)*%
X84500000Y-83625000D03*
D32*
%TO.P,J2,1,Pin_1*%
%TO.N,Net-(J2-Pin_1)*%
X84500000Y-81085000D03*
%TD*%
D61*
%TO.P,R13,2*%
%TO.N,Net-(U5-BRA)*%
X68500000Y-74087500D03*
%TO.P,R13,1*%
%TO.N,Earth*%
X68500000Y-71162500D03*
%TD*%
%TO.P,R14,2*%
%TO.N,Earth*%
X68500000Y-81587500D03*
%TO.P,R14,1*%
%TO.N,Net-(U5-BRB)*%
X68500000Y-78662500D03*
%TD*%
D62*
%TO.P,D6,2,A2*%
%TO.N,Earth*%
X69000000Y-45675000D03*
%TO.P,D6,1,A1*%
%TO.N,Net-(D5-A)*%
X69000000Y-47075000D03*
%TD*%
D56*
%TO.P,J1,3,Pin_3*%
%TO.N,SERVO*%
X121025000Y-75250000D03*
%TO.P,J1,2,Pin_2*%
%TO.N,6\u002C5V*%
X121025000Y-72750000D03*
D57*
%TO.P,J1,1,Pin_1*%
%TO.N,Earth*%
X121025000Y-70250000D03*
%TD*%
D34*
%TO.P,C12,2*%
%TO.N,Net-(U5-VCP)*%
X77525000Y-83750000D03*
%TO.P,C12,1*%
%TO.N,12V*%
X75975000Y-83750000D03*
%TD*%
D60*
%TO.P,J3,2,Pin_2*%
%TO.N,Net-(J3-Pin_2)*%
X87150000Y-83625000D03*
D32*
%TO.P,J3,1,Pin_1*%
%TO.N,Net-(J3-Pin_1)*%
X87150000Y-81085000D03*
%TD*%
D63*
%TO.P,SW2,1,A*%
%TO.N,Earth*%
X69500000Y-62875000D03*
%TO.P,SW2,2,B*%
%TO.N,CHIP_PU*%
X76450000Y-62875000D03*
%TD*%
D64*
%TO.N,Earth*%
X105750000Y-62500000D03*
%TO.N,12V*%
X120250000Y-59250000D03*
D65*
%TO.N,Earth*%
X81000000Y-85500000D03*
X67750000Y-83500000D03*
X71000000Y-68750000D03*
D66*
X99250000Y-56375000D03*
X122350000Y-80275000D03*
X109850000Y-79175000D03*
%TO.N,RXTMC*%
X81000000Y-70125000D03*
%TO.N,Earth*%
X113000000Y-52125000D03*
X113000000Y-50875000D03*
X114250000Y-52125000D03*
X114250000Y-50875000D03*
X114250000Y-53625000D03*
%TO.N,EN*%
X82000000Y-69125000D03*
%TO.N,D+*%
X83000000Y-77625000D03*
%TO.N,Earth*%
X79500000Y-75375000D03*
X74250000Y-76375000D03*
X76075000Y-71450000D03*
X65000000Y-62250000D03*
X77250000Y-77875000D03*
X76500000Y-75625000D03*
X77250000Y-76375000D03*
X85250000Y-56375000D03*
X75750000Y-74875000D03*
X74500000Y-80875000D03*
X71000000Y-48875000D03*
X75000000Y-77125000D03*
X74250000Y-77875000D03*
X75750000Y-76375000D03*
X75750000Y-77875000D03*
X77250000Y-74875000D03*
X78125000Y-58000000D03*
X76500000Y-77125000D03*
D67*
X89250000Y-52125000D03*
D66*
X74250000Y-74875000D03*
X78500000Y-65750000D03*
X76050000Y-72575000D03*
X75000000Y-75625000D03*
X78500000Y-68000000D03*
X80250000Y-79625000D03*
D64*
%TO.N,12V*%
X70750000Y-73875000D03*
X70500000Y-71125000D03*
D66*
X64750000Y-67625000D03*
D64*
X70750000Y-78875000D03*
X70800000Y-81700000D03*
D66*
%TO.N,D+*%
X90750000Y-55625000D03*
X87250000Y-49125000D03*
X91500000Y-49125000D03*
%TO.N,D-*%
X83000000Y-75625000D03*
X88500000Y-56375000D03*
%TO.N,EN*%
X74750000Y-82125000D03*
%TO.N,RXTMC*%
X79750000Y-73875000D03*
%TO.N,STEP*%
X82500000Y-67875000D03*
X77250000Y-72375000D03*
%TO.N,DIR*%
X83000000Y-66875000D03*
X74750000Y-72625000D03*
%TD*%
D68*
%TO.N,CHIP_PU*%
X76450000Y-62875000D02*
X76450000Y-64800000D01*
X76450000Y-64800000D02*
X75500000Y-65750000D01*
X75500000Y-65750000D02*
X73775000Y-65750000D01*
D69*
%TO.N,Earth*%
X79250000Y-69225000D02*
X79250000Y-68750000D01*
X79250000Y-68750000D02*
X78500000Y-68000000D01*
D70*
X78500000Y-65750000D02*
X78500000Y-68000000D01*
D69*
%TO.N,VCC*%
X78625000Y-71000000D02*
X74875000Y-67250000D01*
X64100000Y-63625000D02*
X62000000Y-63625000D01*
X74875000Y-67250000D02*
X67725000Y-67250000D01*
X67725000Y-67250000D02*
X64100000Y-63625000D01*
D68*
%TO.N,12V*%
X70800000Y-81700000D02*
X70825000Y-81700000D01*
X70825000Y-81700000D02*
X72875000Y-83750000D01*
X72875000Y-83750000D02*
X75975000Y-83750000D01*
%TO.N,Net-(U5-VCP)*%
X76750000Y-78825000D02*
X76750000Y-79510214D01*
X77364786Y-80125000D02*
X79651471Y-80125000D01*
X80250000Y-80723529D02*
X80250000Y-82750000D01*
X79250000Y-83750000D02*
X77525000Y-83750000D01*
X79651471Y-80125000D02*
X80250000Y-80723529D01*
X76750000Y-79510214D02*
X77364786Y-80125000D01*
X80250000Y-82750000D02*
X79250000Y-83750000D01*
D11*
%TO.N,EN*%
X73500000Y-80625000D02*
X74750000Y-79375000D01*
X74750000Y-82125000D02*
X73500000Y-80875000D01*
X73500000Y-80875000D02*
X73500000Y-80625000D01*
X74750000Y-79375000D02*
X74750000Y-78825000D01*
D71*
%TO.N,Net-(U5-CPI)*%
X76250000Y-78825000D02*
X76250000Y-79950000D01*
X76250000Y-79950000D02*
X77800000Y-81500000D01*
X77800000Y-81500000D02*
X77950000Y-81500000D01*
%TO.N,Net-(U5-CPO)*%
X75750000Y-78825000D02*
X75750000Y-81200000D01*
X75750000Y-81200000D02*
X76050000Y-81500000D01*
D11*
%TO.N,SERVO*%
X108555000Y-75250000D02*
X121025000Y-75250000D01*
D70*
%TO.N,6\u002C5V*%
X119000000Y-72750000D02*
X121025000Y-72750000D01*
D72*
X123500000Y-71750000D02*
X122500000Y-72750000D01*
X122500000Y-72750000D02*
X121025000Y-72750000D01*
X123000000Y-54250000D02*
X123500000Y-54750000D01*
X123500000Y-54750000D02*
X123500000Y-71750000D01*
D73*
%TO.N,Net-(D4-K)*%
X114000000Y-55500000D02*
X111250000Y-55500000D01*
X115250000Y-55500000D02*
X114000000Y-55500000D01*
X114000000Y-55500000D02*
X114025000Y-55525000D01*
X114025000Y-55525000D02*
X114025000Y-57250000D01*
D74*
%TO.N,6\u002C5V*%
X114575000Y-67500000D02*
X115300000Y-67500000D01*
X115300000Y-67500000D02*
X117050000Y-65750000D01*
%TO.N,Earth*%
X121300000Y-65750000D02*
X118950000Y-65750000D01*
X121000000Y-62275000D02*
X121000000Y-65450000D01*
X121000000Y-65450000D02*
X121300000Y-65750000D01*
D75*
X114250000Y-47625000D02*
X114250000Y-49000000D01*
X114250000Y-49000000D02*
X114250000Y-51875000D01*
D70*
X108750000Y-62500000D02*
X105750000Y-62500000D01*
D73*
%TO.N,Net-(D4-K)*%
X110750000Y-56000000D02*
X110750000Y-56500000D01*
X111250000Y-55500000D02*
X110750000Y-56000000D01*
X110750000Y-56500000D02*
X108750000Y-58500000D01*
D74*
%TO.N,Earth*%
X114900000Y-63050000D02*
X114900000Y-65175000D01*
X114900000Y-65175000D02*
X114575000Y-65500000D01*
%TO.N,Net-(U4-VSENSE)*%
X112925000Y-65500000D02*
X112925000Y-67500000D01*
X112800000Y-63155000D02*
X112800000Y-65375000D01*
X112800000Y-65375000D02*
X112925000Y-65500000D01*
D70*
%TO.N,6\u002C5V*%
X123250000Y-54250000D02*
X123500000Y-54500000D01*
%TO.N,12V*%
X120250000Y-59250000D02*
X121000000Y-60000000D01*
X121000000Y-60000000D02*
X121000000Y-60725000D01*
D74*
%TO.N,Earth*%
X118200000Y-61885000D02*
X119635000Y-61885000D01*
X119635000Y-61885000D02*
X120025000Y-62275000D01*
X120025000Y-62275000D02*
X121000000Y-62275000D01*
%TO.N,12V*%
X118200000Y-60615000D02*
X120890000Y-60615000D01*
X120890000Y-60615000D02*
X121000000Y-60725000D01*
D11*
%TO.N,Net-(Q1-G)*%
X110050000Y-52287500D02*
X110050000Y-52500000D01*
X110050000Y-52500000D02*
X111175000Y-53625000D01*
X108750000Y-53337500D02*
X109000000Y-53337500D01*
X109000000Y-53337500D02*
X110050000Y-52287500D01*
%TO.N,BRINA*%
X105937500Y-55162500D02*
X108750000Y-55162500D01*
%TO.N,Net-(D4-K)*%
X115250000Y-55500000D02*
X116375000Y-56625000D01*
X114025000Y-57250000D02*
X117000000Y-57250000D01*
X117000000Y-57250000D02*
X118200000Y-58450000D01*
X118200000Y-58450000D02*
X118200000Y-59345000D01*
D74*
%TO.N,Earth*%
X118200000Y-61885000D02*
X116135000Y-61885000D01*
X116135000Y-61885000D02*
X115500000Y-61250000D01*
%TO.N,Net-(U4-BOOT)*%
X112475000Y-57250000D02*
X112475000Y-59020000D01*
X112475000Y-59020000D02*
X112800000Y-59345000D01*
D69*
%TO.N,Net-(U4-VSENSE)*%
X112925000Y-63130000D02*
X112950000Y-63105000D01*
D70*
%TO.N,6\u002C5V*%
X117000000Y-70750000D02*
X119000000Y-72750000D01*
D11*
%TO.N,EEPROM_WC*%
X102750000Y-74205000D02*
X103705000Y-74205000D01*
X107375000Y-77875000D02*
X110000000Y-77875000D01*
X111000000Y-78875000D02*
X111000000Y-81300000D01*
X103705000Y-74205000D02*
X107375000Y-77875000D01*
X110000000Y-77875000D02*
X111000000Y-78875000D01*
X111000000Y-81300000D02*
X111750000Y-82050000D01*
%TO.N,EEPROM_SCL*%
X102750000Y-72935000D02*
X103622500Y-72935000D01*
X103622500Y-72935000D02*
X107812500Y-77125000D01*
X107812500Y-77125000D02*
X111075000Y-77125000D01*
X111075000Y-77125000D02*
X112500000Y-78550000D01*
%TO.N,EEPROM_SDA*%
X102750000Y-71665000D02*
X103665000Y-71665000D01*
X103665000Y-71665000D02*
X108375000Y-76375000D01*
X108375000Y-76375000D02*
X112675000Y-76375000D01*
X112675000Y-76375000D02*
X114425000Y-78125000D01*
%TO.N,SERVO*%
X103700000Y-70395000D02*
X108555000Y-75250000D01*
D68*
%TO.N,Earth*%
X65625000Y-62875000D02*
X65000000Y-62250000D01*
X69500000Y-62875000D02*
X65625000Y-62875000D01*
D69*
X65000000Y-62250000D02*
X65650000Y-62250000D01*
X65650000Y-62250000D02*
X67000000Y-60900000D01*
D11*
%TO.N,BRINA*%
X102750000Y-61505000D02*
X103870000Y-61505000D01*
X103870000Y-61505000D02*
X104250000Y-61125000D01*
X104250000Y-61125000D02*
X104250000Y-56850000D01*
X104250000Y-56850000D02*
X105937500Y-55162500D01*
%TO.N,Net-(Q1-G)*%
X110050000Y-51062500D02*
X110050000Y-52287500D01*
%TO.N,Net-(J2-Pin_2)*%
X90825000Y-76725000D02*
X90825000Y-77550000D01*
X90825000Y-77550000D02*
X89250000Y-79125000D01*
X89250000Y-79125000D02*
X86810000Y-79125000D01*
X86810000Y-79125000D02*
X85850000Y-80085000D01*
X85850000Y-80085000D02*
X85850000Y-82275000D01*
X85850000Y-82275000D02*
X84500000Y-83625000D01*
%TO.N,Net-(J2-Pin_1)*%
X84500000Y-79500000D02*
X84500000Y-81085000D01*
%TO.N,Net-(J3-Pin_2)*%
X93365000Y-76725000D02*
X93365000Y-77885000D01*
X93365000Y-77885000D02*
X87625000Y-83625000D01*
X87625000Y-83625000D02*
X87150000Y-83625000D01*
%TO.N,Net-(J3-Pin_1)*%
X88685000Y-81085000D02*
X87150000Y-81085000D01*
D69*
%TO.N,Earth*%
X80250000Y-79625000D02*
X81250000Y-80625000D01*
X81250000Y-80625000D02*
X81250000Y-84000000D01*
X81250000Y-84000000D02*
X80750000Y-84500000D01*
%TO.N,VCC*%
X80925000Y-74125000D02*
X80925000Y-75050000D01*
X80925000Y-75050000D02*
X81750000Y-75875000D01*
X81750000Y-75875000D02*
X81750000Y-79125000D01*
X82500000Y-79875000D02*
X82500000Y-84250000D01*
X81750000Y-79125000D02*
X82500000Y-79875000D01*
X82500000Y-84250000D02*
X83750000Y-85500000D01*
X83750000Y-85500000D02*
X94100000Y-85500000D01*
X94100000Y-85500000D02*
X97000000Y-82600000D01*
D11*
%TO.N,Net-(J2-Pin_1)*%
X84500000Y-79500000D02*
X85625000Y-78375000D01*
X85625000Y-78375000D02*
X88855000Y-78375000D01*
X88855000Y-78375000D02*
X89555000Y-77675000D01*
X89555000Y-77675000D02*
X89555000Y-76725000D01*
D70*
%TO.N,Earth*%
X80750000Y-84500000D02*
X80375000Y-84875000D01*
X80375000Y-84875000D02*
X81000000Y-85500000D01*
X80375000Y-84875000D02*
X79625000Y-85625000D01*
X79625000Y-85625000D02*
X71250000Y-85625000D01*
X71250000Y-85625000D02*
X68500000Y-82875000D01*
X68375000Y-82875000D02*
X67750000Y-83500000D01*
D69*
X68500000Y-82875000D02*
X68375000Y-82875000D01*
D68*
X69500000Y-64875000D02*
X70375000Y-65750000D01*
X70375000Y-65750000D02*
X72225000Y-65750000D01*
D70*
X68500000Y-71162500D02*
X68500000Y-70250000D01*
X68500000Y-70250000D02*
X70000000Y-68750000D01*
X70000000Y-68750000D02*
X71000000Y-68750000D01*
D75*
X83020000Y-42000000D02*
X89175000Y-42000000D01*
X89175000Y-42000000D02*
X89550000Y-42375000D01*
X70980000Y-42000000D02*
X83020000Y-42000000D01*
D69*
X69000000Y-45675000D02*
X69000000Y-43980000D01*
X69000000Y-43980000D02*
X70980000Y-42000000D01*
%TO.N,Net-(D5-A)*%
X69000000Y-47075000D02*
X75385000Y-47075000D01*
X75385000Y-47075000D02*
X75750000Y-46710000D01*
D70*
X74850000Y-50375000D02*
X74850000Y-47610000D01*
X74850000Y-47610000D02*
X75750000Y-46710000D01*
D68*
%TO.N,D-*%
X82450000Y-50925000D02*
X82250000Y-51125000D01*
X80500000Y-51125000D02*
X79750000Y-50375000D01*
X79750000Y-50375000D02*
X79750000Y-48210000D01*
X82250000Y-51125000D02*
X80500000Y-51125000D01*
X79750000Y-48210000D02*
X78250000Y-46710000D01*
%TO.N,D+*%
X85700000Y-49875000D02*
X85700000Y-47575000D01*
X85700000Y-47575000D02*
X84000000Y-45875000D01*
X84000000Y-45875000D02*
X81750000Y-45875000D01*
X81750000Y-45875000D02*
X80585000Y-44710000D01*
X80585000Y-44710000D02*
X78250000Y-44710000D01*
%TO.N,GPIO0*%
X104975000Y-83625000D02*
X103125000Y-83625000D01*
X103125000Y-83625000D02*
X102050000Y-82550000D01*
X102050000Y-82550000D02*
X101250000Y-82550000D01*
D69*
%TO.N,VCC*%
X101250000Y-84200000D02*
X98600000Y-84200000D01*
X98600000Y-84200000D02*
X97000000Y-82600000D01*
X113805000Y-85250000D02*
X102300000Y-85250000D01*
X102300000Y-85250000D02*
X101250000Y-84200000D01*
X115025000Y-84030000D02*
X113805000Y-85250000D01*
D68*
%TO.N,CHIP_PU*%
X84120000Y-61505000D02*
X85250000Y-61505000D01*
X77275000Y-63700000D02*
X76450000Y-62875000D01*
D69*
%TO.N,VCC*%
X64500000Y-59350000D02*
X64500000Y-57375000D01*
D68*
%TO.N,Earth*%
X80250000Y-79625000D02*
X80250000Y-78425000D01*
%TO.N,D-*%
X88500000Y-56375000D02*
X83050000Y-50925000D01*
X83050000Y-50925000D02*
X82450000Y-50925000D01*
D69*
%TO.N,Earth*%
X83000000Y-54650000D02*
X83525000Y-54650000D01*
X83525000Y-54650000D02*
X85250000Y-56375000D01*
X83000000Y-54650000D02*
X80750000Y-54650000D01*
%TO.N,VCC_5V*%
X80750000Y-53100000D02*
X79675000Y-53100000D01*
X79675000Y-53100000D02*
X78150000Y-51575000D01*
X83000000Y-53100000D02*
X80750000Y-53100000D01*
D68*
%TO.N,D+*%
X91500000Y-53000000D02*
X90750000Y-53750000D01*
X90750000Y-53750000D02*
X90750000Y-55625000D01*
X91500000Y-49125000D02*
X91500000Y-53000000D01*
X87250000Y-49125000D02*
X86500000Y-49875000D01*
X86500000Y-49875000D02*
X85700000Y-49875000D01*
D69*
%TO.N,Earth*%
X84300000Y-49875000D02*
X84300000Y-50675000D01*
X84300000Y-50675000D02*
X84750000Y-51125000D01*
X84750000Y-51125000D02*
X89250000Y-51125000D01*
D75*
X89250000Y-52125000D02*
X89250000Y-51125000D01*
X89250000Y-51125000D02*
X89250000Y-46875000D01*
D69*
%TO.N,D-*%
X82450000Y-49875000D02*
X82450000Y-50925000D01*
D70*
%TO.N,VCC_5V*%
X78150000Y-50375000D02*
X78150000Y-51575000D01*
X78150000Y-51575000D02*
X75900000Y-53825000D01*
D69*
X72525000Y-50875000D02*
X72950000Y-50875000D01*
X72950000Y-50875000D02*
X75900000Y-53825000D01*
%TO.N,Earth*%
X71000000Y-48875000D02*
X71000000Y-50850000D01*
X71000000Y-50850000D02*
X70975000Y-50875000D01*
D75*
X89250000Y-46875000D02*
X89250000Y-43375000D01*
D69*
X81050000Y-49875000D02*
X81050000Y-49075000D01*
X81050000Y-49075000D02*
X81500000Y-48625000D01*
X84300000Y-49175000D02*
X84300000Y-49875000D01*
X81500000Y-48625000D02*
X83750000Y-48625000D01*
X83750000Y-48625000D02*
X84300000Y-49175000D01*
%TO.N,VCC*%
X83025000Y-57625000D02*
X81775000Y-56375000D01*
X81775000Y-56375000D02*
X76150000Y-56375000D01*
X76150000Y-56375000D02*
X75900000Y-56125000D01*
D75*
%TO.N,Earth*%
X89250000Y-43375000D02*
X89500000Y-43125000D01*
D68*
X69500000Y-64875000D02*
X69500000Y-62875000D01*
%TO.N,CHIP_PU*%
X79500000Y-59400000D02*
X78725000Y-59400000D01*
X78725000Y-59400000D02*
X76450000Y-61675000D01*
X76450000Y-61675000D02*
X76450000Y-62875000D01*
D69*
%TO.N,12V*%
X64750000Y-67625000D02*
X62000000Y-67625000D01*
%TO.N,Earth*%
X75750000Y-71125000D02*
X74275000Y-71125000D01*
X76075000Y-71450000D02*
X76050000Y-71475000D01*
X76050000Y-71475000D02*
X76050000Y-72575000D01*
X76075000Y-71450000D02*
X75750000Y-71125000D01*
D68*
X76050000Y-72575000D02*
X75750000Y-72875000D01*
X75750000Y-72875000D02*
X75750000Y-73925000D01*
D69*
X74275000Y-69125000D02*
X74275000Y-71125000D01*
%TO.N,12V*%
X72725000Y-71125000D02*
X72725000Y-69125000D01*
X70500000Y-71125000D02*
X72725000Y-71125000D01*
D11*
%TO.N,SERVO*%
X102750000Y-70395000D02*
X103700000Y-70395000D01*
D68*
%TO.N,Earth*%
X79500000Y-75375000D02*
X78200000Y-75375000D01*
D69*
%TO.N,12V*%
X70750000Y-73875000D02*
X72750000Y-73875000D01*
X72750000Y-73875000D02*
X73300000Y-74425000D01*
X73300000Y-74425000D02*
X73300000Y-74775000D01*
X70750000Y-78875000D02*
X72750000Y-78875000D01*
X72750000Y-78875000D02*
X73300000Y-78325000D01*
X73300000Y-78325000D02*
X73300000Y-77975000D01*
D68*
%TO.N,VCC*%
X83025000Y-59625000D02*
X83635000Y-60235000D01*
X83635000Y-60235000D02*
X85250000Y-60235000D01*
X83025000Y-57625000D02*
X83025000Y-59625000D01*
%TO.N,Earth*%
X81475000Y-57625000D02*
X81475000Y-59625000D01*
X79500000Y-57850000D02*
X81250000Y-57850000D01*
X81250000Y-57850000D02*
X81475000Y-57625000D01*
X79500000Y-57850000D02*
X78275000Y-57850000D01*
X78275000Y-57850000D02*
X78125000Y-58000000D01*
D74*
X78125000Y-58000000D02*
X77700000Y-58425000D01*
X77700000Y-58425000D02*
X75900000Y-58425000D01*
D68*
%TO.N,CHIP_PU*%
X76525000Y-63200000D02*
X76450000Y-63125000D01*
D69*
%TO.N,VCC*%
X67250000Y-56125000D02*
X67000000Y-56375000D01*
X67000000Y-59350000D02*
X67000000Y-56375000D01*
X67000000Y-56375000D02*
X66000000Y-57375000D01*
%TO.N,Earth*%
X64500000Y-60900000D02*
X67000000Y-60900000D01*
%TO.N,VCC*%
X66000000Y-57375000D02*
X63750000Y-57375000D01*
X63750000Y-57375000D02*
X62000000Y-59125000D01*
X62000000Y-59125000D02*
X62000000Y-63625000D01*
X69600000Y-56125000D02*
X67250000Y-56125000D01*
D68*
%TO.N,Earth*%
X106525000Y-83625000D02*
X108000000Y-83625000D01*
X108000000Y-83625000D02*
X109250000Y-82375000D01*
X109250000Y-82375000D02*
X109250000Y-80675000D01*
%TO.N,GPIO0*%
X101250000Y-82550000D02*
X101250000Y-81725000D01*
X101250000Y-81725000D02*
X102300000Y-80675000D01*
X102750000Y-75475000D02*
X102750000Y-80225000D01*
X102750000Y-80225000D02*
X102300000Y-80675000D01*
%TO.N,Earth*%
X109850000Y-79175000D02*
X109850000Y-80075000D01*
X109850000Y-80075000D02*
X109250000Y-80675000D01*
D75*
X113500000Y-46875000D02*
X114250000Y-47625000D01*
X111650000Y-41625000D02*
X111650000Y-45025000D01*
X111650000Y-45025000D02*
X113500000Y-46875000D01*
D70*
X113250000Y-52250000D02*
X114000000Y-51500000D01*
D75*
X94250000Y-39375000D02*
X96000000Y-37625000D01*
X96000000Y-37625000D02*
X107650000Y-37625000D01*
X107650000Y-37625000D02*
X111650000Y-41625000D01*
%TO.N,12V*%
X94250000Y-45375000D02*
X99100000Y-45375000D01*
X99100000Y-45375000D02*
X102850000Y-41625000D01*
D11*
%TO.N,TXTMC*%
X83160000Y-72935000D02*
X83160000Y-73540000D01*
X83160000Y-73540000D02*
X82575000Y-74125000D01*
D68*
%TO.N,Earth*%
X99250000Y-56375000D02*
X101840000Y-58965000D01*
X101840000Y-58965000D02*
X102750000Y-58965000D01*
D69*
X119975000Y-80220000D02*
X122295000Y-80220000D01*
X122295000Y-80220000D02*
X122350000Y-80275000D01*
D11*
X122350000Y-80375000D02*
X122250000Y-80275000D01*
X122350000Y-80275000D02*
X122350000Y-80375000D01*
X122250000Y-80275000D02*
X122350000Y-80275000D01*
%TO.N,RXTMC*%
X81000000Y-70125000D02*
X82000000Y-70125000D01*
X82000000Y-70125000D02*
X82500000Y-70625000D01*
%TO.N,Net-(U3-SDA)*%
X115025000Y-80220000D02*
X116075000Y-79170000D01*
X116075000Y-79170000D02*
X116075000Y-78125000D01*
%TO.N,Net-(U3-SCL)*%
X115025000Y-81490000D02*
X113790000Y-81490000D01*
X113790000Y-81490000D02*
X112500000Y-80200000D01*
%TO.N,Net-(U3-WP)*%
X115025000Y-82760000D02*
X112690000Y-82760000D01*
X112690000Y-82760000D02*
X111750000Y-83700000D01*
%TO.N,Earth*%
X112825000Y-51950000D02*
X112825000Y-51937500D01*
X113000000Y-52125000D02*
X112825000Y-51950000D01*
X112825000Y-52300000D02*
X113000000Y-52125000D01*
D70*
X113000000Y-51125000D02*
X113062500Y-51062500D01*
X113000000Y-50875000D02*
X113000000Y-51125000D01*
X113250000Y-50875000D02*
X113000000Y-50875000D01*
X113250000Y-50875000D02*
X113250000Y-50875000D01*
X114250000Y-50875000D02*
X113250000Y-50875000D01*
%TO.N,Net-(D2-K)*%
X95500000Y-54625000D02*
X99250000Y-54625000D01*
X99250000Y-54625000D02*
X101750000Y-52125000D01*
D11*
%TO.N,Earth*%
X112825000Y-53625000D02*
X112825000Y-52300000D01*
X112825000Y-51937500D02*
X111950000Y-51062500D01*
D70*
%TO.N,Net-(D3-K)*%
X104250000Y-52125000D02*
X107187500Y-49187500D01*
X107187500Y-49187500D02*
X111000000Y-49187500D01*
%TO.N,12V*%
X95500000Y-50625000D02*
X95500000Y-46625000D01*
X95500000Y-46625000D02*
X94250000Y-45375000D01*
D68*
%TO.N,TEMP*%
X94175000Y-78875000D02*
X94175000Y-82275000D01*
X94175000Y-82275000D02*
X94500000Y-82600000D01*
%TO.N,VCC*%
X97000000Y-82600000D02*
X97000000Y-80050000D01*
X97000000Y-80050000D02*
X95825000Y-78875000D01*
%TO.N,TEMP*%
X94635000Y-76725000D02*
X94635000Y-78415000D01*
X94635000Y-78415000D02*
X94175000Y-78875000D01*
D69*
%TO.N,VCC*%
X80000000Y-71000000D02*
X80925000Y-71925000D01*
X80925000Y-71925000D02*
X80925000Y-73875000D01*
D11*
%TO.N,TXTMC*%
X85250000Y-72935000D02*
X83160000Y-72935000D01*
X83160000Y-72935000D02*
X82500000Y-72275000D01*
%TO.N,RXTMC*%
X82500000Y-70625000D02*
X83250000Y-70625000D01*
X83250000Y-70625000D02*
X84290000Y-71665000D01*
X84290000Y-71665000D02*
X85250000Y-71665000D01*
%TO.N,EN*%
X82000000Y-69125000D02*
X83000000Y-69125000D01*
X84270000Y-70395000D02*
X85250000Y-70395000D01*
X83000000Y-69125000D02*
X84270000Y-70395000D01*
%TO.N,STEP*%
X83000000Y-67875000D02*
X84250000Y-69125000D01*
X82500000Y-67875000D02*
X83000000Y-67875000D01*
X84250000Y-69125000D02*
X85250000Y-69125000D01*
%TO.N,RXTMC*%
X79750000Y-73875000D02*
X79250000Y-74375000D01*
X79250000Y-74375000D02*
X78700000Y-74375000D01*
X78700000Y-74375000D02*
X78200000Y-74875000D01*
%TO.N,DIR*%
X83000000Y-66875000D02*
X83250000Y-66875000D01*
X84230000Y-67855000D02*
X85250000Y-67855000D01*
X83250000Y-66875000D02*
X84230000Y-67855000D01*
D68*
%TO.N,D+*%
X83000000Y-77625000D02*
X85150000Y-75475000D01*
X85150000Y-75475000D02*
X85250000Y-75475000D01*
D11*
%TO.N,Net-(J3-Pin_1)*%
X92095000Y-77675000D02*
X92095000Y-76725000D01*
X88685000Y-81085000D02*
X92095000Y-77675000D01*
%TO.N,TEMP*%
X94490000Y-82115000D02*
X94500000Y-82125000D01*
D70*
%TO.N,Earth*%
X68500000Y-82875000D02*
X68500000Y-81587500D01*
D74*
X85250000Y-58965000D02*
X85250000Y-56375000D01*
D71*
X74500000Y-80375000D02*
X74500000Y-80875000D01*
D75*
X92550000Y-39375000D02*
X89550000Y-42375000D01*
D71*
X75250000Y-78825000D02*
X75250000Y-79625000D01*
D70*
X88640000Y-42265000D02*
X89500000Y-43125000D01*
D69*
X85250000Y-56375000D02*
X85250000Y-56625000D01*
D75*
X94250000Y-39375000D02*
X92550000Y-39375000D01*
D71*
X75250000Y-79625000D02*
X74500000Y-80375000D01*
D69*
%TO.N,VCC*%
X78625000Y-73000000D02*
X77700000Y-73925000D01*
X78625000Y-71000000D02*
X80000000Y-71000000D01*
X77700000Y-73925000D02*
X77335000Y-73925000D01*
D68*
X69600000Y-56125000D02*
X68750000Y-56125000D01*
D69*
X78625000Y-71000000D02*
X78625000Y-73000000D01*
D11*
%TO.N,STEP*%
X76750000Y-73925000D02*
X76750000Y-72875000D01*
X76750000Y-72875000D02*
X77250000Y-72375000D01*
%TO.N,DIR*%
X75250000Y-73375000D02*
X75250000Y-73925000D01*
X74750000Y-72625000D02*
X74750000Y-72875000D01*
X74750000Y-72875000D02*
X75250000Y-73375000D01*
D69*
%TO.N,Net-(J6-Pin_4)*%
X74050000Y-78825000D02*
X72750000Y-80125000D01*
X74050000Y-78825000D02*
X74000000Y-78875000D01*
X72750000Y-80125000D02*
X63750000Y-80125000D01*
X74050000Y-78825000D02*
X74150000Y-78825000D01*
%TO.N,Net-(J6-Pin_1)*%
X74150000Y-73925000D02*
X74050000Y-73925000D01*
X74050000Y-73925000D02*
X72750000Y-72625000D01*
X72750000Y-72625000D02*
X63750000Y-72625000D01*
%TO.N,Net-(J6-Pin_3)*%
X66750000Y-77625000D02*
X63750000Y-77625000D01*
D68*
X73300000Y-76875000D02*
X71500000Y-76875000D01*
D69*
X71500000Y-76875000D02*
X67500000Y-76875000D01*
X67500000Y-76875000D02*
X66750000Y-77625000D01*
D68*
%TO.N,Net-(J6-Pin_2)*%
X73300000Y-75875000D02*
X71500000Y-75875000D01*
D69*
X67000000Y-75125000D02*
X63750000Y-75125000D01*
X71500000Y-75875000D02*
X67750000Y-75875000D01*
X67750000Y-75875000D02*
X67000000Y-75125000D01*
D68*
%TO.N,Net-(U5-BRA)*%
X72250000Y-75375000D02*
X71750000Y-74875000D01*
X73300000Y-75375000D02*
X72250000Y-75375000D01*
D69*
X71750000Y-74875000D02*
X69287500Y-74875000D01*
X69287500Y-74875000D02*
X68500000Y-74087500D01*
D68*
%TO.N,Net-(U5-BRB)*%
X73300000Y-77375000D02*
X72250000Y-77375000D01*
D69*
X69287500Y-77875000D02*
X68500000Y-78662500D01*
D68*
X72250000Y-77375000D02*
X71750000Y-77875000D01*
D69*
X71750000Y-77875000D02*
X69287500Y-77875000D01*
D68*
%TO.N,D-*%
X84420000Y-74205000D02*
X83000000Y-75625000D01*
X85250000Y-74205000D02*
X84420000Y-74205000D01*
%TO.N,Net-(U5-5VOUT)*%
X80000000Y-76875000D02*
X80250000Y-76875000D01*
X79000000Y-77875000D02*
X80000000Y-76875000D01*
X78200000Y-77875000D02*
X79000000Y-77875000D01*
D70*
%TO.N,Earth*%
X75750000Y-44710000D02*
X73690000Y-44710000D01*
X73690000Y-44710000D02*
X70980000Y-42000000D01*
D68*
%TO.N,CHIP_PU*%
X80250000Y-63700000D02*
X77275000Y-63700000D01*
%TO.N,VCC*%
X83635000Y-60235000D02*
X81820000Y-62050000D01*
%TO.N,CHIP_PU*%
X81925000Y-63700000D02*
X84120000Y-61505000D01*
%TO.N,VCC*%
X81820000Y-62050000D02*
X80250000Y-62050000D01*
%TO.N,CHIP_PU*%
X80250000Y-63700000D02*
X81925000Y-63700000D01*
D70*
%TO.N,6\u002C5V*%
X114575000Y-67500000D02*
X114575000Y-69925000D01*
X114575000Y-69925000D02*
X113750000Y-70750000D01*
X113750000Y-70750000D02*
X117000000Y-70750000D01*
%TD*%
M02*
