%TF.GenerationSoftware,KiCad,Pcbnew,8.0.4*%
%TF.CreationDate,2025-07-27T19:27:03+02:00*%
%TF.ProjectId,GastroFocap,47617374-726f-4466-9f63-61702e6b6963,rev?*%
%TF.SameCoordinates,Original*%
%TF.FileFunction,Legend,Top*%
%TF.FilePolarity,Positive*%
%FSLAX46Y46*%
G04 Gerber Fmt 4.6, Leading zero omitted, Abs format (unit mm)*
G04 Created by KiCad (PCBNEW 8.0.4) date 2025-07-27 19:27:03*
%MOMM*%
%LPD*%
G01*
G04 APERTURE LIST*
%ADD10C,0.150000*%
%ADD11C,0.300000*%
%ADD12C,0.120000*%
%ADD13C,0.100000*%
%ADD14C,0.200000*%
%ADD15C,0.127000*%
G04 APERTURE END LIST*
D10*
X64420112Y-68846009D02*
X64086779Y-68846009D01*
X64086779Y-69369819D02*
X64086779Y-68369819D01*
X64086779Y-68369819D02*
X64562969Y-68369819D01*
X65134398Y-68369819D02*
X65324874Y-68369819D01*
X65324874Y-68369819D02*
X65420112Y-68417438D01*
X65420112Y-68417438D02*
X65515350Y-68512676D01*
X65515350Y-68512676D02*
X65562969Y-68703152D01*
X65562969Y-68703152D02*
X65562969Y-69036485D01*
X65562969Y-69036485D02*
X65515350Y-69226961D01*
X65515350Y-69226961D02*
X65420112Y-69322200D01*
X65420112Y-69322200D02*
X65324874Y-69369819D01*
X65324874Y-69369819D02*
X65134398Y-69369819D01*
X65134398Y-69369819D02*
X65039160Y-69322200D01*
X65039160Y-69322200D02*
X64943922Y-69226961D01*
X64943922Y-69226961D02*
X64896303Y-69036485D01*
X64896303Y-69036485D02*
X64896303Y-68703152D01*
X64896303Y-68703152D02*
X64943922Y-68512676D01*
X64943922Y-68512676D02*
X65039160Y-68417438D01*
X65039160Y-68417438D02*
X65134398Y-68369819D01*
X66562969Y-69274580D02*
X66515350Y-69322200D01*
X66515350Y-69322200D02*
X66372493Y-69369819D01*
X66372493Y-69369819D02*
X66277255Y-69369819D01*
X66277255Y-69369819D02*
X66134398Y-69322200D01*
X66134398Y-69322200D02*
X66039160Y-69226961D01*
X66039160Y-69226961D02*
X65991541Y-69131723D01*
X65991541Y-69131723D02*
X65943922Y-68941247D01*
X65943922Y-68941247D02*
X65943922Y-68798390D01*
X65943922Y-68798390D02*
X65991541Y-68607914D01*
X65991541Y-68607914D02*
X66039160Y-68512676D01*
X66039160Y-68512676D02*
X66134398Y-68417438D01*
X66134398Y-68417438D02*
X66277255Y-68369819D01*
X66277255Y-68369819D02*
X66372493Y-68369819D01*
X66372493Y-68369819D02*
X66515350Y-68417438D01*
X66515350Y-68417438D02*
X66562969Y-68465057D01*
X66991541Y-68369819D02*
X66991541Y-69179342D01*
X66991541Y-69179342D02*
X67039160Y-69274580D01*
X67039160Y-69274580D02*
X67086779Y-69322200D01*
X67086779Y-69322200D02*
X67182017Y-69369819D01*
X67182017Y-69369819D02*
X67372493Y-69369819D01*
X67372493Y-69369819D02*
X67467731Y-69322200D01*
X67467731Y-69322200D02*
X67515350Y-69274580D01*
X67515350Y-69274580D02*
X67562969Y-69179342D01*
X67562969Y-69179342D02*
X67562969Y-68369819D01*
X67991541Y-69322200D02*
X68134398Y-69369819D01*
X68134398Y-69369819D02*
X68372493Y-69369819D01*
X68372493Y-69369819D02*
X68467731Y-69322200D01*
X68467731Y-69322200D02*
X68515350Y-69274580D01*
X68515350Y-69274580D02*
X68562969Y-69179342D01*
X68562969Y-69179342D02*
X68562969Y-69084104D01*
X68562969Y-69084104D02*
X68515350Y-68988866D01*
X68515350Y-68988866D02*
X68467731Y-68941247D01*
X68467731Y-68941247D02*
X68372493Y-68893628D01*
X68372493Y-68893628D02*
X68182017Y-68846009D01*
X68182017Y-68846009D02*
X68086779Y-68798390D01*
X68086779Y-68798390D02*
X68039160Y-68750771D01*
X68039160Y-68750771D02*
X67991541Y-68655533D01*
X67991541Y-68655533D02*
X67991541Y-68560295D01*
X67991541Y-68560295D02*
X68039160Y-68465057D01*
X68039160Y-68465057D02*
X68086779Y-68417438D01*
X68086779Y-68417438D02*
X68182017Y-68369819D01*
X68182017Y-68369819D02*
X68420112Y-68369819D01*
X68420112Y-68369819D02*
X68562969Y-68417438D01*
X119289160Y-79072200D02*
X119432017Y-79119819D01*
X119432017Y-79119819D02*
X119670112Y-79119819D01*
X119670112Y-79119819D02*
X119765350Y-79072200D01*
X119765350Y-79072200D02*
X119812969Y-79024580D01*
X119812969Y-79024580D02*
X119860588Y-78929342D01*
X119860588Y-78929342D02*
X119860588Y-78834104D01*
X119860588Y-78834104D02*
X119812969Y-78738866D01*
X119812969Y-78738866D02*
X119765350Y-78691247D01*
X119765350Y-78691247D02*
X119670112Y-78643628D01*
X119670112Y-78643628D02*
X119479636Y-78596009D01*
X119479636Y-78596009D02*
X119384398Y-78548390D01*
X119384398Y-78548390D02*
X119336779Y-78500771D01*
X119336779Y-78500771D02*
X119289160Y-78405533D01*
X119289160Y-78405533D02*
X119289160Y-78310295D01*
X119289160Y-78310295D02*
X119336779Y-78215057D01*
X119336779Y-78215057D02*
X119384398Y-78167438D01*
X119384398Y-78167438D02*
X119479636Y-78119819D01*
X119479636Y-78119819D02*
X119717731Y-78119819D01*
X119717731Y-78119819D02*
X119860588Y-78167438D01*
X120289160Y-78596009D02*
X120622493Y-78596009D01*
X120765350Y-79119819D02*
X120289160Y-79119819D01*
X120289160Y-79119819D02*
X120289160Y-78119819D01*
X120289160Y-78119819D02*
X120765350Y-78119819D01*
X121765350Y-79119819D02*
X121432017Y-78643628D01*
X121193922Y-79119819D02*
X121193922Y-78119819D01*
X121193922Y-78119819D02*
X121574874Y-78119819D01*
X121574874Y-78119819D02*
X121670112Y-78167438D01*
X121670112Y-78167438D02*
X121717731Y-78215057D01*
X121717731Y-78215057D02*
X121765350Y-78310295D01*
X121765350Y-78310295D02*
X121765350Y-78453152D01*
X121765350Y-78453152D02*
X121717731Y-78548390D01*
X121717731Y-78548390D02*
X121670112Y-78596009D01*
X121670112Y-78596009D02*
X121574874Y-78643628D01*
X121574874Y-78643628D02*
X121193922Y-78643628D01*
X122051065Y-78119819D02*
X122384398Y-79119819D01*
X122384398Y-79119819D02*
X122717731Y-78119819D01*
X123241541Y-78119819D02*
X123432017Y-78119819D01*
X123432017Y-78119819D02*
X123527255Y-78167438D01*
X123527255Y-78167438D02*
X123622493Y-78262676D01*
X123622493Y-78262676D02*
X123670112Y-78453152D01*
X123670112Y-78453152D02*
X123670112Y-78786485D01*
X123670112Y-78786485D02*
X123622493Y-78976961D01*
X123622493Y-78976961D02*
X123527255Y-79072200D01*
X123527255Y-79072200D02*
X123432017Y-79119819D01*
X123432017Y-79119819D02*
X123241541Y-79119819D01*
X123241541Y-79119819D02*
X123146303Y-79072200D01*
X123146303Y-79072200D02*
X123051065Y-78976961D01*
X123051065Y-78976961D02*
X123003446Y-78786485D01*
X123003446Y-78786485D02*
X123003446Y-78453152D01*
X123003446Y-78453152D02*
X123051065Y-78262676D01*
X123051065Y-78262676D02*
X123146303Y-78167438D01*
X123146303Y-78167438D02*
X123241541Y-78119819D01*
X102312969Y-56119819D02*
X101836779Y-56119819D01*
X101836779Y-56119819D02*
X101836779Y-55119819D01*
X102646303Y-55596009D02*
X102979636Y-55596009D01*
X103122493Y-56119819D02*
X102646303Y-56119819D01*
X102646303Y-56119819D02*
X102646303Y-55119819D01*
X102646303Y-55119819D02*
X103122493Y-55119819D01*
X103551065Y-56119819D02*
X103551065Y-55119819D01*
X103551065Y-55119819D02*
X103789160Y-55119819D01*
X103789160Y-55119819D02*
X103932017Y-55167438D01*
X103932017Y-55167438D02*
X104027255Y-55262676D01*
X104027255Y-55262676D02*
X104074874Y-55357914D01*
X104074874Y-55357914D02*
X104122493Y-55548390D01*
X104122493Y-55548390D02*
X104122493Y-55691247D01*
X104122493Y-55691247D02*
X104074874Y-55881723D01*
X104074874Y-55881723D02*
X104027255Y-55976961D01*
X104027255Y-55976961D02*
X103932017Y-56072200D01*
X103932017Y-56072200D02*
X103789160Y-56119819D01*
X103789160Y-56119819D02*
X103551065Y-56119819D01*
X89193922Y-78619819D02*
X89765350Y-78619819D01*
X89479636Y-79619819D02*
X89479636Y-78619819D01*
X90098684Y-79096009D02*
X90432017Y-79096009D01*
X90574874Y-79619819D02*
X90098684Y-79619819D01*
X90098684Y-79619819D02*
X90098684Y-78619819D01*
X90098684Y-78619819D02*
X90574874Y-78619819D01*
X91003446Y-79619819D02*
X91003446Y-78619819D01*
X91003446Y-78619819D02*
X91336779Y-79334104D01*
X91336779Y-79334104D02*
X91670112Y-78619819D01*
X91670112Y-78619819D02*
X91670112Y-79619819D01*
X92146303Y-79619819D02*
X92146303Y-78619819D01*
X92146303Y-78619819D02*
X92527255Y-78619819D01*
X92527255Y-78619819D02*
X92622493Y-78667438D01*
X92622493Y-78667438D02*
X92670112Y-78715057D01*
X92670112Y-78715057D02*
X92717731Y-78810295D01*
X92717731Y-78810295D02*
X92717731Y-78953152D01*
X92717731Y-78953152D02*
X92670112Y-79048390D01*
X92670112Y-79048390D02*
X92622493Y-79096009D01*
X92622493Y-79096009D02*
X92527255Y-79143628D01*
X92527255Y-79143628D02*
X92146303Y-79143628D01*
X104420112Y-78096009D02*
X104562969Y-78143628D01*
X104562969Y-78143628D02*
X104610588Y-78191247D01*
X104610588Y-78191247D02*
X104658207Y-78286485D01*
X104658207Y-78286485D02*
X104658207Y-78429342D01*
X104658207Y-78429342D02*
X104610588Y-78524580D01*
X104610588Y-78524580D02*
X104562969Y-78572200D01*
X104562969Y-78572200D02*
X104467731Y-78619819D01*
X104467731Y-78619819D02*
X104086779Y-78619819D01*
X104086779Y-78619819D02*
X104086779Y-77619819D01*
X104086779Y-77619819D02*
X104420112Y-77619819D01*
X104420112Y-77619819D02*
X104515350Y-77667438D01*
X104515350Y-77667438D02*
X104562969Y-77715057D01*
X104562969Y-77715057D02*
X104610588Y-77810295D01*
X104610588Y-77810295D02*
X104610588Y-77905533D01*
X104610588Y-77905533D02*
X104562969Y-78000771D01*
X104562969Y-78000771D02*
X104515350Y-78048390D01*
X104515350Y-78048390D02*
X104420112Y-78096009D01*
X104420112Y-78096009D02*
X104086779Y-78096009D01*
X105277255Y-77619819D02*
X105467731Y-77619819D01*
X105467731Y-77619819D02*
X105562969Y-77667438D01*
X105562969Y-77667438D02*
X105658207Y-77762676D01*
X105658207Y-77762676D02*
X105705826Y-77953152D01*
X105705826Y-77953152D02*
X105705826Y-78286485D01*
X105705826Y-78286485D02*
X105658207Y-78476961D01*
X105658207Y-78476961D02*
X105562969Y-78572200D01*
X105562969Y-78572200D02*
X105467731Y-78619819D01*
X105467731Y-78619819D02*
X105277255Y-78619819D01*
X105277255Y-78619819D02*
X105182017Y-78572200D01*
X105182017Y-78572200D02*
X105086779Y-78476961D01*
X105086779Y-78476961D02*
X105039160Y-78286485D01*
X105039160Y-78286485D02*
X105039160Y-77953152D01*
X105039160Y-77953152D02*
X105086779Y-77762676D01*
X105086779Y-77762676D02*
X105182017Y-77667438D01*
X105182017Y-77667438D02*
X105277255Y-77619819D01*
X106324874Y-77619819D02*
X106515350Y-77619819D01*
X106515350Y-77619819D02*
X106610588Y-77667438D01*
X106610588Y-77667438D02*
X106705826Y-77762676D01*
X106705826Y-77762676D02*
X106753445Y-77953152D01*
X106753445Y-77953152D02*
X106753445Y-78286485D01*
X106753445Y-78286485D02*
X106705826Y-78476961D01*
X106705826Y-78476961D02*
X106610588Y-78572200D01*
X106610588Y-78572200D02*
X106515350Y-78619819D01*
X106515350Y-78619819D02*
X106324874Y-78619819D01*
X106324874Y-78619819D02*
X106229636Y-78572200D01*
X106229636Y-78572200D02*
X106134398Y-78476961D01*
X106134398Y-78476961D02*
X106086779Y-78286485D01*
X106086779Y-78286485D02*
X106086779Y-77953152D01*
X106086779Y-77953152D02*
X106134398Y-77762676D01*
X106134398Y-77762676D02*
X106229636Y-77667438D01*
X106229636Y-77667438D02*
X106324874Y-77619819D01*
X107039160Y-77619819D02*
X107610588Y-77619819D01*
X107324874Y-78619819D02*
X107324874Y-77619819D01*
X72336779Y-60346009D02*
X72670112Y-60346009D01*
X72812969Y-60869819D02*
X72336779Y-60869819D01*
X72336779Y-60869819D02*
X72336779Y-59869819D01*
X72336779Y-59869819D02*
X72812969Y-59869819D01*
X73241541Y-60869819D02*
X73241541Y-59869819D01*
X73241541Y-59869819D02*
X73812969Y-60869819D01*
X73812969Y-60869819D02*
X73812969Y-59869819D01*
D11*
X60721177Y-83959876D02*
X60530701Y-83864638D01*
X60530701Y-83864638D02*
X60244987Y-83864638D01*
X60244987Y-83864638D02*
X59959272Y-83959876D01*
X59959272Y-83959876D02*
X59768796Y-84150352D01*
X59768796Y-84150352D02*
X59673558Y-84340828D01*
X59673558Y-84340828D02*
X59578320Y-84721780D01*
X59578320Y-84721780D02*
X59578320Y-85007495D01*
X59578320Y-85007495D02*
X59673558Y-85388447D01*
X59673558Y-85388447D02*
X59768796Y-85578923D01*
X59768796Y-85578923D02*
X59959272Y-85769400D01*
X59959272Y-85769400D02*
X60244987Y-85864638D01*
X60244987Y-85864638D02*
X60435463Y-85864638D01*
X60435463Y-85864638D02*
X60721177Y-85769400D01*
X60721177Y-85769400D02*
X60816415Y-85674161D01*
X60816415Y-85674161D02*
X60816415Y-85007495D01*
X60816415Y-85007495D02*
X60435463Y-85007495D01*
X61578320Y-85293209D02*
X62530701Y-85293209D01*
X61387844Y-85864638D02*
X62054510Y-83864638D01*
X62054510Y-83864638D02*
X62721177Y-85864638D01*
X63292606Y-85769400D02*
X63578320Y-85864638D01*
X63578320Y-85864638D02*
X64054511Y-85864638D01*
X64054511Y-85864638D02*
X64244987Y-85769400D01*
X64244987Y-85769400D02*
X64340225Y-85674161D01*
X64340225Y-85674161D02*
X64435463Y-85483685D01*
X64435463Y-85483685D02*
X64435463Y-85293209D01*
X64435463Y-85293209D02*
X64340225Y-85102733D01*
X64340225Y-85102733D02*
X64244987Y-85007495D01*
X64244987Y-85007495D02*
X64054511Y-84912257D01*
X64054511Y-84912257D02*
X63673558Y-84817019D01*
X63673558Y-84817019D02*
X63483082Y-84721780D01*
X63483082Y-84721780D02*
X63387844Y-84626542D01*
X63387844Y-84626542D02*
X63292606Y-84436066D01*
X63292606Y-84436066D02*
X63292606Y-84245590D01*
X63292606Y-84245590D02*
X63387844Y-84055114D01*
X63387844Y-84055114D02*
X63483082Y-83959876D01*
X63483082Y-83959876D02*
X63673558Y-83864638D01*
X63673558Y-83864638D02*
X64149749Y-83864638D01*
X64149749Y-83864638D02*
X64435463Y-83959876D01*
X65006892Y-83864638D02*
X66149749Y-83864638D01*
X65578320Y-85864638D02*
X65578320Y-83864638D01*
X67959273Y-85864638D02*
X67292606Y-84912257D01*
X66816416Y-85864638D02*
X66816416Y-83864638D01*
X66816416Y-83864638D02*
X67578321Y-83864638D01*
X67578321Y-83864638D02*
X67768797Y-83959876D01*
X67768797Y-83959876D02*
X67864035Y-84055114D01*
X67864035Y-84055114D02*
X67959273Y-84245590D01*
X67959273Y-84245590D02*
X67959273Y-84531304D01*
X67959273Y-84531304D02*
X67864035Y-84721780D01*
X67864035Y-84721780D02*
X67768797Y-84817019D01*
X67768797Y-84817019D02*
X67578321Y-84912257D01*
X67578321Y-84912257D02*
X66816416Y-84912257D01*
X69197368Y-83864638D02*
X69578321Y-83864638D01*
X69578321Y-83864638D02*
X69768797Y-83959876D01*
X69768797Y-83959876D02*
X69959273Y-84150352D01*
X69959273Y-84150352D02*
X70054511Y-84531304D01*
X70054511Y-84531304D02*
X70054511Y-85197971D01*
X70054511Y-85197971D02*
X69959273Y-85578923D01*
X69959273Y-85578923D02*
X69768797Y-85769400D01*
X69768797Y-85769400D02*
X69578321Y-85864638D01*
X69578321Y-85864638D02*
X69197368Y-85864638D01*
X69197368Y-85864638D02*
X69006892Y-85769400D01*
X69006892Y-85769400D02*
X68816416Y-85578923D01*
X68816416Y-85578923D02*
X68721178Y-85197971D01*
X68721178Y-85197971D02*
X68721178Y-84531304D01*
X68721178Y-84531304D02*
X68816416Y-84150352D01*
X68816416Y-84150352D02*
X69006892Y-83959876D01*
X69006892Y-83959876D02*
X69197368Y-83864638D01*
X73102131Y-84817019D02*
X72435464Y-84817019D01*
X72435464Y-85864638D02*
X72435464Y-83864638D01*
X72435464Y-83864638D02*
X73387845Y-83864638D01*
X74530702Y-83864638D02*
X74911655Y-83864638D01*
X74911655Y-83864638D02*
X75102131Y-83959876D01*
X75102131Y-83959876D02*
X75292607Y-84150352D01*
X75292607Y-84150352D02*
X75387845Y-84531304D01*
X75387845Y-84531304D02*
X75387845Y-85197971D01*
X75387845Y-85197971D02*
X75292607Y-85578923D01*
X75292607Y-85578923D02*
X75102131Y-85769400D01*
X75102131Y-85769400D02*
X74911655Y-85864638D01*
X74911655Y-85864638D02*
X74530702Y-85864638D01*
X74530702Y-85864638D02*
X74340226Y-85769400D01*
X74340226Y-85769400D02*
X74149750Y-85578923D01*
X74149750Y-85578923D02*
X74054512Y-85197971D01*
X74054512Y-85197971D02*
X74054512Y-84531304D01*
X74054512Y-84531304D02*
X74149750Y-84150352D01*
X74149750Y-84150352D02*
X74340226Y-83959876D01*
X74340226Y-83959876D02*
X74530702Y-83864638D01*
X77387845Y-85674161D02*
X77292607Y-85769400D01*
X77292607Y-85769400D02*
X77006893Y-85864638D01*
X77006893Y-85864638D02*
X76816417Y-85864638D01*
X76816417Y-85864638D02*
X76530702Y-85769400D01*
X76530702Y-85769400D02*
X76340226Y-85578923D01*
X76340226Y-85578923D02*
X76244988Y-85388447D01*
X76244988Y-85388447D02*
X76149750Y-85007495D01*
X76149750Y-85007495D02*
X76149750Y-84721780D01*
X76149750Y-84721780D02*
X76244988Y-84340828D01*
X76244988Y-84340828D02*
X76340226Y-84150352D01*
X76340226Y-84150352D02*
X76530702Y-83959876D01*
X76530702Y-83959876D02*
X76816417Y-83864638D01*
X76816417Y-83864638D02*
X77006893Y-83864638D01*
X77006893Y-83864638D02*
X77292607Y-83959876D01*
X77292607Y-83959876D02*
X77387845Y-84055114D01*
X78149750Y-85293209D02*
X79102131Y-85293209D01*
X77959274Y-85864638D02*
X78625940Y-83864638D01*
X78625940Y-83864638D02*
X79292607Y-85864638D01*
X79959274Y-85864638D02*
X79959274Y-83864638D01*
X79959274Y-83864638D02*
X80721179Y-83864638D01*
X80721179Y-83864638D02*
X80911655Y-83959876D01*
X80911655Y-83959876D02*
X81006893Y-84055114D01*
X81006893Y-84055114D02*
X81102131Y-84245590D01*
X81102131Y-84245590D02*
X81102131Y-84531304D01*
X81102131Y-84531304D02*
X81006893Y-84721780D01*
X81006893Y-84721780D02*
X80911655Y-84817019D01*
X80911655Y-84817019D02*
X80721179Y-84912257D01*
X80721179Y-84912257D02*
X79959274Y-84912257D01*
D10*
X81039580Y-70642857D02*
X81087200Y-70690476D01*
X81087200Y-70690476D02*
X81134819Y-70833333D01*
X81134819Y-70833333D02*
X81134819Y-70928571D01*
X81134819Y-70928571D02*
X81087200Y-71071428D01*
X81087200Y-71071428D02*
X80991961Y-71166666D01*
X80991961Y-71166666D02*
X80896723Y-71214285D01*
X80896723Y-71214285D02*
X80706247Y-71261904D01*
X80706247Y-71261904D02*
X80563390Y-71261904D01*
X80563390Y-71261904D02*
X80372914Y-71214285D01*
X80372914Y-71214285D02*
X80277676Y-71166666D01*
X80277676Y-71166666D02*
X80182438Y-71071428D01*
X80182438Y-71071428D02*
X80134819Y-70928571D01*
X80134819Y-70928571D02*
X80134819Y-70833333D01*
X80134819Y-70833333D02*
X80182438Y-70690476D01*
X80182438Y-70690476D02*
X80230057Y-70642857D01*
X81134819Y-69690476D02*
X81134819Y-70261904D01*
X81134819Y-69976190D02*
X80134819Y-69976190D01*
X80134819Y-69976190D02*
X80277676Y-70071428D01*
X80277676Y-70071428D02*
X80372914Y-70166666D01*
X80372914Y-70166666D02*
X80420533Y-70261904D01*
X81134819Y-68738095D02*
X81134819Y-69309523D01*
X81134819Y-69023809D02*
X80134819Y-69023809D01*
X80134819Y-69023809D02*
X80277676Y-69119047D01*
X80277676Y-69119047D02*
X80372914Y-69214285D01*
X80372914Y-69214285D02*
X80420533Y-69309523D01*
X79607142Y-81359580D02*
X79559523Y-81407200D01*
X79559523Y-81407200D02*
X79416666Y-81454819D01*
X79416666Y-81454819D02*
X79321428Y-81454819D01*
X79321428Y-81454819D02*
X79178571Y-81407200D01*
X79178571Y-81407200D02*
X79083333Y-81311961D01*
X79083333Y-81311961D02*
X79035714Y-81216723D01*
X79035714Y-81216723D02*
X78988095Y-81026247D01*
X78988095Y-81026247D02*
X78988095Y-80883390D01*
X78988095Y-80883390D02*
X79035714Y-80692914D01*
X79035714Y-80692914D02*
X79083333Y-80597676D01*
X79083333Y-80597676D02*
X79178571Y-80502438D01*
X79178571Y-80502438D02*
X79321428Y-80454819D01*
X79321428Y-80454819D02*
X79416666Y-80454819D01*
X79416666Y-80454819D02*
X79559523Y-80502438D01*
X79559523Y-80502438D02*
X79607142Y-80550057D01*
X80559523Y-81454819D02*
X79988095Y-81454819D01*
X80273809Y-81454819D02*
X80273809Y-80454819D01*
X80273809Y-80454819D02*
X80178571Y-80597676D01*
X80178571Y-80597676D02*
X80083333Y-80692914D01*
X80083333Y-80692914D02*
X79988095Y-80740533D01*
X81035714Y-81454819D02*
X81226190Y-81454819D01*
X81226190Y-81454819D02*
X81321428Y-81407200D01*
X81321428Y-81407200D02*
X81369047Y-81359580D01*
X81369047Y-81359580D02*
X81464285Y-81216723D01*
X81464285Y-81216723D02*
X81511904Y-81026247D01*
X81511904Y-81026247D02*
X81511904Y-80645295D01*
X81511904Y-80645295D02*
X81464285Y-80550057D01*
X81464285Y-80550057D02*
X81416666Y-80502438D01*
X81416666Y-80502438D02*
X81321428Y-80454819D01*
X81321428Y-80454819D02*
X81130952Y-80454819D01*
X81130952Y-80454819D02*
X81035714Y-80502438D01*
X81035714Y-80502438D02*
X80988095Y-80550057D01*
X80988095Y-80550057D02*
X80940476Y-80645295D01*
X80940476Y-80645295D02*
X80940476Y-80883390D01*
X80940476Y-80883390D02*
X80988095Y-80978628D01*
X80988095Y-80978628D02*
X81035714Y-81026247D01*
X81035714Y-81026247D02*
X81130952Y-81073866D01*
X81130952Y-81073866D02*
X81321428Y-81073866D01*
X81321428Y-81073866D02*
X81416666Y-81026247D01*
X81416666Y-81026247D02*
X81464285Y-80978628D01*
X81464285Y-80978628D02*
X81511904Y-80883390D01*
X122083333Y-64359580D02*
X122035714Y-64407200D01*
X122035714Y-64407200D02*
X121892857Y-64454819D01*
X121892857Y-64454819D02*
X121797619Y-64454819D01*
X121797619Y-64454819D02*
X121654762Y-64407200D01*
X121654762Y-64407200D02*
X121559524Y-64311961D01*
X121559524Y-64311961D02*
X121511905Y-64216723D01*
X121511905Y-64216723D02*
X121464286Y-64026247D01*
X121464286Y-64026247D02*
X121464286Y-63883390D01*
X121464286Y-63883390D02*
X121511905Y-63692914D01*
X121511905Y-63692914D02*
X121559524Y-63597676D01*
X121559524Y-63597676D02*
X121654762Y-63502438D01*
X121654762Y-63502438D02*
X121797619Y-63454819D01*
X121797619Y-63454819D02*
X121892857Y-63454819D01*
X121892857Y-63454819D02*
X122035714Y-63502438D01*
X122035714Y-63502438D02*
X122083333Y-63550057D01*
X122559524Y-64454819D02*
X122750000Y-64454819D01*
X122750000Y-64454819D02*
X122845238Y-64407200D01*
X122845238Y-64407200D02*
X122892857Y-64359580D01*
X122892857Y-64359580D02*
X122988095Y-64216723D01*
X122988095Y-64216723D02*
X123035714Y-64026247D01*
X123035714Y-64026247D02*
X123035714Y-63645295D01*
X123035714Y-63645295D02*
X122988095Y-63550057D01*
X122988095Y-63550057D02*
X122940476Y-63502438D01*
X122940476Y-63502438D02*
X122845238Y-63454819D01*
X122845238Y-63454819D02*
X122654762Y-63454819D01*
X122654762Y-63454819D02*
X122559524Y-63502438D01*
X122559524Y-63502438D02*
X122511905Y-63550057D01*
X122511905Y-63550057D02*
X122464286Y-63645295D01*
X122464286Y-63645295D02*
X122464286Y-63883390D01*
X122464286Y-63883390D02*
X122511905Y-63978628D01*
X122511905Y-63978628D02*
X122559524Y-64026247D01*
X122559524Y-64026247D02*
X122654762Y-64073866D01*
X122654762Y-64073866D02*
X122845238Y-64073866D01*
X122845238Y-64073866D02*
X122940476Y-64026247D01*
X122940476Y-64026247D02*
X122988095Y-63978628D01*
X122988095Y-63978628D02*
X123035714Y-63883390D01*
X116359580Y-65916666D02*
X116407200Y-65964285D01*
X116407200Y-65964285D02*
X116454819Y-66107142D01*
X116454819Y-66107142D02*
X116454819Y-66202380D01*
X116454819Y-66202380D02*
X116407200Y-66345237D01*
X116407200Y-66345237D02*
X116311961Y-66440475D01*
X116311961Y-66440475D02*
X116216723Y-66488094D01*
X116216723Y-66488094D02*
X116026247Y-66535713D01*
X116026247Y-66535713D02*
X115883390Y-66535713D01*
X115883390Y-66535713D02*
X115692914Y-66488094D01*
X115692914Y-66488094D02*
X115597676Y-66440475D01*
X115597676Y-66440475D02*
X115502438Y-66345237D01*
X115502438Y-66345237D02*
X115454819Y-66202380D01*
X115454819Y-66202380D02*
X115454819Y-66107142D01*
X115454819Y-66107142D02*
X115502438Y-65964285D01*
X115502438Y-65964285D02*
X115550057Y-65916666D01*
X115883390Y-65345237D02*
X115835771Y-65440475D01*
X115835771Y-65440475D02*
X115788152Y-65488094D01*
X115788152Y-65488094D02*
X115692914Y-65535713D01*
X115692914Y-65535713D02*
X115645295Y-65535713D01*
X115645295Y-65535713D02*
X115550057Y-65488094D01*
X115550057Y-65488094D02*
X115502438Y-65440475D01*
X115502438Y-65440475D02*
X115454819Y-65345237D01*
X115454819Y-65345237D02*
X115454819Y-65154761D01*
X115454819Y-65154761D02*
X115502438Y-65059523D01*
X115502438Y-65059523D02*
X115550057Y-65011904D01*
X115550057Y-65011904D02*
X115645295Y-64964285D01*
X115645295Y-64964285D02*
X115692914Y-64964285D01*
X115692914Y-64964285D02*
X115788152Y-65011904D01*
X115788152Y-65011904D02*
X115835771Y-65059523D01*
X115835771Y-65059523D02*
X115883390Y-65154761D01*
X115883390Y-65154761D02*
X115883390Y-65345237D01*
X115883390Y-65345237D02*
X115931009Y-65440475D01*
X115931009Y-65440475D02*
X115978628Y-65488094D01*
X115978628Y-65488094D02*
X116073866Y-65535713D01*
X116073866Y-65535713D02*
X116264342Y-65535713D01*
X116264342Y-65535713D02*
X116359580Y-65488094D01*
X116359580Y-65488094D02*
X116407200Y-65440475D01*
X116407200Y-65440475D02*
X116454819Y-65345237D01*
X116454819Y-65345237D02*
X116454819Y-65154761D01*
X116454819Y-65154761D02*
X116407200Y-65059523D01*
X116407200Y-65059523D02*
X116359580Y-65011904D01*
X116359580Y-65011904D02*
X116264342Y-64964285D01*
X116264342Y-64964285D02*
X116073866Y-64964285D01*
X116073866Y-64964285D02*
X115978628Y-65011904D01*
X115978628Y-65011904D02*
X115931009Y-65059523D01*
X115931009Y-65059523D02*
X115883390Y-65154761D01*
X115238095Y-57204819D02*
X115238095Y-58014342D01*
X115238095Y-58014342D02*
X115285714Y-58109580D01*
X115285714Y-58109580D02*
X115333333Y-58157200D01*
X115333333Y-58157200D02*
X115428571Y-58204819D01*
X115428571Y-58204819D02*
X115619047Y-58204819D01*
X115619047Y-58204819D02*
X115714285Y-58157200D01*
X115714285Y-58157200D02*
X115761904Y-58109580D01*
X115761904Y-58109580D02*
X115809523Y-58014342D01*
X115809523Y-58014342D02*
X115809523Y-57204819D01*
X116714285Y-57538152D02*
X116714285Y-58204819D01*
X116476190Y-57157200D02*
X116238095Y-57871485D01*
X116238095Y-57871485D02*
X116857142Y-57871485D01*
X116704819Y-68642857D02*
X116228628Y-68976190D01*
X116704819Y-69214285D02*
X115704819Y-69214285D01*
X115704819Y-69214285D02*
X115704819Y-68833333D01*
X115704819Y-68833333D02*
X115752438Y-68738095D01*
X115752438Y-68738095D02*
X115800057Y-68690476D01*
X115800057Y-68690476D02*
X115895295Y-68642857D01*
X115895295Y-68642857D02*
X116038152Y-68642857D01*
X116038152Y-68642857D02*
X116133390Y-68690476D01*
X116133390Y-68690476D02*
X116181009Y-68738095D01*
X116181009Y-68738095D02*
X116228628Y-68833333D01*
X116228628Y-68833333D02*
X116228628Y-69214285D01*
X116704819Y-67690476D02*
X116704819Y-68261904D01*
X116704819Y-67976190D02*
X115704819Y-67976190D01*
X115704819Y-67976190D02*
X115847676Y-68071428D01*
X115847676Y-68071428D02*
X115942914Y-68166666D01*
X115942914Y-68166666D02*
X115990533Y-68261904D01*
X115704819Y-67071428D02*
X115704819Y-66976190D01*
X115704819Y-66976190D02*
X115752438Y-66880952D01*
X115752438Y-66880952D02*
X115800057Y-66833333D01*
X115800057Y-66833333D02*
X115895295Y-66785714D01*
X115895295Y-66785714D02*
X116085771Y-66738095D01*
X116085771Y-66738095D02*
X116323866Y-66738095D01*
X116323866Y-66738095D02*
X116514342Y-66785714D01*
X116514342Y-66785714D02*
X116609580Y-66833333D01*
X116609580Y-66833333D02*
X116657200Y-66880952D01*
X116657200Y-66880952D02*
X116704819Y-66976190D01*
X116704819Y-66976190D02*
X116704819Y-67071428D01*
X116704819Y-67071428D02*
X116657200Y-67166666D01*
X116657200Y-67166666D02*
X116609580Y-67214285D01*
X116609580Y-67214285D02*
X116514342Y-67261904D01*
X116514342Y-67261904D02*
X116323866Y-67309523D01*
X116323866Y-67309523D02*
X116085771Y-67309523D01*
X116085771Y-67309523D02*
X115895295Y-67261904D01*
X115895295Y-67261904D02*
X115800057Y-67214285D01*
X115800057Y-67214285D02*
X115752438Y-67166666D01*
X115752438Y-67166666D02*
X115704819Y-67071428D01*
X110357142Y-65204819D02*
X110023809Y-64728628D01*
X109785714Y-65204819D02*
X109785714Y-64204819D01*
X109785714Y-64204819D02*
X110166666Y-64204819D01*
X110166666Y-64204819D02*
X110261904Y-64252438D01*
X110261904Y-64252438D02*
X110309523Y-64300057D01*
X110309523Y-64300057D02*
X110357142Y-64395295D01*
X110357142Y-64395295D02*
X110357142Y-64538152D01*
X110357142Y-64538152D02*
X110309523Y-64633390D01*
X110309523Y-64633390D02*
X110261904Y-64681009D01*
X110261904Y-64681009D02*
X110166666Y-64728628D01*
X110166666Y-64728628D02*
X109785714Y-64728628D01*
X111309523Y-65204819D02*
X110738095Y-65204819D01*
X111023809Y-65204819D02*
X111023809Y-64204819D01*
X111023809Y-64204819D02*
X110928571Y-64347676D01*
X110928571Y-64347676D02*
X110833333Y-64442914D01*
X110833333Y-64442914D02*
X110738095Y-64490533D01*
X112261904Y-65204819D02*
X111690476Y-65204819D01*
X111976190Y-65204819D02*
X111976190Y-64204819D01*
X111976190Y-64204819D02*
X111880952Y-64347676D01*
X111880952Y-64347676D02*
X111785714Y-64442914D01*
X111785714Y-64442914D02*
X111690476Y-64490533D01*
X120083333Y-50704819D02*
X119607143Y-50704819D01*
X119607143Y-50704819D02*
X119607143Y-49704819D01*
X120940476Y-50704819D02*
X120369048Y-50704819D01*
X120654762Y-50704819D02*
X120654762Y-49704819D01*
X120654762Y-49704819D02*
X120559524Y-49847676D01*
X120559524Y-49847676D02*
X120464286Y-49942914D01*
X120464286Y-49942914D02*
X120369048Y-49990533D01*
X111704819Y-61238094D02*
X110704819Y-61238094D01*
X110704819Y-61238094D02*
X110704819Y-60999999D01*
X110704819Y-60999999D02*
X110752438Y-60857142D01*
X110752438Y-60857142D02*
X110847676Y-60761904D01*
X110847676Y-60761904D02*
X110942914Y-60714285D01*
X110942914Y-60714285D02*
X111133390Y-60666666D01*
X111133390Y-60666666D02*
X111276247Y-60666666D01*
X111276247Y-60666666D02*
X111466723Y-60714285D01*
X111466723Y-60714285D02*
X111561961Y-60761904D01*
X111561961Y-60761904D02*
X111657200Y-60857142D01*
X111657200Y-60857142D02*
X111704819Y-60999999D01*
X111704819Y-60999999D02*
X111704819Y-61238094D01*
X111038152Y-59809523D02*
X111704819Y-59809523D01*
X110657200Y-60047618D02*
X111371485Y-60285713D01*
X111371485Y-60285713D02*
X111371485Y-59666666D01*
X122789580Y-61666666D02*
X122837200Y-61714285D01*
X122837200Y-61714285D02*
X122884819Y-61857142D01*
X122884819Y-61857142D02*
X122884819Y-61952380D01*
X122884819Y-61952380D02*
X122837200Y-62095237D01*
X122837200Y-62095237D02*
X122741961Y-62190475D01*
X122741961Y-62190475D02*
X122646723Y-62238094D01*
X122646723Y-62238094D02*
X122456247Y-62285713D01*
X122456247Y-62285713D02*
X122313390Y-62285713D01*
X122313390Y-62285713D02*
X122122914Y-62238094D01*
X122122914Y-62238094D02*
X122027676Y-62190475D01*
X122027676Y-62190475D02*
X121932438Y-62095237D01*
X121932438Y-62095237D02*
X121884819Y-61952380D01*
X121884819Y-61952380D02*
X121884819Y-61857142D01*
X121884819Y-61857142D02*
X121932438Y-61714285D01*
X121932438Y-61714285D02*
X121980057Y-61666666D01*
X121884819Y-60809523D02*
X121884819Y-60999999D01*
X121884819Y-60999999D02*
X121932438Y-61095237D01*
X121932438Y-61095237D02*
X121980057Y-61142856D01*
X121980057Y-61142856D02*
X122122914Y-61238094D01*
X122122914Y-61238094D02*
X122313390Y-61285713D01*
X122313390Y-61285713D02*
X122694342Y-61285713D01*
X122694342Y-61285713D02*
X122789580Y-61238094D01*
X122789580Y-61238094D02*
X122837200Y-61190475D01*
X122837200Y-61190475D02*
X122884819Y-61095237D01*
X122884819Y-61095237D02*
X122884819Y-60904761D01*
X122884819Y-60904761D02*
X122837200Y-60809523D01*
X122837200Y-60809523D02*
X122789580Y-60761904D01*
X122789580Y-60761904D02*
X122694342Y-60714285D01*
X122694342Y-60714285D02*
X122456247Y-60714285D01*
X122456247Y-60714285D02*
X122361009Y-60761904D01*
X122361009Y-60761904D02*
X122313390Y-60809523D01*
X122313390Y-60809523D02*
X122265771Y-60904761D01*
X122265771Y-60904761D02*
X122265771Y-61095237D01*
X122265771Y-61095237D02*
X122313390Y-61190475D01*
X122313390Y-61190475D02*
X122361009Y-61238094D01*
X122361009Y-61238094D02*
X122456247Y-61285713D01*
X110083333Y-74109580D02*
X110035714Y-74157200D01*
X110035714Y-74157200D02*
X109892857Y-74204819D01*
X109892857Y-74204819D02*
X109797619Y-74204819D01*
X109797619Y-74204819D02*
X109654762Y-74157200D01*
X109654762Y-74157200D02*
X109559524Y-74061961D01*
X109559524Y-74061961D02*
X109511905Y-73966723D01*
X109511905Y-73966723D02*
X109464286Y-73776247D01*
X109464286Y-73776247D02*
X109464286Y-73633390D01*
X109464286Y-73633390D02*
X109511905Y-73442914D01*
X109511905Y-73442914D02*
X109559524Y-73347676D01*
X109559524Y-73347676D02*
X109654762Y-73252438D01*
X109654762Y-73252438D02*
X109797619Y-73204819D01*
X109797619Y-73204819D02*
X109892857Y-73204819D01*
X109892857Y-73204819D02*
X110035714Y-73252438D01*
X110035714Y-73252438D02*
X110083333Y-73300057D01*
X110416667Y-73204819D02*
X111083333Y-73204819D01*
X111083333Y-73204819D02*
X110654762Y-74204819D01*
X113833333Y-56109580D02*
X113785714Y-56157200D01*
X113785714Y-56157200D02*
X113642857Y-56204819D01*
X113642857Y-56204819D02*
X113547619Y-56204819D01*
X113547619Y-56204819D02*
X113404762Y-56157200D01*
X113404762Y-56157200D02*
X113309524Y-56061961D01*
X113309524Y-56061961D02*
X113261905Y-55966723D01*
X113261905Y-55966723D02*
X113214286Y-55776247D01*
X113214286Y-55776247D02*
X113214286Y-55633390D01*
X113214286Y-55633390D02*
X113261905Y-55442914D01*
X113261905Y-55442914D02*
X113309524Y-55347676D01*
X113309524Y-55347676D02*
X113404762Y-55252438D01*
X113404762Y-55252438D02*
X113547619Y-55204819D01*
X113547619Y-55204819D02*
X113642857Y-55204819D01*
X113642857Y-55204819D02*
X113785714Y-55252438D01*
X113785714Y-55252438D02*
X113833333Y-55300057D01*
X114738095Y-55204819D02*
X114261905Y-55204819D01*
X114261905Y-55204819D02*
X114214286Y-55681009D01*
X114214286Y-55681009D02*
X114261905Y-55633390D01*
X114261905Y-55633390D02*
X114357143Y-55585771D01*
X114357143Y-55585771D02*
X114595238Y-55585771D01*
X114595238Y-55585771D02*
X114690476Y-55633390D01*
X114690476Y-55633390D02*
X114738095Y-55681009D01*
X114738095Y-55681009D02*
X114785714Y-55776247D01*
X114785714Y-55776247D02*
X114785714Y-56014342D01*
X114785714Y-56014342D02*
X114738095Y-56109580D01*
X114738095Y-56109580D02*
X114690476Y-56157200D01*
X114690476Y-56157200D02*
X114595238Y-56204819D01*
X114595238Y-56204819D02*
X114357143Y-56204819D01*
X114357143Y-56204819D02*
X114261905Y-56157200D01*
X114261905Y-56157200D02*
X114214286Y-56109580D01*
X106833333Y-56204819D02*
X106500000Y-55728628D01*
X106261905Y-56204819D02*
X106261905Y-55204819D01*
X106261905Y-55204819D02*
X106642857Y-55204819D01*
X106642857Y-55204819D02*
X106738095Y-55252438D01*
X106738095Y-55252438D02*
X106785714Y-55300057D01*
X106785714Y-55300057D02*
X106833333Y-55395295D01*
X106833333Y-55395295D02*
X106833333Y-55538152D01*
X106833333Y-55538152D02*
X106785714Y-55633390D01*
X106785714Y-55633390D02*
X106738095Y-55681009D01*
X106738095Y-55681009D02*
X106642857Y-55728628D01*
X106642857Y-55728628D02*
X106261905Y-55728628D01*
X107690476Y-55538152D02*
X107690476Y-56204819D01*
X107452381Y-55157200D02*
X107214286Y-55871485D01*
X107214286Y-55871485D02*
X107833333Y-55871485D01*
X79011905Y-51704819D02*
X79011905Y-50704819D01*
X79011905Y-50704819D02*
X79250000Y-50704819D01*
X79250000Y-50704819D02*
X79392857Y-50752438D01*
X79392857Y-50752438D02*
X79488095Y-50847676D01*
X79488095Y-50847676D02*
X79535714Y-50942914D01*
X79535714Y-50942914D02*
X79583333Y-51133390D01*
X79583333Y-51133390D02*
X79583333Y-51276247D01*
X79583333Y-51276247D02*
X79535714Y-51466723D01*
X79535714Y-51466723D02*
X79488095Y-51561961D01*
X79488095Y-51561961D02*
X79392857Y-51657200D01*
X79392857Y-51657200D02*
X79250000Y-51704819D01*
X79250000Y-51704819D02*
X79011905Y-51704819D01*
X80488095Y-50704819D02*
X80011905Y-50704819D01*
X80011905Y-50704819D02*
X79964286Y-51181009D01*
X79964286Y-51181009D02*
X80011905Y-51133390D01*
X80011905Y-51133390D02*
X80107143Y-51085771D01*
X80107143Y-51085771D02*
X80345238Y-51085771D01*
X80345238Y-51085771D02*
X80440476Y-51133390D01*
X80440476Y-51133390D02*
X80488095Y-51181009D01*
X80488095Y-51181009D02*
X80535714Y-51276247D01*
X80535714Y-51276247D02*
X80535714Y-51514342D01*
X80535714Y-51514342D02*
X80488095Y-51609580D01*
X80488095Y-51609580D02*
X80440476Y-51657200D01*
X80440476Y-51657200D02*
X80345238Y-51704819D01*
X80345238Y-51704819D02*
X80107143Y-51704819D01*
X80107143Y-51704819D02*
X80011905Y-51657200D01*
X80011905Y-51657200D02*
X79964286Y-51609580D01*
X67434819Y-40283333D02*
X68149104Y-40283333D01*
X68149104Y-40283333D02*
X68291961Y-40330952D01*
X68291961Y-40330952D02*
X68387200Y-40426190D01*
X68387200Y-40426190D02*
X68434819Y-40569047D01*
X68434819Y-40569047D02*
X68434819Y-40664285D01*
X67434819Y-39330952D02*
X67434819Y-39807142D01*
X67434819Y-39807142D02*
X67911009Y-39854761D01*
X67911009Y-39854761D02*
X67863390Y-39807142D01*
X67863390Y-39807142D02*
X67815771Y-39711904D01*
X67815771Y-39711904D02*
X67815771Y-39473809D01*
X67815771Y-39473809D02*
X67863390Y-39378571D01*
X67863390Y-39378571D02*
X67911009Y-39330952D01*
X67911009Y-39330952D02*
X68006247Y-39283333D01*
X68006247Y-39283333D02*
X68244342Y-39283333D01*
X68244342Y-39283333D02*
X68339580Y-39330952D01*
X68339580Y-39330952D02*
X68387200Y-39378571D01*
X68387200Y-39378571D02*
X68434819Y-39473809D01*
X68434819Y-39473809D02*
X68434819Y-39711904D01*
X68434819Y-39711904D02*
X68387200Y-39807142D01*
X68387200Y-39807142D02*
X68339580Y-39854761D01*
X82039580Y-78292857D02*
X82087200Y-78340476D01*
X82087200Y-78340476D02*
X82134819Y-78483333D01*
X82134819Y-78483333D02*
X82134819Y-78578571D01*
X82134819Y-78578571D02*
X82087200Y-78721428D01*
X82087200Y-78721428D02*
X81991961Y-78816666D01*
X81991961Y-78816666D02*
X81896723Y-78864285D01*
X81896723Y-78864285D02*
X81706247Y-78911904D01*
X81706247Y-78911904D02*
X81563390Y-78911904D01*
X81563390Y-78911904D02*
X81372914Y-78864285D01*
X81372914Y-78864285D02*
X81277676Y-78816666D01*
X81277676Y-78816666D02*
X81182438Y-78721428D01*
X81182438Y-78721428D02*
X81134819Y-78578571D01*
X81134819Y-78578571D02*
X81134819Y-78483333D01*
X81134819Y-78483333D02*
X81182438Y-78340476D01*
X81182438Y-78340476D02*
X81230057Y-78292857D01*
X82134819Y-77340476D02*
X82134819Y-77911904D01*
X82134819Y-77626190D02*
X81134819Y-77626190D01*
X81134819Y-77626190D02*
X81277676Y-77721428D01*
X81277676Y-77721428D02*
X81372914Y-77816666D01*
X81372914Y-77816666D02*
X81420533Y-77911904D01*
X81134819Y-77007142D02*
X81134819Y-76340476D01*
X81134819Y-76340476D02*
X82134819Y-76769047D01*
X75857142Y-69484580D02*
X75809523Y-69532200D01*
X75809523Y-69532200D02*
X75666666Y-69579819D01*
X75666666Y-69579819D02*
X75571428Y-69579819D01*
X75571428Y-69579819D02*
X75428571Y-69532200D01*
X75428571Y-69532200D02*
X75333333Y-69436961D01*
X75333333Y-69436961D02*
X75285714Y-69341723D01*
X75285714Y-69341723D02*
X75238095Y-69151247D01*
X75238095Y-69151247D02*
X75238095Y-69008390D01*
X75238095Y-69008390D02*
X75285714Y-68817914D01*
X75285714Y-68817914D02*
X75333333Y-68722676D01*
X75333333Y-68722676D02*
X75428571Y-68627438D01*
X75428571Y-68627438D02*
X75571428Y-68579819D01*
X75571428Y-68579819D02*
X75666666Y-68579819D01*
X75666666Y-68579819D02*
X75809523Y-68627438D01*
X75809523Y-68627438D02*
X75857142Y-68675057D01*
X76809523Y-69579819D02*
X76238095Y-69579819D01*
X76523809Y-69579819D02*
X76523809Y-68579819D01*
X76523809Y-68579819D02*
X76428571Y-68722676D01*
X76428571Y-68722676D02*
X76333333Y-68817914D01*
X76333333Y-68817914D02*
X76238095Y-68865533D01*
X77666666Y-68913152D02*
X77666666Y-69579819D01*
X77428571Y-68532200D02*
X77190476Y-69246485D01*
X77190476Y-69246485D02*
X77809523Y-69246485D01*
X75307142Y-71534580D02*
X75259523Y-71582200D01*
X75259523Y-71582200D02*
X75116666Y-71629819D01*
X75116666Y-71629819D02*
X75021428Y-71629819D01*
X75021428Y-71629819D02*
X74878571Y-71582200D01*
X74878571Y-71582200D02*
X74783333Y-71486961D01*
X74783333Y-71486961D02*
X74735714Y-71391723D01*
X74735714Y-71391723D02*
X74688095Y-71201247D01*
X74688095Y-71201247D02*
X74688095Y-71058390D01*
X74688095Y-71058390D02*
X74735714Y-70867914D01*
X74735714Y-70867914D02*
X74783333Y-70772676D01*
X74783333Y-70772676D02*
X74878571Y-70677438D01*
X74878571Y-70677438D02*
X75021428Y-70629819D01*
X75021428Y-70629819D02*
X75116666Y-70629819D01*
X75116666Y-70629819D02*
X75259523Y-70677438D01*
X75259523Y-70677438D02*
X75307142Y-70725057D01*
X76259523Y-71629819D02*
X75688095Y-71629819D01*
X75973809Y-71629819D02*
X75973809Y-70629819D01*
X75973809Y-70629819D02*
X75878571Y-70772676D01*
X75878571Y-70772676D02*
X75783333Y-70867914D01*
X75783333Y-70867914D02*
X75688095Y-70915533D01*
X76592857Y-70629819D02*
X77211904Y-70629819D01*
X77211904Y-70629819D02*
X76878571Y-71010771D01*
X76878571Y-71010771D02*
X77021428Y-71010771D01*
X77021428Y-71010771D02*
X77116666Y-71058390D01*
X77116666Y-71058390D02*
X77164285Y-71106009D01*
X77164285Y-71106009D02*
X77211904Y-71201247D01*
X77211904Y-71201247D02*
X77211904Y-71439342D01*
X77211904Y-71439342D02*
X77164285Y-71534580D01*
X77164285Y-71534580D02*
X77116666Y-71582200D01*
X77116666Y-71582200D02*
X77021428Y-71629819D01*
X77021428Y-71629819D02*
X76735714Y-71629819D01*
X76735714Y-71629819D02*
X76640476Y-71582200D01*
X76640476Y-71582200D02*
X76592857Y-71534580D01*
X81607142Y-61414580D02*
X81559523Y-61462200D01*
X81559523Y-61462200D02*
X81416666Y-61509819D01*
X81416666Y-61509819D02*
X81321428Y-61509819D01*
X81321428Y-61509819D02*
X81178571Y-61462200D01*
X81178571Y-61462200D02*
X81083333Y-61366961D01*
X81083333Y-61366961D02*
X81035714Y-61271723D01*
X81035714Y-61271723D02*
X80988095Y-61081247D01*
X80988095Y-61081247D02*
X80988095Y-60938390D01*
X80988095Y-60938390D02*
X81035714Y-60747914D01*
X81035714Y-60747914D02*
X81083333Y-60652676D01*
X81083333Y-60652676D02*
X81178571Y-60557438D01*
X81178571Y-60557438D02*
X81321428Y-60509819D01*
X81321428Y-60509819D02*
X81416666Y-60509819D01*
X81416666Y-60509819D02*
X81559523Y-60557438D01*
X81559523Y-60557438D02*
X81607142Y-60605057D01*
X81988095Y-60605057D02*
X82035714Y-60557438D01*
X82035714Y-60557438D02*
X82130952Y-60509819D01*
X82130952Y-60509819D02*
X82369047Y-60509819D01*
X82369047Y-60509819D02*
X82464285Y-60557438D01*
X82464285Y-60557438D02*
X82511904Y-60605057D01*
X82511904Y-60605057D02*
X82559523Y-60700295D01*
X82559523Y-60700295D02*
X82559523Y-60795533D01*
X82559523Y-60795533D02*
X82511904Y-60938390D01*
X82511904Y-60938390D02*
X81940476Y-61509819D01*
X81940476Y-61509819D02*
X82559523Y-61509819D01*
X82892857Y-60509819D02*
X83511904Y-60509819D01*
X83511904Y-60509819D02*
X83178571Y-60890771D01*
X83178571Y-60890771D02*
X83321428Y-60890771D01*
X83321428Y-60890771D02*
X83416666Y-60938390D01*
X83416666Y-60938390D02*
X83464285Y-60986009D01*
X83464285Y-60986009D02*
X83511904Y-61081247D01*
X83511904Y-61081247D02*
X83511904Y-61319342D01*
X83511904Y-61319342D02*
X83464285Y-61414580D01*
X83464285Y-61414580D02*
X83416666Y-61462200D01*
X83416666Y-61462200D02*
X83321428Y-61509819D01*
X83321428Y-61509819D02*
X83035714Y-61509819D01*
X83035714Y-61509819D02*
X82940476Y-61462200D01*
X82940476Y-61462200D02*
X82892857Y-61414580D01*
X80607142Y-56734580D02*
X80559523Y-56782200D01*
X80559523Y-56782200D02*
X80416666Y-56829819D01*
X80416666Y-56829819D02*
X80321428Y-56829819D01*
X80321428Y-56829819D02*
X80178571Y-56782200D01*
X80178571Y-56782200D02*
X80083333Y-56686961D01*
X80083333Y-56686961D02*
X80035714Y-56591723D01*
X80035714Y-56591723D02*
X79988095Y-56401247D01*
X79988095Y-56401247D02*
X79988095Y-56258390D01*
X79988095Y-56258390D02*
X80035714Y-56067914D01*
X80035714Y-56067914D02*
X80083333Y-55972676D01*
X80083333Y-55972676D02*
X80178571Y-55877438D01*
X80178571Y-55877438D02*
X80321428Y-55829819D01*
X80321428Y-55829819D02*
X80416666Y-55829819D01*
X80416666Y-55829819D02*
X80559523Y-55877438D01*
X80559523Y-55877438D02*
X80607142Y-55925057D01*
X80988095Y-55925057D02*
X81035714Y-55877438D01*
X81035714Y-55877438D02*
X81130952Y-55829819D01*
X81130952Y-55829819D02*
X81369047Y-55829819D01*
X81369047Y-55829819D02*
X81464285Y-55877438D01*
X81464285Y-55877438D02*
X81511904Y-55925057D01*
X81511904Y-55925057D02*
X81559523Y-56020295D01*
X81559523Y-56020295D02*
X81559523Y-56115533D01*
X81559523Y-56115533D02*
X81511904Y-56258390D01*
X81511904Y-56258390D02*
X80940476Y-56829819D01*
X80940476Y-56829819D02*
X81559523Y-56829819D01*
X81940476Y-55925057D02*
X81988095Y-55877438D01*
X81988095Y-55877438D02*
X82083333Y-55829819D01*
X82083333Y-55829819D02*
X82321428Y-55829819D01*
X82321428Y-55829819D02*
X82416666Y-55877438D01*
X82416666Y-55877438D02*
X82464285Y-55925057D01*
X82464285Y-55925057D02*
X82511904Y-56020295D01*
X82511904Y-56020295D02*
X82511904Y-56115533D01*
X82511904Y-56115533D02*
X82464285Y-56258390D01*
X82464285Y-56258390D02*
X81892857Y-56829819D01*
X81892857Y-56829819D02*
X82511904Y-56829819D01*
X84859580Y-54517857D02*
X84907200Y-54565476D01*
X84907200Y-54565476D02*
X84954819Y-54708333D01*
X84954819Y-54708333D02*
X84954819Y-54803571D01*
X84954819Y-54803571D02*
X84907200Y-54946428D01*
X84907200Y-54946428D02*
X84811961Y-55041666D01*
X84811961Y-55041666D02*
X84716723Y-55089285D01*
X84716723Y-55089285D02*
X84526247Y-55136904D01*
X84526247Y-55136904D02*
X84383390Y-55136904D01*
X84383390Y-55136904D02*
X84192914Y-55089285D01*
X84192914Y-55089285D02*
X84097676Y-55041666D01*
X84097676Y-55041666D02*
X84002438Y-54946428D01*
X84002438Y-54946428D02*
X83954819Y-54803571D01*
X83954819Y-54803571D02*
X83954819Y-54708333D01*
X83954819Y-54708333D02*
X84002438Y-54565476D01*
X84002438Y-54565476D02*
X84050057Y-54517857D01*
X84050057Y-54136904D02*
X84002438Y-54089285D01*
X84002438Y-54089285D02*
X83954819Y-53994047D01*
X83954819Y-53994047D02*
X83954819Y-53755952D01*
X83954819Y-53755952D02*
X84002438Y-53660714D01*
X84002438Y-53660714D02*
X84050057Y-53613095D01*
X84050057Y-53613095D02*
X84145295Y-53565476D01*
X84145295Y-53565476D02*
X84240533Y-53565476D01*
X84240533Y-53565476D02*
X84383390Y-53613095D01*
X84383390Y-53613095D02*
X84954819Y-54184523D01*
X84954819Y-54184523D02*
X84954819Y-53565476D01*
X84954819Y-52613095D02*
X84954819Y-53184523D01*
X84954819Y-52898809D02*
X83954819Y-52898809D01*
X83954819Y-52898809D02*
X84097676Y-52994047D01*
X84097676Y-52994047D02*
X84192914Y-53089285D01*
X84192914Y-53089285D02*
X84240533Y-53184523D01*
X79609580Y-54517857D02*
X79657200Y-54565476D01*
X79657200Y-54565476D02*
X79704819Y-54708333D01*
X79704819Y-54708333D02*
X79704819Y-54803571D01*
X79704819Y-54803571D02*
X79657200Y-54946428D01*
X79657200Y-54946428D02*
X79561961Y-55041666D01*
X79561961Y-55041666D02*
X79466723Y-55089285D01*
X79466723Y-55089285D02*
X79276247Y-55136904D01*
X79276247Y-55136904D02*
X79133390Y-55136904D01*
X79133390Y-55136904D02*
X78942914Y-55089285D01*
X78942914Y-55089285D02*
X78847676Y-55041666D01*
X78847676Y-55041666D02*
X78752438Y-54946428D01*
X78752438Y-54946428D02*
X78704819Y-54803571D01*
X78704819Y-54803571D02*
X78704819Y-54708333D01*
X78704819Y-54708333D02*
X78752438Y-54565476D01*
X78752438Y-54565476D02*
X78800057Y-54517857D01*
X78800057Y-54136904D02*
X78752438Y-54089285D01*
X78752438Y-54089285D02*
X78704819Y-53994047D01*
X78704819Y-53994047D02*
X78704819Y-53755952D01*
X78704819Y-53755952D02*
X78752438Y-53660714D01*
X78752438Y-53660714D02*
X78800057Y-53613095D01*
X78800057Y-53613095D02*
X78895295Y-53565476D01*
X78895295Y-53565476D02*
X78990533Y-53565476D01*
X78990533Y-53565476D02*
X79133390Y-53613095D01*
X79133390Y-53613095D02*
X79704819Y-54184523D01*
X79704819Y-54184523D02*
X79704819Y-53565476D01*
X78704819Y-52946428D02*
X78704819Y-52851190D01*
X78704819Y-52851190D02*
X78752438Y-52755952D01*
X78752438Y-52755952D02*
X78800057Y-52708333D01*
X78800057Y-52708333D02*
X78895295Y-52660714D01*
X78895295Y-52660714D02*
X79085771Y-52613095D01*
X79085771Y-52613095D02*
X79323866Y-52613095D01*
X79323866Y-52613095D02*
X79514342Y-52660714D01*
X79514342Y-52660714D02*
X79609580Y-52708333D01*
X79609580Y-52708333D02*
X79657200Y-52755952D01*
X79657200Y-52755952D02*
X79704819Y-52851190D01*
X79704819Y-52851190D02*
X79704819Y-52946428D01*
X79704819Y-52946428D02*
X79657200Y-53041666D01*
X79657200Y-53041666D02*
X79609580Y-53089285D01*
X79609580Y-53089285D02*
X79514342Y-53136904D01*
X79514342Y-53136904D02*
X79323866Y-53184523D01*
X79323866Y-53184523D02*
X79085771Y-53184523D01*
X79085771Y-53184523D02*
X78895295Y-53136904D01*
X78895295Y-53136904D02*
X78800057Y-53089285D01*
X78800057Y-53089285D02*
X78752438Y-53041666D01*
X78752438Y-53041666D02*
X78704819Y-52946428D01*
X75357142Y-66109580D02*
X75309523Y-66157200D01*
X75309523Y-66157200D02*
X75166666Y-66204819D01*
X75166666Y-66204819D02*
X75071428Y-66204819D01*
X75071428Y-66204819D02*
X74928571Y-66157200D01*
X74928571Y-66157200D02*
X74833333Y-66061961D01*
X74833333Y-66061961D02*
X74785714Y-65966723D01*
X74785714Y-65966723D02*
X74738095Y-65776247D01*
X74738095Y-65776247D02*
X74738095Y-65633390D01*
X74738095Y-65633390D02*
X74785714Y-65442914D01*
X74785714Y-65442914D02*
X74833333Y-65347676D01*
X74833333Y-65347676D02*
X74928571Y-65252438D01*
X74928571Y-65252438D02*
X75071428Y-65204819D01*
X75071428Y-65204819D02*
X75166666Y-65204819D01*
X75166666Y-65204819D02*
X75309523Y-65252438D01*
X75309523Y-65252438D02*
X75357142Y-65300057D01*
X76309523Y-66204819D02*
X75738095Y-66204819D01*
X76023809Y-66204819D02*
X76023809Y-65204819D01*
X76023809Y-65204819D02*
X75928571Y-65347676D01*
X75928571Y-65347676D02*
X75833333Y-65442914D01*
X75833333Y-65442914D02*
X75738095Y-65490533D01*
X76880952Y-65633390D02*
X76785714Y-65585771D01*
X76785714Y-65585771D02*
X76738095Y-65538152D01*
X76738095Y-65538152D02*
X76690476Y-65442914D01*
X76690476Y-65442914D02*
X76690476Y-65395295D01*
X76690476Y-65395295D02*
X76738095Y-65300057D01*
X76738095Y-65300057D02*
X76785714Y-65252438D01*
X76785714Y-65252438D02*
X76880952Y-65204819D01*
X76880952Y-65204819D02*
X77071428Y-65204819D01*
X77071428Y-65204819D02*
X77166666Y-65252438D01*
X77166666Y-65252438D02*
X77214285Y-65300057D01*
X77214285Y-65300057D02*
X77261904Y-65395295D01*
X77261904Y-65395295D02*
X77261904Y-65442914D01*
X77261904Y-65442914D02*
X77214285Y-65538152D01*
X77214285Y-65538152D02*
X77166666Y-65585771D01*
X77166666Y-65585771D02*
X77071428Y-65633390D01*
X77071428Y-65633390D02*
X76880952Y-65633390D01*
X76880952Y-65633390D02*
X76785714Y-65681009D01*
X76785714Y-65681009D02*
X76738095Y-65728628D01*
X76738095Y-65728628D02*
X76690476Y-65823866D01*
X76690476Y-65823866D02*
X76690476Y-66014342D01*
X76690476Y-66014342D02*
X76738095Y-66109580D01*
X76738095Y-66109580D02*
X76785714Y-66157200D01*
X76785714Y-66157200D02*
X76880952Y-66204819D01*
X76880952Y-66204819D02*
X77071428Y-66204819D01*
X77071428Y-66204819D02*
X77166666Y-66157200D01*
X77166666Y-66157200D02*
X77214285Y-66109580D01*
X77214285Y-66109580D02*
X77261904Y-66014342D01*
X77261904Y-66014342D02*
X77261904Y-65823866D01*
X77261904Y-65823866D02*
X77214285Y-65728628D01*
X77214285Y-65728628D02*
X77166666Y-65681009D01*
X77166666Y-65681009D02*
X77071428Y-65633390D01*
X78429580Y-58791666D02*
X78477200Y-58839285D01*
X78477200Y-58839285D02*
X78524819Y-58982142D01*
X78524819Y-58982142D02*
X78524819Y-59077380D01*
X78524819Y-59077380D02*
X78477200Y-59220237D01*
X78477200Y-59220237D02*
X78381961Y-59315475D01*
X78381961Y-59315475D02*
X78286723Y-59363094D01*
X78286723Y-59363094D02*
X78096247Y-59410713D01*
X78096247Y-59410713D02*
X77953390Y-59410713D01*
X77953390Y-59410713D02*
X77762914Y-59363094D01*
X77762914Y-59363094D02*
X77667676Y-59315475D01*
X77667676Y-59315475D02*
X77572438Y-59220237D01*
X77572438Y-59220237D02*
X77524819Y-59077380D01*
X77524819Y-59077380D02*
X77524819Y-58982142D01*
X77524819Y-58982142D02*
X77572438Y-58839285D01*
X77572438Y-58839285D02*
X77620057Y-58791666D01*
X77524819Y-58458332D02*
X77524819Y-57839285D01*
X77524819Y-57839285D02*
X77905771Y-58172618D01*
X77905771Y-58172618D02*
X77905771Y-58029761D01*
X77905771Y-58029761D02*
X77953390Y-57934523D01*
X77953390Y-57934523D02*
X78001009Y-57886904D01*
X78001009Y-57886904D02*
X78096247Y-57839285D01*
X78096247Y-57839285D02*
X78334342Y-57839285D01*
X78334342Y-57839285D02*
X78429580Y-57886904D01*
X78429580Y-57886904D02*
X78477200Y-57934523D01*
X78477200Y-57934523D02*
X78524819Y-58029761D01*
X78524819Y-58029761D02*
X78524819Y-58315475D01*
X78524819Y-58315475D02*
X78477200Y-58410713D01*
X78477200Y-58410713D02*
X78429580Y-58458332D01*
X68789580Y-60291666D02*
X68837200Y-60339285D01*
X68837200Y-60339285D02*
X68884819Y-60482142D01*
X68884819Y-60482142D02*
X68884819Y-60577380D01*
X68884819Y-60577380D02*
X68837200Y-60720237D01*
X68837200Y-60720237D02*
X68741961Y-60815475D01*
X68741961Y-60815475D02*
X68646723Y-60863094D01*
X68646723Y-60863094D02*
X68456247Y-60910713D01*
X68456247Y-60910713D02*
X68313390Y-60910713D01*
X68313390Y-60910713D02*
X68122914Y-60863094D01*
X68122914Y-60863094D02*
X68027676Y-60815475D01*
X68027676Y-60815475D02*
X67932438Y-60720237D01*
X67932438Y-60720237D02*
X67884819Y-60577380D01*
X67884819Y-60577380D02*
X67884819Y-60482142D01*
X67884819Y-60482142D02*
X67932438Y-60339285D01*
X67932438Y-60339285D02*
X67980057Y-60291666D01*
X67980057Y-59910713D02*
X67932438Y-59863094D01*
X67932438Y-59863094D02*
X67884819Y-59767856D01*
X67884819Y-59767856D02*
X67884819Y-59529761D01*
X67884819Y-59529761D02*
X67932438Y-59434523D01*
X67932438Y-59434523D02*
X67980057Y-59386904D01*
X67980057Y-59386904D02*
X68075295Y-59339285D01*
X68075295Y-59339285D02*
X68170533Y-59339285D01*
X68170533Y-59339285D02*
X68313390Y-59386904D01*
X68313390Y-59386904D02*
X68884819Y-59958332D01*
X68884819Y-59958332D02*
X68884819Y-59339285D01*
X63609580Y-60291666D02*
X63657200Y-60339285D01*
X63657200Y-60339285D02*
X63704819Y-60482142D01*
X63704819Y-60482142D02*
X63704819Y-60577380D01*
X63704819Y-60577380D02*
X63657200Y-60720237D01*
X63657200Y-60720237D02*
X63561961Y-60815475D01*
X63561961Y-60815475D02*
X63466723Y-60863094D01*
X63466723Y-60863094D02*
X63276247Y-60910713D01*
X63276247Y-60910713D02*
X63133390Y-60910713D01*
X63133390Y-60910713D02*
X62942914Y-60863094D01*
X62942914Y-60863094D02*
X62847676Y-60815475D01*
X62847676Y-60815475D02*
X62752438Y-60720237D01*
X62752438Y-60720237D02*
X62704819Y-60577380D01*
X62704819Y-60577380D02*
X62704819Y-60482142D01*
X62704819Y-60482142D02*
X62752438Y-60339285D01*
X62752438Y-60339285D02*
X62800057Y-60291666D01*
X63704819Y-59339285D02*
X63704819Y-59910713D01*
X63704819Y-59624999D02*
X62704819Y-59624999D01*
X62704819Y-59624999D02*
X62847676Y-59720237D01*
X62847676Y-59720237D02*
X62942914Y-59815475D01*
X62942914Y-59815475D02*
X62990533Y-59910713D01*
X69857142Y-49734580D02*
X69809523Y-49782200D01*
X69809523Y-49782200D02*
X69666666Y-49829819D01*
X69666666Y-49829819D02*
X69571428Y-49829819D01*
X69571428Y-49829819D02*
X69428571Y-49782200D01*
X69428571Y-49782200D02*
X69333333Y-49686961D01*
X69333333Y-49686961D02*
X69285714Y-49591723D01*
X69285714Y-49591723D02*
X69238095Y-49401247D01*
X69238095Y-49401247D02*
X69238095Y-49258390D01*
X69238095Y-49258390D02*
X69285714Y-49067914D01*
X69285714Y-49067914D02*
X69333333Y-48972676D01*
X69333333Y-48972676D02*
X69428571Y-48877438D01*
X69428571Y-48877438D02*
X69571428Y-48829819D01*
X69571428Y-48829819D02*
X69666666Y-48829819D01*
X69666666Y-48829819D02*
X69809523Y-48877438D01*
X69809523Y-48877438D02*
X69857142Y-48925057D01*
X70809523Y-49829819D02*
X70238095Y-49829819D01*
X70523809Y-49829819D02*
X70523809Y-48829819D01*
X70523809Y-48829819D02*
X70428571Y-48972676D01*
X70428571Y-48972676D02*
X70333333Y-49067914D01*
X70333333Y-49067914D02*
X70238095Y-49115533D01*
X71666666Y-48829819D02*
X71476190Y-48829819D01*
X71476190Y-48829819D02*
X71380952Y-48877438D01*
X71380952Y-48877438D02*
X71333333Y-48925057D01*
X71333333Y-48925057D02*
X71238095Y-49067914D01*
X71238095Y-49067914D02*
X71190476Y-49258390D01*
X71190476Y-49258390D02*
X71190476Y-49639342D01*
X71190476Y-49639342D02*
X71238095Y-49734580D01*
X71238095Y-49734580D02*
X71285714Y-49782200D01*
X71285714Y-49782200D02*
X71380952Y-49829819D01*
X71380952Y-49829819D02*
X71571428Y-49829819D01*
X71571428Y-49829819D02*
X71666666Y-49782200D01*
X71666666Y-49782200D02*
X71714285Y-49734580D01*
X71714285Y-49734580D02*
X71761904Y-49639342D01*
X71761904Y-49639342D02*
X71761904Y-49401247D01*
X71761904Y-49401247D02*
X71714285Y-49306009D01*
X71714285Y-49306009D02*
X71666666Y-49258390D01*
X71666666Y-49258390D02*
X71571428Y-49210771D01*
X71571428Y-49210771D02*
X71380952Y-49210771D01*
X71380952Y-49210771D02*
X71285714Y-49258390D01*
X71285714Y-49258390D02*
X71238095Y-49306009D01*
X71238095Y-49306009D02*
X71190476Y-49401247D01*
X114083333Y-39859580D02*
X114035714Y-39907200D01*
X114035714Y-39907200D02*
X113892857Y-39954819D01*
X113892857Y-39954819D02*
X113797619Y-39954819D01*
X113797619Y-39954819D02*
X113654762Y-39907200D01*
X113654762Y-39907200D02*
X113559524Y-39811961D01*
X113559524Y-39811961D02*
X113511905Y-39716723D01*
X113511905Y-39716723D02*
X113464286Y-39526247D01*
X113464286Y-39526247D02*
X113464286Y-39383390D01*
X113464286Y-39383390D02*
X113511905Y-39192914D01*
X113511905Y-39192914D02*
X113559524Y-39097676D01*
X113559524Y-39097676D02*
X113654762Y-39002438D01*
X113654762Y-39002438D02*
X113797619Y-38954819D01*
X113797619Y-38954819D02*
X113892857Y-38954819D01*
X113892857Y-38954819D02*
X114035714Y-39002438D01*
X114035714Y-39002438D02*
X114083333Y-39050057D01*
X114940476Y-39288152D02*
X114940476Y-39954819D01*
X114702381Y-38907200D02*
X114464286Y-39621485D01*
X114464286Y-39621485D02*
X115083333Y-39621485D01*
X113704819Y-83041666D02*
X113228628Y-83374999D01*
X113704819Y-83613094D02*
X112704819Y-83613094D01*
X112704819Y-83613094D02*
X112704819Y-83232142D01*
X112704819Y-83232142D02*
X112752438Y-83136904D01*
X112752438Y-83136904D02*
X112800057Y-83089285D01*
X112800057Y-83089285D02*
X112895295Y-83041666D01*
X112895295Y-83041666D02*
X113038152Y-83041666D01*
X113038152Y-83041666D02*
X113133390Y-83089285D01*
X113133390Y-83089285D02*
X113181009Y-83136904D01*
X113181009Y-83136904D02*
X113228628Y-83232142D01*
X113228628Y-83232142D02*
X113228628Y-83613094D01*
X113133390Y-82470237D02*
X113085771Y-82565475D01*
X113085771Y-82565475D02*
X113038152Y-82613094D01*
X113038152Y-82613094D02*
X112942914Y-82660713D01*
X112942914Y-82660713D02*
X112895295Y-82660713D01*
X112895295Y-82660713D02*
X112800057Y-82613094D01*
X112800057Y-82613094D02*
X112752438Y-82565475D01*
X112752438Y-82565475D02*
X112704819Y-82470237D01*
X112704819Y-82470237D02*
X112704819Y-82279761D01*
X112704819Y-82279761D02*
X112752438Y-82184523D01*
X112752438Y-82184523D02*
X112800057Y-82136904D01*
X112800057Y-82136904D02*
X112895295Y-82089285D01*
X112895295Y-82089285D02*
X112942914Y-82089285D01*
X112942914Y-82089285D02*
X113038152Y-82136904D01*
X113038152Y-82136904D02*
X113085771Y-82184523D01*
X113085771Y-82184523D02*
X113133390Y-82279761D01*
X113133390Y-82279761D02*
X113133390Y-82470237D01*
X113133390Y-82470237D02*
X113181009Y-82565475D01*
X113181009Y-82565475D02*
X113228628Y-82613094D01*
X113228628Y-82613094D02*
X113323866Y-82660713D01*
X113323866Y-82660713D02*
X113514342Y-82660713D01*
X113514342Y-82660713D02*
X113609580Y-82613094D01*
X113609580Y-82613094D02*
X113657200Y-82565475D01*
X113657200Y-82565475D02*
X113704819Y-82470237D01*
X113704819Y-82470237D02*
X113704819Y-82279761D01*
X113704819Y-82279761D02*
X113657200Y-82184523D01*
X113657200Y-82184523D02*
X113609580Y-82136904D01*
X113609580Y-82136904D02*
X113514342Y-82089285D01*
X113514342Y-82089285D02*
X113323866Y-82089285D01*
X113323866Y-82089285D02*
X113228628Y-82136904D01*
X113228628Y-82136904D02*
X113181009Y-82184523D01*
X113181009Y-82184523D02*
X113133390Y-82279761D01*
X111704819Y-79541666D02*
X111228628Y-79874999D01*
X111704819Y-80113094D02*
X110704819Y-80113094D01*
X110704819Y-80113094D02*
X110704819Y-79732142D01*
X110704819Y-79732142D02*
X110752438Y-79636904D01*
X110752438Y-79636904D02*
X110800057Y-79589285D01*
X110800057Y-79589285D02*
X110895295Y-79541666D01*
X110895295Y-79541666D02*
X111038152Y-79541666D01*
X111038152Y-79541666D02*
X111133390Y-79589285D01*
X111133390Y-79589285D02*
X111181009Y-79636904D01*
X111181009Y-79636904D02*
X111228628Y-79732142D01*
X111228628Y-79732142D02*
X111228628Y-80113094D01*
X110704819Y-79208332D02*
X110704819Y-78541666D01*
X110704819Y-78541666D02*
X111704819Y-78970237D01*
X115083333Y-77329819D02*
X114750000Y-76853628D01*
X114511905Y-77329819D02*
X114511905Y-76329819D01*
X114511905Y-76329819D02*
X114892857Y-76329819D01*
X114892857Y-76329819D02*
X114988095Y-76377438D01*
X114988095Y-76377438D02*
X115035714Y-76425057D01*
X115035714Y-76425057D02*
X115083333Y-76520295D01*
X115083333Y-76520295D02*
X115083333Y-76663152D01*
X115083333Y-76663152D02*
X115035714Y-76758390D01*
X115035714Y-76758390D02*
X114988095Y-76806009D01*
X114988095Y-76806009D02*
X114892857Y-76853628D01*
X114892857Y-76853628D02*
X114511905Y-76853628D01*
X115940476Y-76329819D02*
X115750000Y-76329819D01*
X115750000Y-76329819D02*
X115654762Y-76377438D01*
X115654762Y-76377438D02*
X115607143Y-76425057D01*
X115607143Y-76425057D02*
X115511905Y-76567914D01*
X115511905Y-76567914D02*
X115464286Y-76758390D01*
X115464286Y-76758390D02*
X115464286Y-77139342D01*
X115464286Y-77139342D02*
X115511905Y-77234580D01*
X115511905Y-77234580D02*
X115559524Y-77282200D01*
X115559524Y-77282200D02*
X115654762Y-77329819D01*
X115654762Y-77329819D02*
X115845238Y-77329819D01*
X115845238Y-77329819D02*
X115940476Y-77282200D01*
X115940476Y-77282200D02*
X115988095Y-77234580D01*
X115988095Y-77234580D02*
X116035714Y-77139342D01*
X116035714Y-77139342D02*
X116035714Y-76901247D01*
X116035714Y-76901247D02*
X115988095Y-76806009D01*
X115988095Y-76806009D02*
X115940476Y-76758390D01*
X115940476Y-76758390D02*
X115845238Y-76710771D01*
X115845238Y-76710771D02*
X115654762Y-76710771D01*
X115654762Y-76710771D02*
X115559524Y-76758390D01*
X115559524Y-76758390D02*
X115511905Y-76806009D01*
X115511905Y-76806009D02*
X115464286Y-76901247D01*
X79274819Y-63517857D02*
X78798628Y-63851190D01*
X79274819Y-64089285D02*
X78274819Y-64089285D01*
X78274819Y-64089285D02*
X78274819Y-63708333D01*
X78274819Y-63708333D02*
X78322438Y-63613095D01*
X78322438Y-63613095D02*
X78370057Y-63565476D01*
X78370057Y-63565476D02*
X78465295Y-63517857D01*
X78465295Y-63517857D02*
X78608152Y-63517857D01*
X78608152Y-63517857D02*
X78703390Y-63565476D01*
X78703390Y-63565476D02*
X78751009Y-63613095D01*
X78751009Y-63613095D02*
X78798628Y-63708333D01*
X78798628Y-63708333D02*
X78798628Y-64089285D01*
X79274819Y-62565476D02*
X79274819Y-63136904D01*
X79274819Y-62851190D02*
X78274819Y-62851190D01*
X78274819Y-62851190D02*
X78417676Y-62946428D01*
X78417676Y-62946428D02*
X78512914Y-63041666D01*
X78512914Y-63041666D02*
X78560533Y-63136904D01*
X78370057Y-62184523D02*
X78322438Y-62136904D01*
X78322438Y-62136904D02*
X78274819Y-62041666D01*
X78274819Y-62041666D02*
X78274819Y-61803571D01*
X78274819Y-61803571D02*
X78322438Y-61708333D01*
X78322438Y-61708333D02*
X78370057Y-61660714D01*
X78370057Y-61660714D02*
X78465295Y-61613095D01*
X78465295Y-61613095D02*
X78560533Y-61613095D01*
X78560533Y-61613095D02*
X78703390Y-61660714D01*
X78703390Y-61660714D02*
X79274819Y-62232142D01*
X79274819Y-62232142D02*
X79274819Y-61613095D01*
X103204819Y-84291666D02*
X102728628Y-84624999D01*
X103204819Y-84863094D02*
X102204819Y-84863094D01*
X102204819Y-84863094D02*
X102204819Y-84482142D01*
X102204819Y-84482142D02*
X102252438Y-84386904D01*
X102252438Y-84386904D02*
X102300057Y-84339285D01*
X102300057Y-84339285D02*
X102395295Y-84291666D01*
X102395295Y-84291666D02*
X102538152Y-84291666D01*
X102538152Y-84291666D02*
X102633390Y-84339285D01*
X102633390Y-84339285D02*
X102681009Y-84386904D01*
X102681009Y-84386904D02*
X102728628Y-84482142D01*
X102728628Y-84482142D02*
X102728628Y-84863094D01*
X103204819Y-83815475D02*
X103204819Y-83624999D01*
X103204819Y-83624999D02*
X103157200Y-83529761D01*
X103157200Y-83529761D02*
X103109580Y-83482142D01*
X103109580Y-83482142D02*
X102966723Y-83386904D01*
X102966723Y-83386904D02*
X102776247Y-83339285D01*
X102776247Y-83339285D02*
X102395295Y-83339285D01*
X102395295Y-83339285D02*
X102300057Y-83386904D01*
X102300057Y-83386904D02*
X102252438Y-83434523D01*
X102252438Y-83434523D02*
X102204819Y-83529761D01*
X102204819Y-83529761D02*
X102204819Y-83720237D01*
X102204819Y-83720237D02*
X102252438Y-83815475D01*
X102252438Y-83815475D02*
X102300057Y-83863094D01*
X102300057Y-83863094D02*
X102395295Y-83910713D01*
X102395295Y-83910713D02*
X102633390Y-83910713D01*
X102633390Y-83910713D02*
X102728628Y-83863094D01*
X102728628Y-83863094D02*
X102776247Y-83815475D01*
X102776247Y-83815475D02*
X102823866Y-83720237D01*
X102823866Y-83720237D02*
X102823866Y-83529761D01*
X102823866Y-83529761D02*
X102776247Y-83434523D01*
X102776247Y-83434523D02*
X102728628Y-83386904D01*
X102728628Y-83386904D02*
X102633390Y-83339285D01*
X80583333Y-73149819D02*
X80250000Y-72673628D01*
X80011905Y-73149819D02*
X80011905Y-72149819D01*
X80011905Y-72149819D02*
X80392857Y-72149819D01*
X80392857Y-72149819D02*
X80488095Y-72197438D01*
X80488095Y-72197438D02*
X80535714Y-72245057D01*
X80535714Y-72245057D02*
X80583333Y-72340295D01*
X80583333Y-72340295D02*
X80583333Y-72483152D01*
X80583333Y-72483152D02*
X80535714Y-72578390D01*
X80535714Y-72578390D02*
X80488095Y-72626009D01*
X80488095Y-72626009D02*
X80392857Y-72673628D01*
X80392857Y-72673628D02*
X80011905Y-72673628D01*
X80916667Y-72149819D02*
X81535714Y-72149819D01*
X81535714Y-72149819D02*
X81202381Y-72530771D01*
X81202381Y-72530771D02*
X81345238Y-72530771D01*
X81345238Y-72530771D02*
X81440476Y-72578390D01*
X81440476Y-72578390D02*
X81488095Y-72626009D01*
X81488095Y-72626009D02*
X81535714Y-72721247D01*
X81535714Y-72721247D02*
X81535714Y-72959342D01*
X81535714Y-72959342D02*
X81488095Y-73054580D01*
X81488095Y-73054580D02*
X81440476Y-73102200D01*
X81440476Y-73102200D02*
X81345238Y-73149819D01*
X81345238Y-73149819D02*
X81059524Y-73149819D01*
X81059524Y-73149819D02*
X80964286Y-73102200D01*
X80964286Y-73102200D02*
X80916667Y-73054580D01*
X84384819Y-71616666D02*
X83908628Y-71949999D01*
X84384819Y-72188094D02*
X83384819Y-72188094D01*
X83384819Y-72188094D02*
X83384819Y-71807142D01*
X83384819Y-71807142D02*
X83432438Y-71711904D01*
X83432438Y-71711904D02*
X83480057Y-71664285D01*
X83480057Y-71664285D02*
X83575295Y-71616666D01*
X83575295Y-71616666D02*
X83718152Y-71616666D01*
X83718152Y-71616666D02*
X83813390Y-71664285D01*
X83813390Y-71664285D02*
X83861009Y-71711904D01*
X83861009Y-71711904D02*
X83908628Y-71807142D01*
X83908628Y-71807142D02*
X83908628Y-72188094D01*
X84384819Y-70664285D02*
X84384819Y-71235713D01*
X84384819Y-70949999D02*
X83384819Y-70949999D01*
X83384819Y-70949999D02*
X83527676Y-71045237D01*
X83527676Y-71045237D02*
X83622914Y-71140475D01*
X83622914Y-71140475D02*
X83670533Y-71235713D01*
X111833333Y-55509819D02*
X111500000Y-55033628D01*
X111261905Y-55509819D02*
X111261905Y-54509819D01*
X111261905Y-54509819D02*
X111642857Y-54509819D01*
X111642857Y-54509819D02*
X111738095Y-54557438D01*
X111738095Y-54557438D02*
X111785714Y-54605057D01*
X111785714Y-54605057D02*
X111833333Y-54700295D01*
X111833333Y-54700295D02*
X111833333Y-54843152D01*
X111833333Y-54843152D02*
X111785714Y-54938390D01*
X111785714Y-54938390D02*
X111738095Y-54986009D01*
X111738095Y-54986009D02*
X111642857Y-55033628D01*
X111642857Y-55033628D02*
X111261905Y-55033628D01*
X112738095Y-54509819D02*
X112261905Y-54509819D01*
X112261905Y-54509819D02*
X112214286Y-54986009D01*
X112214286Y-54986009D02*
X112261905Y-54938390D01*
X112261905Y-54938390D02*
X112357143Y-54890771D01*
X112357143Y-54890771D02*
X112595238Y-54890771D01*
X112595238Y-54890771D02*
X112690476Y-54938390D01*
X112690476Y-54938390D02*
X112738095Y-54986009D01*
X112738095Y-54986009D02*
X112785714Y-55081247D01*
X112785714Y-55081247D02*
X112785714Y-55319342D01*
X112785714Y-55319342D02*
X112738095Y-55414580D01*
X112738095Y-55414580D02*
X112690476Y-55462200D01*
X112690476Y-55462200D02*
X112595238Y-55509819D01*
X112595238Y-55509819D02*
X112357143Y-55509819D01*
X112357143Y-55509819D02*
X112261905Y-55462200D01*
X112261905Y-55462200D02*
X112214286Y-55414580D01*
X94833333Y-77899819D02*
X94500000Y-77423628D01*
X94261905Y-77899819D02*
X94261905Y-76899819D01*
X94261905Y-76899819D02*
X94642857Y-76899819D01*
X94642857Y-76899819D02*
X94738095Y-76947438D01*
X94738095Y-76947438D02*
X94785714Y-76995057D01*
X94785714Y-76995057D02*
X94833333Y-77090295D01*
X94833333Y-77090295D02*
X94833333Y-77233152D01*
X94833333Y-77233152D02*
X94785714Y-77328390D01*
X94785714Y-77328390D02*
X94738095Y-77376009D01*
X94738095Y-77376009D02*
X94642857Y-77423628D01*
X94642857Y-77423628D02*
X94261905Y-77423628D01*
X95214286Y-76995057D02*
X95261905Y-76947438D01*
X95261905Y-76947438D02*
X95357143Y-76899819D01*
X95357143Y-76899819D02*
X95595238Y-76899819D01*
X95595238Y-76899819D02*
X95690476Y-76947438D01*
X95690476Y-76947438D02*
X95738095Y-76995057D01*
X95738095Y-76995057D02*
X95785714Y-77090295D01*
X95785714Y-77090295D02*
X95785714Y-77185533D01*
X95785714Y-77185533D02*
X95738095Y-77328390D01*
X95738095Y-77328390D02*
X95166667Y-77899819D01*
X95166667Y-77899819D02*
X95785714Y-77899819D01*
X86663095Y-55944819D02*
X86663095Y-56754342D01*
X86663095Y-56754342D02*
X86710714Y-56849580D01*
X86710714Y-56849580D02*
X86758333Y-56897200D01*
X86758333Y-56897200D02*
X86853571Y-56944819D01*
X86853571Y-56944819D02*
X87044047Y-56944819D01*
X87044047Y-56944819D02*
X87139285Y-56897200D01*
X87139285Y-56897200D02*
X87186904Y-56849580D01*
X87186904Y-56849580D02*
X87234523Y-56754342D01*
X87234523Y-56754342D02*
X87234523Y-55944819D01*
X87663095Y-56040057D02*
X87710714Y-55992438D01*
X87710714Y-55992438D02*
X87805952Y-55944819D01*
X87805952Y-55944819D02*
X88044047Y-55944819D01*
X88044047Y-55944819D02*
X88139285Y-55992438D01*
X88139285Y-55992438D02*
X88186904Y-56040057D01*
X88186904Y-56040057D02*
X88234523Y-56135295D01*
X88234523Y-56135295D02*
X88234523Y-56230533D01*
X88234523Y-56230533D02*
X88186904Y-56373390D01*
X88186904Y-56373390D02*
X87615476Y-56944819D01*
X87615476Y-56944819D02*
X88234523Y-56944819D01*
X116738095Y-78204819D02*
X116738095Y-79014342D01*
X116738095Y-79014342D02*
X116785714Y-79109580D01*
X116785714Y-79109580D02*
X116833333Y-79157200D01*
X116833333Y-79157200D02*
X116928571Y-79204819D01*
X116928571Y-79204819D02*
X117119047Y-79204819D01*
X117119047Y-79204819D02*
X117214285Y-79157200D01*
X117214285Y-79157200D02*
X117261904Y-79109580D01*
X117261904Y-79109580D02*
X117309523Y-79014342D01*
X117309523Y-79014342D02*
X117309523Y-78204819D01*
X117690476Y-78204819D02*
X118309523Y-78204819D01*
X118309523Y-78204819D02*
X117976190Y-78585771D01*
X117976190Y-78585771D02*
X118119047Y-78585771D01*
X118119047Y-78585771D02*
X118214285Y-78633390D01*
X118214285Y-78633390D02*
X118261904Y-78681009D01*
X118261904Y-78681009D02*
X118309523Y-78776247D01*
X118309523Y-78776247D02*
X118309523Y-79014342D01*
X118309523Y-79014342D02*
X118261904Y-79109580D01*
X118261904Y-79109580D02*
X118214285Y-79157200D01*
X118214285Y-79157200D02*
X118119047Y-79204819D01*
X118119047Y-79204819D02*
X117833333Y-79204819D01*
X117833333Y-79204819D02*
X117738095Y-79157200D01*
X117738095Y-79157200D02*
X117690476Y-79109580D01*
X87954819Y-38458333D02*
X88669104Y-38458333D01*
X88669104Y-38458333D02*
X88811961Y-38505952D01*
X88811961Y-38505952D02*
X88907200Y-38601190D01*
X88907200Y-38601190D02*
X88954819Y-38744047D01*
X88954819Y-38744047D02*
X88954819Y-38839285D01*
X88288152Y-37553571D02*
X88954819Y-37553571D01*
X87907200Y-37791666D02*
X88621485Y-38029761D01*
X88621485Y-38029761D02*
X88621485Y-37410714D01*
X93454819Y-53363094D02*
X92454819Y-53363094D01*
X92454819Y-53363094D02*
X92454819Y-53124999D01*
X92454819Y-53124999D02*
X92502438Y-52982142D01*
X92502438Y-52982142D02*
X92597676Y-52886904D01*
X92597676Y-52886904D02*
X92692914Y-52839285D01*
X92692914Y-52839285D02*
X92883390Y-52791666D01*
X92883390Y-52791666D02*
X93026247Y-52791666D01*
X93026247Y-52791666D02*
X93216723Y-52839285D01*
X93216723Y-52839285D02*
X93311961Y-52886904D01*
X93311961Y-52886904D02*
X93407200Y-52982142D01*
X93407200Y-52982142D02*
X93454819Y-53124999D01*
X93454819Y-53124999D02*
X93454819Y-53363094D01*
X92550057Y-52410713D02*
X92502438Y-52363094D01*
X92502438Y-52363094D02*
X92454819Y-52267856D01*
X92454819Y-52267856D02*
X92454819Y-52029761D01*
X92454819Y-52029761D02*
X92502438Y-51934523D01*
X92502438Y-51934523D02*
X92550057Y-51886904D01*
X92550057Y-51886904D02*
X92645295Y-51839285D01*
X92645295Y-51839285D02*
X92740533Y-51839285D01*
X92740533Y-51839285D02*
X92883390Y-51886904D01*
X92883390Y-51886904D02*
X93454819Y-52458332D01*
X93454819Y-52458332D02*
X93454819Y-51839285D01*
X68738095Y-52829819D02*
X68738095Y-53639342D01*
X68738095Y-53639342D02*
X68785714Y-53734580D01*
X68785714Y-53734580D02*
X68833333Y-53782200D01*
X68833333Y-53782200D02*
X68928571Y-53829819D01*
X68928571Y-53829819D02*
X69119047Y-53829819D01*
X69119047Y-53829819D02*
X69214285Y-53782200D01*
X69214285Y-53782200D02*
X69261904Y-53734580D01*
X69261904Y-53734580D02*
X69309523Y-53639342D01*
X69309523Y-53639342D02*
X69309523Y-52829819D01*
X70214285Y-52829819D02*
X70023809Y-52829819D01*
X70023809Y-52829819D02*
X69928571Y-52877438D01*
X69928571Y-52877438D02*
X69880952Y-52925057D01*
X69880952Y-52925057D02*
X69785714Y-53067914D01*
X69785714Y-53067914D02*
X69738095Y-53258390D01*
X69738095Y-53258390D02*
X69738095Y-53639342D01*
X69738095Y-53639342D02*
X69785714Y-53734580D01*
X69785714Y-53734580D02*
X69833333Y-53782200D01*
X69833333Y-53782200D02*
X69928571Y-53829819D01*
X69928571Y-53829819D02*
X70119047Y-53829819D01*
X70119047Y-53829819D02*
X70214285Y-53782200D01*
X70214285Y-53782200D02*
X70261904Y-53734580D01*
X70261904Y-53734580D02*
X70309523Y-53639342D01*
X70309523Y-53639342D02*
X70309523Y-53401247D01*
X70309523Y-53401247D02*
X70261904Y-53306009D01*
X70261904Y-53306009D02*
X70214285Y-53258390D01*
X70214285Y-53258390D02*
X70119047Y-53210771D01*
X70119047Y-53210771D02*
X69928571Y-53210771D01*
X69928571Y-53210771D02*
X69833333Y-53258390D01*
X69833333Y-53258390D02*
X69785714Y-53306009D01*
X69785714Y-53306009D02*
X69738095Y-53401247D01*
X84261905Y-51629819D02*
X84261905Y-50629819D01*
X84261905Y-50629819D02*
X84500000Y-50629819D01*
X84500000Y-50629819D02*
X84642857Y-50677438D01*
X84642857Y-50677438D02*
X84738095Y-50772676D01*
X84738095Y-50772676D02*
X84785714Y-50867914D01*
X84785714Y-50867914D02*
X84833333Y-51058390D01*
X84833333Y-51058390D02*
X84833333Y-51201247D01*
X84833333Y-51201247D02*
X84785714Y-51391723D01*
X84785714Y-51391723D02*
X84738095Y-51486961D01*
X84738095Y-51486961D02*
X84642857Y-51582200D01*
X84642857Y-51582200D02*
X84500000Y-51629819D01*
X84500000Y-51629819D02*
X84261905Y-51629819D01*
X85166667Y-50629819D02*
X85833333Y-50629819D01*
X85833333Y-50629819D02*
X85404762Y-51629819D01*
X71454819Y-77271904D02*
X72264342Y-77271904D01*
X72264342Y-77271904D02*
X72359580Y-77224285D01*
X72359580Y-77224285D02*
X72407200Y-77176666D01*
X72407200Y-77176666D02*
X72454819Y-77081428D01*
X72454819Y-77081428D02*
X72454819Y-76890952D01*
X72454819Y-76890952D02*
X72407200Y-76795714D01*
X72407200Y-76795714D02*
X72359580Y-76748095D01*
X72359580Y-76748095D02*
X72264342Y-76700476D01*
X72264342Y-76700476D02*
X71454819Y-76700476D01*
X71454819Y-75748095D02*
X71454819Y-76224285D01*
X71454819Y-76224285D02*
X71931009Y-76271904D01*
X71931009Y-76271904D02*
X71883390Y-76224285D01*
X71883390Y-76224285D02*
X71835771Y-76129047D01*
X71835771Y-76129047D02*
X71835771Y-75890952D01*
X71835771Y-75890952D02*
X71883390Y-75795714D01*
X71883390Y-75795714D02*
X71931009Y-75748095D01*
X71931009Y-75748095D02*
X72026247Y-75700476D01*
X72026247Y-75700476D02*
X72264342Y-75700476D01*
X72264342Y-75700476D02*
X72359580Y-75748095D01*
X72359580Y-75748095D02*
X72407200Y-75795714D01*
X72407200Y-75795714D02*
X72454819Y-75890952D01*
X72454819Y-75890952D02*
X72454819Y-76129047D01*
X72454819Y-76129047D02*
X72407200Y-76224285D01*
X72407200Y-76224285D02*
X72359580Y-76271904D01*
X81011905Y-51629819D02*
X81011905Y-50629819D01*
X81011905Y-50629819D02*
X81250000Y-50629819D01*
X81250000Y-50629819D02*
X81392857Y-50677438D01*
X81392857Y-50677438D02*
X81488095Y-50772676D01*
X81488095Y-50772676D02*
X81535714Y-50867914D01*
X81535714Y-50867914D02*
X81583333Y-51058390D01*
X81583333Y-51058390D02*
X81583333Y-51201247D01*
X81583333Y-51201247D02*
X81535714Y-51391723D01*
X81535714Y-51391723D02*
X81488095Y-51486961D01*
X81488095Y-51486961D02*
X81392857Y-51582200D01*
X81392857Y-51582200D02*
X81250000Y-51629819D01*
X81250000Y-51629819D02*
X81011905Y-51629819D01*
X82154762Y-51058390D02*
X82059524Y-51010771D01*
X82059524Y-51010771D02*
X82011905Y-50963152D01*
X82011905Y-50963152D02*
X81964286Y-50867914D01*
X81964286Y-50867914D02*
X81964286Y-50820295D01*
X81964286Y-50820295D02*
X82011905Y-50725057D01*
X82011905Y-50725057D02*
X82059524Y-50677438D01*
X82059524Y-50677438D02*
X82154762Y-50629819D01*
X82154762Y-50629819D02*
X82345238Y-50629819D01*
X82345238Y-50629819D02*
X82440476Y-50677438D01*
X82440476Y-50677438D02*
X82488095Y-50725057D01*
X82488095Y-50725057D02*
X82535714Y-50820295D01*
X82535714Y-50820295D02*
X82535714Y-50867914D01*
X82535714Y-50867914D02*
X82488095Y-50963152D01*
X82488095Y-50963152D02*
X82440476Y-51010771D01*
X82440476Y-51010771D02*
X82345238Y-51058390D01*
X82345238Y-51058390D02*
X82154762Y-51058390D01*
X82154762Y-51058390D02*
X82059524Y-51106009D01*
X82059524Y-51106009D02*
X82011905Y-51153628D01*
X82011905Y-51153628D02*
X81964286Y-51248866D01*
X81964286Y-51248866D02*
X81964286Y-51439342D01*
X81964286Y-51439342D02*
X82011905Y-51534580D01*
X82011905Y-51534580D02*
X82059524Y-51582200D01*
X82059524Y-51582200D02*
X82154762Y-51629819D01*
X82154762Y-51629819D02*
X82345238Y-51629819D01*
X82345238Y-51629819D02*
X82440476Y-51582200D01*
X82440476Y-51582200D02*
X82488095Y-51534580D01*
X82488095Y-51534580D02*
X82535714Y-51439342D01*
X82535714Y-51439342D02*
X82535714Y-51248866D01*
X82535714Y-51248866D02*
X82488095Y-51153628D01*
X82488095Y-51153628D02*
X82440476Y-51106009D01*
X82440476Y-51106009D02*
X82345238Y-51058390D01*
X109050057Y-51282738D02*
X109002438Y-51377976D01*
X109002438Y-51377976D02*
X108907200Y-51473214D01*
X108907200Y-51473214D02*
X108764342Y-51616071D01*
X108764342Y-51616071D02*
X108716723Y-51711309D01*
X108716723Y-51711309D02*
X108716723Y-51806547D01*
X108954819Y-51758928D02*
X108907200Y-51854166D01*
X108907200Y-51854166D02*
X108811961Y-51949404D01*
X108811961Y-51949404D02*
X108621485Y-51997023D01*
X108621485Y-51997023D02*
X108288152Y-51997023D01*
X108288152Y-51997023D02*
X108097676Y-51949404D01*
X108097676Y-51949404D02*
X108002438Y-51854166D01*
X108002438Y-51854166D02*
X107954819Y-51758928D01*
X107954819Y-51758928D02*
X107954819Y-51568452D01*
X107954819Y-51568452D02*
X108002438Y-51473214D01*
X108002438Y-51473214D02*
X108097676Y-51377976D01*
X108097676Y-51377976D02*
X108288152Y-51330357D01*
X108288152Y-51330357D02*
X108621485Y-51330357D01*
X108621485Y-51330357D02*
X108811961Y-51377976D01*
X108811961Y-51377976D02*
X108907200Y-51473214D01*
X108907200Y-51473214D02*
X108954819Y-51568452D01*
X108954819Y-51568452D02*
X108954819Y-51758928D01*
X108954819Y-50377976D02*
X108954819Y-50949404D01*
X108954819Y-50663690D02*
X107954819Y-50663690D01*
X107954819Y-50663690D02*
X108097676Y-50758928D01*
X108097676Y-50758928D02*
X108192914Y-50854166D01*
X108192914Y-50854166D02*
X108240533Y-50949404D01*
X61261905Y-61829819D02*
X61261905Y-60829819D01*
X61261905Y-60829819D02*
X61500000Y-60829819D01*
X61500000Y-60829819D02*
X61642857Y-60877438D01*
X61642857Y-60877438D02*
X61738095Y-60972676D01*
X61738095Y-60972676D02*
X61785714Y-61067914D01*
X61785714Y-61067914D02*
X61833333Y-61258390D01*
X61833333Y-61258390D02*
X61833333Y-61401247D01*
X61833333Y-61401247D02*
X61785714Y-61591723D01*
X61785714Y-61591723D02*
X61738095Y-61686961D01*
X61738095Y-61686961D02*
X61642857Y-61782200D01*
X61642857Y-61782200D02*
X61500000Y-61829819D01*
X61500000Y-61829819D02*
X61261905Y-61829819D01*
X62785714Y-61829819D02*
X62214286Y-61829819D01*
X62500000Y-61829819D02*
X62500000Y-60829819D01*
X62500000Y-60829819D02*
X62404762Y-60972676D01*
X62404762Y-60972676D02*
X62309524Y-61067914D01*
X62309524Y-61067914D02*
X62214286Y-61115533D01*
X84166666Y-78209819D02*
X84166666Y-78924104D01*
X84166666Y-78924104D02*
X84119047Y-79066961D01*
X84119047Y-79066961D02*
X84023809Y-79162200D01*
X84023809Y-79162200D02*
X83880952Y-79209819D01*
X83880952Y-79209819D02*
X83785714Y-79209819D01*
X84595238Y-78305057D02*
X84642857Y-78257438D01*
X84642857Y-78257438D02*
X84738095Y-78209819D01*
X84738095Y-78209819D02*
X84976190Y-78209819D01*
X84976190Y-78209819D02*
X85071428Y-78257438D01*
X85071428Y-78257438D02*
X85119047Y-78305057D01*
X85119047Y-78305057D02*
X85166666Y-78400295D01*
X85166666Y-78400295D02*
X85166666Y-78495533D01*
X85166666Y-78495533D02*
X85119047Y-78638390D01*
X85119047Y-78638390D02*
X84547619Y-79209819D01*
X84547619Y-79209819D02*
X85166666Y-79209819D01*
X70774819Y-73267857D02*
X70298628Y-73601190D01*
X70774819Y-73839285D02*
X69774819Y-73839285D01*
X69774819Y-73839285D02*
X69774819Y-73458333D01*
X69774819Y-73458333D02*
X69822438Y-73363095D01*
X69822438Y-73363095D02*
X69870057Y-73315476D01*
X69870057Y-73315476D02*
X69965295Y-73267857D01*
X69965295Y-73267857D02*
X70108152Y-73267857D01*
X70108152Y-73267857D02*
X70203390Y-73315476D01*
X70203390Y-73315476D02*
X70251009Y-73363095D01*
X70251009Y-73363095D02*
X70298628Y-73458333D01*
X70298628Y-73458333D02*
X70298628Y-73839285D01*
X70774819Y-72315476D02*
X70774819Y-72886904D01*
X70774819Y-72601190D02*
X69774819Y-72601190D01*
X69774819Y-72601190D02*
X69917676Y-72696428D01*
X69917676Y-72696428D02*
X70012914Y-72791666D01*
X70012914Y-72791666D02*
X70060533Y-72886904D01*
X69774819Y-71982142D02*
X69774819Y-71363095D01*
X69774819Y-71363095D02*
X70155771Y-71696428D01*
X70155771Y-71696428D02*
X70155771Y-71553571D01*
X70155771Y-71553571D02*
X70203390Y-71458333D01*
X70203390Y-71458333D02*
X70251009Y-71410714D01*
X70251009Y-71410714D02*
X70346247Y-71363095D01*
X70346247Y-71363095D02*
X70584342Y-71363095D01*
X70584342Y-71363095D02*
X70679580Y-71410714D01*
X70679580Y-71410714D02*
X70727200Y-71458333D01*
X70727200Y-71458333D02*
X70774819Y-71553571D01*
X70774819Y-71553571D02*
X70774819Y-71839285D01*
X70774819Y-71839285D02*
X70727200Y-71934523D01*
X70727200Y-71934523D02*
X70679580Y-71982142D01*
X70774819Y-80767857D02*
X70298628Y-81101190D01*
X70774819Y-81339285D02*
X69774819Y-81339285D01*
X69774819Y-81339285D02*
X69774819Y-80958333D01*
X69774819Y-80958333D02*
X69822438Y-80863095D01*
X69822438Y-80863095D02*
X69870057Y-80815476D01*
X69870057Y-80815476D02*
X69965295Y-80767857D01*
X69965295Y-80767857D02*
X70108152Y-80767857D01*
X70108152Y-80767857D02*
X70203390Y-80815476D01*
X70203390Y-80815476D02*
X70251009Y-80863095D01*
X70251009Y-80863095D02*
X70298628Y-80958333D01*
X70298628Y-80958333D02*
X70298628Y-81339285D01*
X70774819Y-79815476D02*
X70774819Y-80386904D01*
X70774819Y-80101190D02*
X69774819Y-80101190D01*
X69774819Y-80101190D02*
X69917676Y-80196428D01*
X69917676Y-80196428D02*
X70012914Y-80291666D01*
X70012914Y-80291666D02*
X70060533Y-80386904D01*
X70108152Y-78958333D02*
X70774819Y-78958333D01*
X69727200Y-79196428D02*
X70441485Y-79434523D01*
X70441485Y-79434523D02*
X70441485Y-78815476D01*
X68154819Y-47113094D02*
X67154819Y-47113094D01*
X67154819Y-47113094D02*
X67154819Y-46874999D01*
X67154819Y-46874999D02*
X67202438Y-46732142D01*
X67202438Y-46732142D02*
X67297676Y-46636904D01*
X67297676Y-46636904D02*
X67392914Y-46589285D01*
X67392914Y-46589285D02*
X67583390Y-46541666D01*
X67583390Y-46541666D02*
X67726247Y-46541666D01*
X67726247Y-46541666D02*
X67916723Y-46589285D01*
X67916723Y-46589285D02*
X68011961Y-46636904D01*
X68011961Y-46636904D02*
X68107200Y-46732142D01*
X68107200Y-46732142D02*
X68154819Y-46874999D01*
X68154819Y-46874999D02*
X68154819Y-47113094D01*
X67154819Y-45684523D02*
X67154819Y-45874999D01*
X67154819Y-45874999D02*
X67202438Y-45970237D01*
X67202438Y-45970237D02*
X67250057Y-46017856D01*
X67250057Y-46017856D02*
X67392914Y-46113094D01*
X67392914Y-46113094D02*
X67583390Y-46160713D01*
X67583390Y-46160713D02*
X67964342Y-46160713D01*
X67964342Y-46160713D02*
X68059580Y-46113094D01*
X68059580Y-46113094D02*
X68107200Y-46065475D01*
X68107200Y-46065475D02*
X68154819Y-45970237D01*
X68154819Y-45970237D02*
X68154819Y-45779761D01*
X68154819Y-45779761D02*
X68107200Y-45684523D01*
X68107200Y-45684523D02*
X68059580Y-45636904D01*
X68059580Y-45636904D02*
X67964342Y-45589285D01*
X67964342Y-45589285D02*
X67726247Y-45589285D01*
X67726247Y-45589285D02*
X67631009Y-45636904D01*
X67631009Y-45636904D02*
X67583390Y-45684523D01*
X67583390Y-45684523D02*
X67535771Y-45779761D01*
X67535771Y-45779761D02*
X67535771Y-45970237D01*
X67535771Y-45970237D02*
X67583390Y-46065475D01*
X67583390Y-46065475D02*
X67631009Y-46113094D01*
X67631009Y-46113094D02*
X67726247Y-46160713D01*
X79107142Y-83359580D02*
X79059523Y-83407200D01*
X79059523Y-83407200D02*
X78916666Y-83454819D01*
X78916666Y-83454819D02*
X78821428Y-83454819D01*
X78821428Y-83454819D02*
X78678571Y-83407200D01*
X78678571Y-83407200D02*
X78583333Y-83311961D01*
X78583333Y-83311961D02*
X78535714Y-83216723D01*
X78535714Y-83216723D02*
X78488095Y-83026247D01*
X78488095Y-83026247D02*
X78488095Y-82883390D01*
X78488095Y-82883390D02*
X78535714Y-82692914D01*
X78535714Y-82692914D02*
X78583333Y-82597676D01*
X78583333Y-82597676D02*
X78678571Y-82502438D01*
X78678571Y-82502438D02*
X78821428Y-82454819D01*
X78821428Y-82454819D02*
X78916666Y-82454819D01*
X78916666Y-82454819D02*
X79059523Y-82502438D01*
X79059523Y-82502438D02*
X79107142Y-82550057D01*
X80059523Y-83454819D02*
X79488095Y-83454819D01*
X79773809Y-83454819D02*
X79773809Y-82454819D01*
X79773809Y-82454819D02*
X79678571Y-82597676D01*
X79678571Y-82597676D02*
X79583333Y-82692914D01*
X79583333Y-82692914D02*
X79488095Y-82740533D01*
X80440476Y-82550057D02*
X80488095Y-82502438D01*
X80488095Y-82502438D02*
X80583333Y-82454819D01*
X80583333Y-82454819D02*
X80821428Y-82454819D01*
X80821428Y-82454819D02*
X80916666Y-82502438D01*
X80916666Y-82502438D02*
X80964285Y-82550057D01*
X80964285Y-82550057D02*
X81011904Y-82645295D01*
X81011904Y-82645295D02*
X81011904Y-82740533D01*
X81011904Y-82740533D02*
X80964285Y-82883390D01*
X80964285Y-82883390D02*
X80392857Y-83454819D01*
X80392857Y-83454819D02*
X81011904Y-83454819D01*
X86816666Y-78209819D02*
X86816666Y-78924104D01*
X86816666Y-78924104D02*
X86769047Y-79066961D01*
X86769047Y-79066961D02*
X86673809Y-79162200D01*
X86673809Y-79162200D02*
X86530952Y-79209819D01*
X86530952Y-79209819D02*
X86435714Y-79209819D01*
X87197619Y-78209819D02*
X87816666Y-78209819D01*
X87816666Y-78209819D02*
X87483333Y-78590771D01*
X87483333Y-78590771D02*
X87626190Y-78590771D01*
X87626190Y-78590771D02*
X87721428Y-78638390D01*
X87721428Y-78638390D02*
X87769047Y-78686009D01*
X87769047Y-78686009D02*
X87816666Y-78781247D01*
X87816666Y-78781247D02*
X87816666Y-79019342D01*
X87816666Y-79019342D02*
X87769047Y-79114580D01*
X87769047Y-79114580D02*
X87721428Y-79162200D01*
X87721428Y-79162200D02*
X87626190Y-79209819D01*
X87626190Y-79209819D02*
X87340476Y-79209819D01*
X87340476Y-79209819D02*
X87245238Y-79162200D01*
X87245238Y-79162200D02*
X87197619Y-79114580D01*
D12*
%TO.C,C11*%
X79760000Y-69859420D02*
X79760000Y-70140580D01*
X78740000Y-69859420D02*
X78740000Y-70140580D01*
%TO.C,C19*%
X77261252Y-82235000D02*
X76738748Y-82235000D01*
X77261252Y-80765000D02*
X76738748Y-80765000D01*
%TO.C,C9*%
X122511252Y-66485000D02*
X121988748Y-66485000D01*
X122511252Y-65015000D02*
X121988748Y-65015000D01*
%TO.C,C8*%
X117738748Y-65015000D02*
X118261252Y-65015000D01*
X117738748Y-66485000D02*
X118261252Y-66485000D01*
%TO.C,U4*%
X113000000Y-58750000D02*
X112760000Y-58420000D01*
X113240000Y-58420000D01*
X113000000Y-58750000D01*
G36*
X113000000Y-58750000D02*
G01*
X112760000Y-58420000D01*
X113240000Y-58420000D01*
X113000000Y-58750000D01*
G37*
D10*
X113425000Y-63825000D02*
X117575000Y-63825000D01*
X113425000Y-58675000D02*
X117575000Y-58675000D01*
D12*
%TO.C,R10*%
X113987258Y-68022500D02*
X113512742Y-68022500D01*
X113987258Y-66977500D02*
X113512742Y-66977500D01*
%TO.C,R11*%
X113512742Y-66022500D02*
X113987258Y-66022500D01*
X113512742Y-64977500D02*
X113987258Y-64977500D01*
%TO.C,L1*%
X116950000Y-51050000D02*
X123550000Y-51050000D01*
X116950000Y-52750000D02*
X116950000Y-51050000D01*
X116950000Y-57450000D02*
X116950000Y-55750000D01*
X123550000Y-51050000D02*
X123550000Y-52750000D01*
X123550000Y-55750000D02*
X123550000Y-57450000D01*
X123550000Y-57450000D02*
X116950000Y-57450000D01*
%TO.C,D4*%
X110400000Y-56990000D02*
X107100000Y-56990000D01*
X110400000Y-56990000D02*
X110400000Y-62500000D01*
X107100000Y-56990000D02*
X107100000Y-62500000D01*
%TO.C,C6*%
X121510000Y-61359420D02*
X121510000Y-61640580D01*
X120490000Y-61359420D02*
X120490000Y-61640580D01*
%TO.C,C7*%
X116370000Y-71750000D02*
G75*
G02*
X111130000Y-71750000I-2620000J0D01*
G01*
X111130000Y-71750000D02*
G75*
G02*
X116370000Y-71750000I2620000J0D01*
G01*
X114034000Y-74351000D02*
X113466000Y-74351000D01*
X114268000Y-74311000D02*
X113232000Y-74311000D01*
X114427000Y-74271000D02*
X113073000Y-74271000D01*
X114555000Y-74231000D02*
X112945000Y-74231000D01*
X114665000Y-74191000D02*
X112835000Y-74191000D01*
X114761000Y-74151000D02*
X112739000Y-74151000D01*
X114848000Y-74111000D02*
X112652000Y-74111000D01*
X114928000Y-74071000D02*
X112572000Y-74071000D01*
X115001000Y-74031000D02*
X112499000Y-74031000D01*
X115069000Y-73991000D02*
X112431000Y-73991000D01*
X115133000Y-73951000D02*
X112367000Y-73951000D01*
X115193000Y-73911000D02*
X112307000Y-73911000D01*
X115250000Y-73871000D02*
X112250000Y-73871000D01*
X115304000Y-73831000D02*
X112196000Y-73831000D01*
X115355000Y-73791000D02*
X112145000Y-73791000D01*
X112710000Y-73751000D02*
X112097000Y-73751000D01*
X115403000Y-73751000D02*
X114790000Y-73751000D01*
X112710000Y-73711000D02*
X112051000Y-73711000D01*
X115449000Y-73711000D02*
X114790000Y-73711000D01*
X112710000Y-73671000D02*
X112007000Y-73671000D01*
X115493000Y-73671000D02*
X114790000Y-73671000D01*
X112710000Y-73631000D02*
X111965000Y-73631000D01*
X115535000Y-73631000D02*
X114790000Y-73631000D01*
X112710000Y-73591000D02*
X111924000Y-73591000D01*
X115576000Y-73591000D02*
X114790000Y-73591000D01*
X112710000Y-73551000D02*
X111886000Y-73551000D01*
X115614000Y-73551000D02*
X114790000Y-73551000D01*
X112710000Y-73511000D02*
X111849000Y-73511000D01*
X115651000Y-73511000D02*
X114790000Y-73511000D01*
X112710000Y-73471000D02*
X111813000Y-73471000D01*
X115687000Y-73471000D02*
X114790000Y-73471000D01*
X112710000Y-73431000D02*
X111779000Y-73431000D01*
X115721000Y-73431000D02*
X114790000Y-73431000D01*
X112710000Y-73391000D02*
X111746000Y-73391000D01*
X115754000Y-73391000D02*
X114790000Y-73391000D01*
X112710000Y-73351000D02*
X111715000Y-73351000D01*
X115785000Y-73351000D02*
X114790000Y-73351000D01*
X112710000Y-73311000D02*
X111685000Y-73311000D01*
X115815000Y-73311000D02*
X114790000Y-73311000D01*
X112710000Y-73271000D02*
X111655000Y-73271000D01*
X115845000Y-73271000D02*
X114790000Y-73271000D01*
X112710000Y-73231000D02*
X111628000Y-73231000D01*
X115872000Y-73231000D02*
X114790000Y-73231000D01*
X112710000Y-73191000D02*
X111601000Y-73191000D01*
X115899000Y-73191000D02*
X114790000Y-73191000D01*
X112710000Y-73151000D02*
X111575000Y-73151000D01*
X115925000Y-73151000D02*
X114790000Y-73151000D01*
X112710000Y-73111000D02*
X111550000Y-73111000D01*
X115950000Y-73111000D02*
X114790000Y-73111000D01*
X112710000Y-73071000D02*
X111526000Y-73071000D01*
X115974000Y-73071000D02*
X114790000Y-73071000D01*
X112710000Y-73031000D02*
X111503000Y-73031000D01*
X115997000Y-73031000D02*
X114790000Y-73031000D01*
X112710000Y-72991000D02*
X111482000Y-72991000D01*
X116018000Y-72991000D02*
X114790000Y-72991000D01*
X112710000Y-72951000D02*
X111460000Y-72951000D01*
X116040000Y-72951000D02*
X114790000Y-72951000D01*
X112710000Y-72911000D02*
X111440000Y-72911000D01*
X116060000Y-72911000D02*
X114790000Y-72911000D01*
X112710000Y-72871000D02*
X111421000Y-72871000D01*
X116079000Y-72871000D02*
X114790000Y-72871000D01*
X112710000Y-72831000D02*
X111402000Y-72831000D01*
X116098000Y-72831000D02*
X114790000Y-72831000D01*
X112710000Y-72791000D02*
X111385000Y-72791000D01*
X116115000Y-72791000D02*
X114790000Y-72791000D01*
X112710000Y-72751000D02*
X111368000Y-72751000D01*
X116132000Y-72751000D02*
X114790000Y-72751000D01*
X112710000Y-72711000D02*
X111352000Y-72711000D01*
X116148000Y-72711000D02*
X114790000Y-72711000D01*
X112710000Y-72671000D02*
X111336000Y-72671000D01*
X116164000Y-72671000D02*
X114790000Y-72671000D01*
X112710000Y-72631000D02*
X111322000Y-72631000D01*
X116178000Y-72631000D02*
X114790000Y-72631000D01*
X112710000Y-72591000D02*
X111308000Y-72591000D01*
X116192000Y-72591000D02*
X114790000Y-72591000D01*
X112710000Y-72551000D02*
X111295000Y-72551000D01*
X116205000Y-72551000D02*
X114790000Y-72551000D01*
X112710000Y-72511000D02*
X111282000Y-72511000D01*
X116218000Y-72511000D02*
X114790000Y-72511000D01*
X112710000Y-72471000D02*
X111270000Y-72471000D01*
X116230000Y-72471000D02*
X114790000Y-72471000D01*
X112710000Y-72430000D02*
X111259000Y-72430000D01*
X116241000Y-72430000D02*
X114790000Y-72430000D01*
X112710000Y-72390000D02*
X111249000Y-72390000D01*
X116251000Y-72390000D02*
X114790000Y-72390000D01*
X112710000Y-72350000D02*
X111239000Y-72350000D01*
X116261000Y-72350000D02*
X114790000Y-72350000D01*
X112710000Y-72310000D02*
X111230000Y-72310000D01*
X116270000Y-72310000D02*
X114790000Y-72310000D01*
X112710000Y-72270000D02*
X111222000Y-72270000D01*
X116278000Y-72270000D02*
X114790000Y-72270000D01*
X112710000Y-72230000D02*
X111214000Y-72230000D01*
X116286000Y-72230000D02*
X114790000Y-72230000D01*
X112710000Y-72190000D02*
X111207000Y-72190000D01*
X116293000Y-72190000D02*
X114790000Y-72190000D01*
X112710000Y-72150000D02*
X111200000Y-72150000D01*
X116300000Y-72150000D02*
X114790000Y-72150000D01*
X112710000Y-72110000D02*
X111194000Y-72110000D01*
X116306000Y-72110000D02*
X114790000Y-72110000D01*
X112710000Y-72070000D02*
X111189000Y-72070000D01*
X116311000Y-72070000D02*
X114790000Y-72070000D01*
X112710000Y-72030000D02*
X111185000Y-72030000D01*
X116315000Y-72030000D02*
X114790000Y-72030000D01*
X112710000Y-71990000D02*
X111181000Y-71990000D01*
X116319000Y-71990000D02*
X114790000Y-71990000D01*
X112710000Y-71950000D02*
X111177000Y-71950000D01*
X116323000Y-71950000D02*
X114790000Y-71950000D01*
X112710000Y-71910000D02*
X111174000Y-71910000D01*
X116326000Y-71910000D02*
X114790000Y-71910000D01*
X112710000Y-71870000D02*
X111172000Y-71870000D01*
X116328000Y-71870000D02*
X114790000Y-71870000D01*
X112710000Y-71830000D02*
X111171000Y-71830000D01*
X116329000Y-71830000D02*
X114790000Y-71830000D01*
X112710000Y-71790000D02*
X111170000Y-71790000D01*
X116330000Y-71790000D02*
X114790000Y-71790000D01*
X112710000Y-71750000D02*
X111170000Y-71750000D01*
X116330000Y-71750000D02*
X114790000Y-71750000D01*
X115475000Y-69195225D02*
X114975000Y-69195225D01*
X115225000Y-68945225D02*
X115225000Y-69445225D01*
%TO.C,C5*%
X113390580Y-57760000D02*
X113109420Y-57760000D01*
X113390580Y-56740000D02*
X113109420Y-56740000D01*
%TO.C,R4*%
X109485000Y-54477064D02*
X109485000Y-54022936D01*
X108015000Y-54477064D02*
X108015000Y-54022936D01*
%TO.C,D5*%
X78860000Y-51375000D02*
X78860000Y-49375000D01*
X78860000Y-51375000D02*
X74850000Y-51375000D01*
X78860000Y-49375000D02*
X74850000Y-49375000D01*
%TO.C,J5*%
X83160000Y-31590000D02*
X83160000Y-39950000D01*
X70840000Y-31590000D02*
X83160000Y-31590000D01*
X70840000Y-39950000D02*
X70840000Y-31590000D01*
X70840000Y-44050000D02*
X70840000Y-48310000D01*
X83160000Y-48310000D02*
X83160000Y-44050000D01*
X70840000Y-48310000D02*
X83160000Y-48310000D01*
X75750000Y-48530000D02*
X75250000Y-49030000D01*
X76250000Y-49030000D02*
X75750000Y-48530000D01*
X75250000Y-49030000D02*
X76250000Y-49030000D01*
D13*
%TO.C,SW1*%
X108725000Y-82425000D02*
X108725000Y-81675000D01*
X108725000Y-82425000D02*
X102725000Y-82425000D01*
X108725000Y-78925000D02*
X108725000Y-79675000D01*
X102725000Y-82425000D02*
X102725000Y-81675000D01*
X102725000Y-78925000D02*
X108725000Y-78925000D01*
X102725000Y-78925000D02*
X102725000Y-79675000D01*
X107225000Y-81475000D02*
X104225000Y-81475000D01*
X104225000Y-79975000D01*
X107225000Y-79975000D01*
X107225000Y-81475000D01*
D12*
%TO.C,C17*%
X79740000Y-77509420D02*
X79740000Y-77790580D01*
X80760000Y-77509420D02*
X80760000Y-77790580D01*
%TO.C,C14*%
X73359420Y-69635000D02*
X73640580Y-69635000D01*
X73359420Y-68615000D02*
X73640580Y-68615000D01*
%TO.C,C13*%
X73359420Y-71635000D02*
X73640580Y-71635000D01*
X73359420Y-70615000D02*
X73640580Y-70615000D01*
%TO.C,C23*%
X82390580Y-59115000D02*
X82109420Y-59115000D01*
X82390580Y-60135000D02*
X82109420Y-60135000D01*
%TO.C,C22*%
X82390580Y-57115000D02*
X82109420Y-57115000D01*
X82390580Y-58135000D02*
X82109420Y-58135000D01*
%TO.C,C21*%
X82490000Y-53734420D02*
X82490000Y-54015580D01*
X83510000Y-53734420D02*
X83510000Y-54015580D01*
%TO.C,C20*%
X80240000Y-53734420D02*
X80240000Y-54015580D01*
X81260000Y-53734420D02*
X81260000Y-54015580D01*
%TO.C,C18*%
X73140580Y-65240000D02*
X72859420Y-65240000D01*
X73140580Y-66260000D02*
X72859420Y-66260000D01*
%TO.C,C10*%
X105609420Y-84135000D02*
X105890580Y-84135000D01*
X105609420Y-83115000D02*
X105890580Y-83115000D01*
%TO.C,C3*%
X80010000Y-58765580D02*
X80010000Y-58484420D01*
X78990000Y-58765580D02*
X78990000Y-58484420D01*
%TO.C,C2*%
X66490000Y-59984420D02*
X66490000Y-60265580D01*
X67510000Y-59984420D02*
X67510000Y-60265580D01*
%TO.C,C1*%
X63990000Y-59984420D02*
X63990000Y-60265580D01*
X65010000Y-59984420D02*
X65010000Y-60265580D01*
%TO.C,C16*%
X71890580Y-50365000D02*
X71609420Y-50365000D01*
X71890580Y-51385000D02*
X71609420Y-51385000D01*
%TO.C,C4*%
X112510000Y-46885000D02*
X112510000Y-42935000D01*
X112510000Y-36365000D02*
X112510000Y-40315000D01*
X103054437Y-46885000D02*
X112510000Y-46885000D01*
X103054437Y-36365000D02*
X112510000Y-36365000D01*
X101990000Y-45820563D02*
X103054437Y-46885000D01*
X101990000Y-45820563D02*
X101990000Y-42935000D01*
X101990000Y-37429437D02*
X103054437Y-36365000D01*
X101990000Y-37429437D02*
X101990000Y-40315000D01*
%TO.C,R8*%
X111227500Y-82637742D02*
X111227500Y-83112258D01*
X112272500Y-82637742D02*
X112272500Y-83112258D01*
%TO.C,R7*%
X111977500Y-79137742D02*
X111977500Y-79612258D01*
X113022500Y-79137742D02*
X113022500Y-79612258D01*
%TO.C,R6*%
X115012742Y-78647500D02*
X115487258Y-78647500D01*
X115012742Y-77602500D02*
X115487258Y-77602500D01*
%TO.C,R12*%
X79727500Y-63112258D02*
X79727500Y-62637742D01*
X80772500Y-63112258D02*
X80772500Y-62637742D01*
%TO.C,R9*%
X100727500Y-83137742D02*
X100727500Y-83612258D01*
X101772500Y-83137742D02*
X101772500Y-83612258D01*
%TO.C,R3*%
X81512742Y-73602500D02*
X81987258Y-73602500D01*
X81512742Y-74647500D02*
X81987258Y-74647500D01*
%TO.C,R1*%
X81977500Y-71212742D02*
X81977500Y-71687258D01*
X83022500Y-71212742D02*
X83022500Y-71687258D01*
%TO.C,R5*%
X112237258Y-53102500D02*
X111762742Y-53102500D01*
X112237258Y-54147500D02*
X111762742Y-54147500D01*
%TO.C,R2*%
X94762742Y-79397500D02*
X95237258Y-79397500D01*
X94762742Y-78352500D02*
X95237258Y-78352500D01*
D14*
%TO.C,U2*%
X83600000Y-58965000D02*
G75*
G02*
X83400000Y-58965000I-100000J0D01*
G01*
X83400000Y-58965000D02*
G75*
G02*
X83600000Y-58965000I100000J0D01*
G01*
D15*
X103000000Y-76975000D02*
X103000000Y-76245000D01*
X103000000Y-76975000D02*
X101755000Y-76975000D01*
X103000000Y-57775000D02*
X103000000Y-58195000D01*
X86245000Y-76975000D02*
X85000000Y-76975000D01*
X85000000Y-76975000D02*
X85000000Y-76245000D01*
X85000000Y-58195000D02*
X85000000Y-57775000D01*
X85000000Y-57775000D02*
X103000000Y-57775000D01*
D12*
%TO.C,U1*%
X99560000Y-86110000D02*
X99560000Y-80140000D01*
X99560000Y-80140000D02*
X89440000Y-80140000D01*
X99550000Y-82400000D02*
X98800000Y-82400000D01*
X99550000Y-80900000D02*
X99550000Y-80150000D01*
X99550000Y-80150000D02*
X97750000Y-80150000D01*
X98800000Y-85350000D02*
X94500000Y-85350000D01*
X98800000Y-82400000D02*
X98800000Y-85350000D01*
X97750000Y-80900000D02*
X99550000Y-80900000D01*
X97750000Y-80150000D02*
X97750000Y-80900000D01*
X96250000Y-80900000D02*
X96250000Y-80150000D01*
X96250000Y-80150000D02*
X92750000Y-80150000D01*
X92750000Y-80900000D02*
X96250000Y-80900000D01*
X92750000Y-80150000D02*
X92750000Y-80900000D01*
X91250000Y-80900000D02*
X91250000Y-80150000D01*
X91250000Y-80150000D02*
X89450000Y-80150000D01*
X90400000Y-79850000D02*
X89150000Y-79850000D01*
X90200000Y-85350000D02*
X94500000Y-85350000D01*
X90200000Y-82400000D02*
X90200000Y-85350000D01*
X89450000Y-82400000D02*
X90200000Y-82400000D01*
X89450000Y-80900000D02*
X91250000Y-80900000D01*
X89450000Y-80150000D02*
X89450000Y-80900000D01*
X89440000Y-86110000D02*
X99560000Y-86110000D01*
X89440000Y-80140000D02*
X89440000Y-86110000D01*
X89150000Y-79850000D02*
X89150000Y-81100000D01*
%TO.C,U3*%
X120440000Y-84920000D02*
X119960000Y-84920000D01*
X120200000Y-84590000D01*
X120440000Y-84920000D01*
G36*
X120440000Y-84920000D02*
G01*
X119960000Y-84920000D01*
X120200000Y-84590000D01*
X120440000Y-84920000D01*
G37*
X117500000Y-79565000D02*
X115550000Y-79565000D01*
X117500000Y-79565000D02*
X119450000Y-79565000D01*
X117500000Y-84685000D02*
X115550000Y-84685000D01*
X117500000Y-84685000D02*
X119450000Y-84685000D01*
%TO.C,J4*%
X99050000Y-45425000D02*
X99050000Y-46475000D01*
X98850000Y-46275000D02*
X96250000Y-46275000D01*
X98850000Y-31575000D02*
X98850000Y-46275000D01*
X98000000Y-46475000D02*
X99050000Y-46475000D01*
X92350000Y-46275000D02*
X89650000Y-46275000D01*
X89650000Y-46275000D02*
X89650000Y-44375000D01*
X89650000Y-40375000D02*
X89650000Y-31575000D01*
X89650000Y-31575000D02*
X98850000Y-31575000D01*
%TO.C,D2*%
X97150000Y-56135000D02*
X97150000Y-50625000D01*
X93850000Y-56135000D02*
X97150000Y-56135000D01*
X93850000Y-56135000D02*
X93850000Y-50625000D01*
%TO.C,U6*%
X76120000Y-59765000D02*
X75640000Y-59765000D01*
X75880000Y-59435000D01*
X76120000Y-59765000D01*
G36*
X76120000Y-59765000D02*
G01*
X75640000Y-59765000D01*
X75880000Y-59435000D01*
X76120000Y-59765000D01*
G37*
X74600000Y-59535000D02*
X70840000Y-59535000D01*
X74600000Y-52715000D02*
X70840000Y-52715000D01*
X70840000Y-59535000D02*
X70840000Y-58275000D01*
X70840000Y-52715000D02*
X70840000Y-53975000D01*
%TO.C,D7*%
X84300000Y-50475000D02*
X86260000Y-50475000D01*
X86260000Y-50475000D02*
X86260000Y-49275000D01*
X84300000Y-49275000D02*
X86260000Y-49275000D01*
D14*
%TO.C,U5*%
X74350000Y-79835000D02*
G75*
G02*
X74150000Y-79835000I-100000J0D01*
G01*
X74150000Y-79835000D02*
G75*
G02*
X74350000Y-79835000I100000J0D01*
G01*
D15*
X78250000Y-78875000D02*
X78250000Y-78330000D01*
X78250000Y-78875000D02*
X77705000Y-78875000D01*
X78250000Y-73875000D02*
X78250000Y-74420000D01*
X78250000Y-73875000D02*
X77705000Y-73875000D01*
X73250000Y-78875000D02*
X73795000Y-78875000D01*
X73250000Y-78875000D02*
X73250000Y-78330000D01*
X73250000Y-73875000D02*
X73795000Y-73875000D01*
X73250000Y-73875000D02*
X73250000Y-74420000D01*
D12*
%TO.C,D8*%
X81050000Y-50475000D02*
X83010000Y-50475000D01*
X83010000Y-50475000D02*
X83010000Y-49275000D01*
X81050000Y-49275000D02*
X83010000Y-49275000D01*
%TO.C,Q1*%
X109490000Y-51287500D02*
X109160000Y-51527500D01*
X109160000Y-51047500D01*
X109490000Y-51287500D01*
G36*
X109490000Y-51287500D02*
G01*
X109160000Y-51527500D01*
X109160000Y-51047500D01*
X109490000Y-51287500D01*
G37*
X112560000Y-50125000D02*
X112560000Y-50775000D01*
X112560000Y-50125000D02*
X112560000Y-49475000D01*
X109440000Y-50125000D02*
X109440000Y-50775000D01*
X109440000Y-50125000D02*
X109440000Y-49475000D01*
%TO.C,D1*%
X63650000Y-69135000D02*
X63650000Y-63625000D01*
X60350000Y-69135000D02*
X63650000Y-69135000D01*
X60350000Y-69135000D02*
X60350000Y-63625000D01*
%TO.C,J6*%
X66500000Y-71025000D02*
X66500000Y-69775000D01*
X66500000Y-69775000D02*
X65250000Y-69775000D01*
X66210000Y-82685000D02*
X66210000Y-70065000D01*
X66210000Y-70065000D02*
X60240000Y-70065000D01*
X66200000Y-82675000D02*
X66200000Y-80875000D01*
X66200000Y-80875000D02*
X65450000Y-80875000D01*
X66200000Y-79375000D02*
X66200000Y-73375000D01*
X66200000Y-73375000D02*
X65450000Y-73375000D01*
X66200000Y-71875000D02*
X66200000Y-70075000D01*
X66200000Y-70075000D02*
X65450000Y-70075000D01*
X65450000Y-82675000D02*
X66200000Y-82675000D01*
X65450000Y-80875000D02*
X65450000Y-82675000D01*
X65450000Y-79375000D02*
X66200000Y-79375000D01*
X65450000Y-73375000D02*
X65450000Y-79375000D01*
X65450000Y-71875000D02*
X66200000Y-71875000D01*
X65450000Y-70075000D02*
X65450000Y-71875000D01*
X63950000Y-82675000D02*
X63950000Y-81925000D01*
X63950000Y-81925000D02*
X61000000Y-81925000D01*
X63950000Y-70825000D02*
X61000000Y-70825000D01*
X63950000Y-70075000D02*
X63950000Y-70825000D01*
X61000000Y-81925000D02*
X61000000Y-76375000D01*
X61000000Y-70825000D02*
X61000000Y-76375000D01*
X60240000Y-82685000D02*
X66210000Y-82685000D01*
X60240000Y-70065000D02*
X60240000Y-82685000D01*
%TO.C,D3*%
X107100000Y-54875000D02*
X107100000Y-53625000D01*
X106810000Y-54585000D02*
X106810000Y-48615000D01*
X106810000Y-48615000D02*
X99190000Y-48615000D01*
X106800000Y-54575000D02*
X106800000Y-53825000D01*
X106800000Y-53825000D02*
X105000000Y-53825000D01*
X106800000Y-52325000D02*
X106050000Y-52325000D01*
X106050000Y-52325000D02*
X106050000Y-49375000D01*
X106050000Y-49375000D02*
X103000000Y-49375000D01*
X105850000Y-54875000D02*
X107100000Y-54875000D01*
X105000000Y-54575000D02*
X106800000Y-54575000D01*
X105000000Y-53825000D02*
X105000000Y-54575000D01*
X103500000Y-54575000D02*
X103500000Y-53825000D01*
X103500000Y-53825000D02*
X102500000Y-53825000D01*
X102500000Y-54575000D02*
X103500000Y-54575000D01*
X102500000Y-53825000D02*
X102500000Y-54575000D01*
X101000000Y-54575000D02*
X101000000Y-53825000D01*
X101000000Y-53825000D02*
X99200000Y-53825000D01*
X99950000Y-52325000D02*
X99950000Y-49375000D01*
X99950000Y-49375000D02*
X103000000Y-49375000D01*
X99200000Y-54575000D02*
X101000000Y-54575000D01*
X99200000Y-53825000D02*
X99200000Y-54575000D01*
X99200000Y-52325000D02*
X99950000Y-52325000D01*
X99190000Y-54585000D02*
X106810000Y-54585000D01*
X99190000Y-48615000D02*
X99190000Y-54585000D01*
%TO.C,J2*%
X85830000Y-82355000D02*
X85830000Y-84955000D01*
X83170000Y-84955000D02*
X85830000Y-84955000D01*
X83170000Y-82355000D02*
X85830000Y-82355000D01*
X83170000Y-82355000D02*
X83170000Y-84955000D01*
X83170000Y-81085000D02*
X83170000Y-79755000D01*
X83170000Y-79755000D02*
X84500000Y-79755000D01*
%TO.C,R13*%
X69410000Y-71897936D02*
X69410000Y-73352064D01*
X67590000Y-71897936D02*
X67590000Y-73352064D01*
%TO.C,R14*%
X69410000Y-79397936D02*
X69410000Y-80852064D01*
X67590000Y-79397936D02*
X67590000Y-80852064D01*
%TO.C,D6*%
X69600000Y-45675000D02*
X69600000Y-47635000D01*
X68400000Y-47635000D02*
X69600000Y-47635000D01*
X68400000Y-45675000D02*
X68400000Y-47635000D01*
%TO.C,J1*%
X123775000Y-67400000D02*
X122525000Y-67400000D01*
X123485000Y-67690000D02*
X117515000Y-67690000D01*
X117515000Y-67690000D02*
X117515000Y-77810000D01*
X123475000Y-67700000D02*
X122725000Y-67700000D01*
X122725000Y-67700000D02*
X122725000Y-69500000D01*
X121225000Y-67700000D02*
X121225000Y-68450000D01*
X121225000Y-68450000D02*
X118275000Y-68450000D01*
X118275000Y-68450000D02*
X118275000Y-72750000D01*
X123775000Y-68650000D02*
X123775000Y-67400000D01*
X123475000Y-69500000D02*
X123475000Y-67700000D01*
X122725000Y-69500000D02*
X123475000Y-69500000D01*
X123475000Y-71000000D02*
X122725000Y-71000000D01*
X122725000Y-71000000D02*
X122725000Y-74500000D01*
X123475000Y-74500000D02*
X123475000Y-71000000D01*
X122725000Y-74500000D02*
X123475000Y-74500000D01*
X123475000Y-76000000D02*
X122725000Y-76000000D01*
X122725000Y-76000000D02*
X122725000Y-77800000D01*
X121225000Y-77050000D02*
X118275000Y-77050000D01*
X118275000Y-77050000D02*
X118275000Y-72750000D01*
X123475000Y-77800000D02*
X123475000Y-76000000D01*
X122725000Y-77800000D02*
X123475000Y-77800000D01*
X121225000Y-77800000D02*
X121225000Y-77050000D01*
X123485000Y-77810000D02*
X123485000Y-67690000D01*
X117515000Y-77810000D02*
X123485000Y-77810000D01*
%TO.C,C12*%
X76609420Y-84260000D02*
X76890580Y-84260000D01*
X76609420Y-83240000D02*
X76890580Y-83240000D01*
%TO.C,J3*%
X88480000Y-82355000D02*
X88480000Y-84955000D01*
X85820000Y-84955000D02*
X88480000Y-84955000D01*
X85820000Y-82355000D02*
X88480000Y-82355000D01*
X85820000Y-82355000D02*
X85820000Y-84955000D01*
X85820000Y-81085000D02*
X85820000Y-79755000D01*
X85820000Y-79755000D02*
X87150000Y-79755000D01*
D13*
%TO.C,SW2*%
X70000000Y-61125000D02*
X70000000Y-61875000D01*
X70000000Y-61125000D02*
X76000000Y-61125000D01*
X70000000Y-64625000D02*
X70000000Y-63875000D01*
X76000000Y-61125000D02*
X76000000Y-61875000D01*
X76000000Y-64625000D02*
X70000000Y-64625000D01*
X76000000Y-64625000D02*
X76000000Y-63875000D01*
X71500000Y-62075000D02*
X74500000Y-62075000D01*
X74500000Y-63575000D01*
X71500000Y-63575000D01*
X71500000Y-62075000D01*
%TD*%
M02*
