M48
; DRILL file {KiCad 8.0.4} date 2025-07-27T19:27:07+0200
; FORMAT={-:-/ absolute / metric / decimal}
; #@! TF.CreationDate,2025-07-27T19:27:07+02:00
; #@! TF.GenerationSoftware,Kicad,Pcbnew,8.0.4
; #@! TF.FileFunction,Plated,1,2,PTH
FMAT,2
METRIC
; #@! TA.AperFunction,Plated,PTH,ViaDrill
T1C0.300
; #@! TA.AperFunction,Plated,PTH,ComponentDrill
T2C0.300
; #@! TA.AperFunction,Plated,PTH,ViaDrill
T3C0.400
; #@! TA.AperFunction,Plated,PTH,ViaDrill
T4C0.500
; #@! TA.AperFunction,Plated,PTH,ComponentDrill
T5C0.800
; #@! TA.AperFunction,Plated,PTH,ComponentDrill
T6C0.920
; #@! TA.AperFunction,Plated,PTH,ComponentDrill
T7C0.950
; #@! TA.AperFunction,Plated,PTH,ViaDrill
T8C1.000
; #@! TA.AperFunction,Plated,PTH,ComponentDrill
T9C1.000
; #@! TA.AperFunction,Plated,PTH,ComponentDrill
T10C2.330
%
G90
G05
T1
X64.75Y-67.625
X65.0Y-62.25
X71.0Y-48.875
X74.25Y-74.875
X74.25Y-76.375
X74.25Y-77.875
X74.5Y-80.875
X74.75Y-72.625
X74.75Y-82.125
X75.0Y-75.625
X75.0Y-77.125
X75.75Y-74.875
X75.75Y-76.375
X75.75Y-77.875
X76.05Y-72.575
X76.075Y-71.45
X76.5Y-75.625
X76.5Y-77.125
X77.25Y-72.375
X77.25Y-74.875
X77.25Y-76.375
X77.25Y-77.875
X78.125Y-58.0
X78.5Y-65.75
X78.5Y-68.0
X79.5Y-75.375
X79.75Y-73.875
X80.25Y-79.625
X81.0Y-70.125
X82.0Y-69.125
X82.5Y-67.875
X83.0Y-66.875
X83.0Y-75.625
X83.0Y-77.625
X85.25Y-56.375
X87.25Y-49.125
X88.5Y-56.375
X90.75Y-55.625
X91.5Y-49.125
X99.25Y-56.375
X109.85Y-79.175
X113.0Y-50.875
X113.0Y-52.125
X114.25Y-50.875
X114.25Y-52.125
X114.25Y-53.625
X122.35Y-80.275
T2
X91.1Y-65.975
X91.1Y-67.375
X91.8Y-65.275
X91.8Y-66.675
X91.8Y-68.075
X92.5Y-65.975
X92.5Y-67.375
X93.2Y-65.275
X93.2Y-66.675
X93.2Y-68.075
X93.9Y-65.975
X93.9Y-67.375
X114.9Y-59.45
X114.9Y-60.65
X114.9Y-61.95
X114.9Y-63.05
X116.1Y-59.45
X116.1Y-60.65
X116.1Y-61.95
X116.1Y-63.05
T3
X67.75Y-83.5
X71.0Y-68.75
X81.0Y-85.5
T4
X70.5Y-71.125
X70.75Y-73.875
X70.75Y-78.875
X70.8Y-81.7
X105.75Y-62.5
X120.25Y-59.25
T5
X113.75Y-70.75
X113.75Y-72.75
T6
X75.75Y-44.71
X75.75Y-46.71
X78.25Y-44.71
X78.25Y-46.71
T7
X63.75Y-72.625
X63.75Y-75.125
X63.75Y-77.625
X63.75Y-80.125
X92.0Y-82.6
X94.5Y-82.6
X97.0Y-82.6
X121.025Y-70.25
X121.025Y-72.75
X121.025Y-75.25
T8
X89.25Y-52.125
T9
X84.5Y-81.085
X84.5Y-83.625
X87.15Y-81.085
X87.15Y-83.625
X101.75Y-52.125
X104.25Y-52.125
T10
X70.98Y-42.0
X83.02Y-42.0
T9
G00X89.55Y-41.375
M15
G01X89.55Y-43.375
M16
G05
G00X95.25Y-39.375
M15
G01X93.25Y-39.375
M16
G05
G00X95.25Y-45.375
M15
G01X93.25Y-45.375
M16
G05
M30
