%TF.GenerationSoftware,KiCad,Pcbnew,8.0.4*%
%TF.CreationDate,2025-07-27T19:27:03+02:00*%
%TF.ProjectId,GastroFocap,47617374-726f-4466-9f63-61702e6b6963,rev?*%
%TF.SameCoordinates,Original*%
%TF.FileFunction,Soldermask,Top*%
%TF.FilePolarity,Negative*%
%FSLAX46Y46*%
G04 Gerber Fmt 4.6, Leading zero omitted, Abs format (unit mm)*
G04 Created by KiCad (PCBNEW 8.0.4) date 2025-07-27 19:27:03*
%MOMM*%
%LPD*%
G01*
G04 APERTURE LIST*
G04 Aperture macros list*
%AMRoundRect*
0 Rectangle with rounded corners*
0 $1 Rounding radius*
0 $2 $3 $4 $5 $6 $7 $8 $9 X,Y pos of 4 corners*
0 Add a 4 corners polygon primitive as box body*
4,1,4,$2,$3,$4,$5,$6,$7,$8,$9,$2,$3,0*
0 Add four circle primitives for the rounded corners*
1,1,$1+$1,$2,$3*
1,1,$1+$1,$4,$5*
1,1,$1+$1,$6,$7*
1,1,$1+$1,$8,$9*
0 Add four rect primitives between the rounded corners*
20,1,$1+$1,$2,$3,$4,$5,0*
20,1,$1+$1,$4,$5,$6,$7,0*
20,1,$1+$1,$6,$7,$8,$9,0*
20,1,$1+$1,$8,$9,$2,$3,0*%
G04 Aperture macros list end*
%ADD10C,0.000000*%
%ADD11C,1.600000*%
%ADD12C,0.300000*%
%ADD13RoundRect,0.225000X-0.250000X0.225000X-0.250000X-0.225000X0.250000X-0.225000X0.250000X0.225000X0*%
%ADD14RoundRect,0.250000X0.250000X0.475000X-0.250000X0.475000X-0.250000X-0.475000X0.250000X-0.475000X0*%
%ADD15RoundRect,0.250000X-0.250000X-0.475000X0.250000X-0.475000X0.250000X0.475000X-0.250000X0.475000X0*%
%ADD16R,2.600000X3.100000*%
%ADD17R,1.550000X0.600000*%
%ADD18RoundRect,0.200000X0.200000X0.275000X-0.200000X0.275000X-0.200000X-0.275000X0.200000X-0.275000X0*%
%ADD19RoundRect,0.200000X-0.200000X-0.275000X0.200000X-0.275000X0.200000X0.275000X-0.200000X0.275000X0*%
%ADD20R,1.500000X2.400000*%
%ADD21RoundRect,0.250000X-0.650000X1.000000X-0.650000X-1.000000X0.650000X-1.000000X0.650000X1.000000X0*%
%ADD22C,1.600000*%
%ADD23R,1.600000X1.600000*%
%ADD24RoundRect,0.225000X0.225000X0.250000X-0.225000X0.250000X-0.225000X-0.250000X0.225000X-0.250000X0*%
%ADD25RoundRect,0.250000X0.450000X-0.262500X0.450000X0.262500X-0.450000X0.262500X-0.450000X-0.262500X0*%
%ADD26RoundRect,0.225000X0.225000X0.375000X-0.225000X0.375000X-0.225000X-0.375000X0.225000X-0.375000X0*%
%ADD27C,3.500000*%
%ADD28C,1.700000*%
%ADD29R,1.700000X1.700000*%
%ADD30RoundRect,0.300000X0.500000X0.300000X-0.500000X0.300000X-0.500000X-0.300000X0.500000X-0.300000X0*%
%ADD31RoundRect,0.225000X-0.225000X-0.250000X0.225000X-0.250000X0.225000X0.250000X-0.225000X0.250000X0*%
%ADD32RoundRect,0.225000X0.250000X-0.225000X0.250000X0.225000X-0.250000X0.225000X-0.250000X-0.225000X0*%
%ADD33RoundRect,0.250001X-2.049999X-0.799999X2.049999X-0.799999X2.049999X0.799999X-2.049999X0.799999X0*%
%ADD34RoundRect,0.200000X-0.275000X0.200000X-0.275000X-0.200000X0.275000X-0.200000X0.275000X0.200000X0*%
%ADD35RoundRect,0.200000X0.275000X-0.200000X0.275000X0.200000X-0.275000X0.200000X-0.275000X-0.200000X0*%
%ADD36RoundRect,0.102000X-0.450000X-0.450000X0.450000X-0.450000X0.450000X0.450000X-0.450000X0.450000X0*%
%ADD37RoundRect,0.102000X-0.750000X-0.450000X0.750000X-0.450000X0.750000X0.450000X-0.750000X0.450000X0*%
%ADD38RoundRect,0.102000X-0.450000X-0.750000X0.450000X-0.750000X0.450000X0.750000X-0.450000X0.750000X0*%
%ADD39O,1.700000X1.950000*%
%ADD40RoundRect,0.250000X-0.600000X-0.725000X0.600000X-0.725000X0.600000X0.725000X-0.600000X0.725000X0*%
%ADD41RoundRect,0.150000X0.825000X0.150000X-0.825000X0.150000X-0.825000X-0.150000X0.825000X-0.150000X0*%
%ADD42RoundRect,0.875000X-0.875000X0.875000X-0.875000X-0.875000X0.875000X-0.875000X0.875000X0.875000X0*%
%ADD43RoundRect,0.750000X-1.000000X0.750000X-1.000000X-0.750000X1.000000X-0.750000X1.000000X0.750000X0*%
%ADD44R,3.500000X3.500000*%
%ADD45RoundRect,0.250000X0.650000X-1.000000X0.650000X1.000000X-0.650000X1.000000X-0.650000X-1.000000X0*%
%ADD46RoundRect,0.375000X0.625000X0.375000X-0.625000X0.375000X-0.625000X-0.375000X0.625000X-0.375000X0*%
%ADD47RoundRect,0.500000X0.500000X1.400000X-0.500000X1.400000X-0.500000X-1.400000X0.500000X-1.400000X0*%
%ADD48RoundRect,0.150000X-0.150000X-0.200000X0.150000X-0.200000X0.150000X0.200000X-0.150000X0.200000X0*%
%ADD49RoundRect,0.102000X1.850000X-1.850000X1.850000X1.850000X-1.850000X1.850000X-1.850000X-1.850000X0*%
%ADD50RoundRect,0.059250X0.447750X-0.177750X0.447750X0.177750X-0.447750X0.177750X-0.447750X-0.177750X0*%
%ADD51RoundRect,0.059250X0.177750X-0.447750X0.177750X0.447750X-0.177750X0.447750X-0.177750X-0.447750X0*%
%ADD52RoundRect,0.150000X0.150000X-0.587500X0.150000X0.587500X-0.150000X0.587500X-0.150000X-0.587500X0*%
%ADD53O,1.950000X1.700000*%
%ADD54RoundRect,0.250000X-0.725000X0.600000X-0.725000X-0.600000X0.725000X-0.600000X0.725000X0.600000X0*%
%ADD55O,1.700000X2.000000*%
%ADD56RoundRect,0.250000X0.600000X0.750000X-0.600000X0.750000X-0.600000X-0.750000X0.600000X-0.750000X0*%
%ADD57O,1.700000X1.700000*%
%ADD58RoundRect,0.250000X-0.625000X0.312500X-0.625000X-0.312500X0.625000X-0.312500X0.625000X0.312500X0*%
%ADD59RoundRect,0.150000X-0.200000X0.150000X-0.200000X-0.150000X0.200000X-0.150000X0.200000X0.150000X0*%
%ADD60RoundRect,0.300000X-0.500000X-0.300000X0.500000X-0.300000X0.500000X0.300000X-0.500000X0.300000X0*%
G04 APERTURE END LIST*
D10*
G36*
X118250000Y-55500000D02*
G01*
X116250000Y-55500000D01*
X116250000Y-53000000D01*
X118250000Y-53000000D01*
X118250000Y-55500000D01*
G37*
G36*
X124250000Y-55500000D02*
G01*
X122250000Y-55500000D01*
X122250000Y-53000000D01*
X124250000Y-53000000D01*
X124250000Y-55500000D01*
G37*
D11*
X65700000Y-52625000D02*
G75*
G02*
X61300000Y-52625000I-2200000J0D01*
G01*
X61300000Y-52625000D02*
G75*
G02*
X65700000Y-52625000I2200000J0D01*
G01*
X109950000Y-68625000D02*
G75*
G02*
X105550000Y-68625000I-2200000J0D01*
G01*
X105550000Y-68625000D02*
G75*
G02*
X109950000Y-68625000I2200000J0D01*
G01*
X120450000Y-44000000D02*
G75*
G02*
X116050000Y-44000000I-2200000J0D01*
G01*
X116050000Y-44000000D02*
G75*
G02*
X120450000Y-44000000I2200000J0D01*
G01*
%TO.C,U2*%
D12*
X94050000Y-67375000D02*
G75*
G02*
X93750000Y-67375000I-150000J0D01*
G01*
X93750000Y-67375000D02*
G75*
G02*
X94050000Y-67375000I150000J0D01*
G01*
X94050000Y-65975000D02*
G75*
G02*
X93750000Y-65975000I-150000J0D01*
G01*
X93750000Y-65975000D02*
G75*
G02*
X94050000Y-65975000I150000J0D01*
G01*
X93350000Y-68075000D02*
G75*
G02*
X93050000Y-68075000I-150000J0D01*
G01*
X93050000Y-68075000D02*
G75*
G02*
X93350000Y-68075000I150000J0D01*
G01*
X93350000Y-66675000D02*
G75*
G02*
X93050000Y-66675000I-150000J0D01*
G01*
X93050000Y-66675000D02*
G75*
G02*
X93350000Y-66675000I150000J0D01*
G01*
X93350000Y-65275000D02*
G75*
G02*
X93050000Y-65275000I-150000J0D01*
G01*
X93050000Y-65275000D02*
G75*
G02*
X93350000Y-65275000I150000J0D01*
G01*
X92650000Y-67375000D02*
G75*
G02*
X92350000Y-67375000I-150000J0D01*
G01*
X92350000Y-67375000D02*
G75*
G02*
X92650000Y-67375000I150000J0D01*
G01*
X92650000Y-65975000D02*
G75*
G02*
X92350000Y-65975000I-150000J0D01*
G01*
X92350000Y-65975000D02*
G75*
G02*
X92650000Y-65975000I150000J0D01*
G01*
X91950000Y-68075000D02*
G75*
G02*
X91650000Y-68075000I-150000J0D01*
G01*
X91650000Y-68075000D02*
G75*
G02*
X91950000Y-68075000I150000J0D01*
G01*
X91950000Y-66675000D02*
G75*
G02*
X91650000Y-66675000I-150000J0D01*
G01*
X91650000Y-66675000D02*
G75*
G02*
X91950000Y-66675000I150000J0D01*
G01*
X91950000Y-65275000D02*
G75*
G02*
X91650000Y-65275000I-150000J0D01*
G01*
X91650000Y-65275000D02*
G75*
G02*
X91950000Y-65275000I150000J0D01*
G01*
X91250000Y-67375000D02*
G75*
G02*
X90950000Y-67375000I-150000J0D01*
G01*
X90950000Y-67375000D02*
G75*
G02*
X91250000Y-67375000I150000J0D01*
G01*
X91250000Y-65975000D02*
G75*
G02*
X90950000Y-65975000I-150000J0D01*
G01*
X90950000Y-65975000D02*
G75*
G02*
X91250000Y-65975000I150000J0D01*
G01*
%TD*%
D13*
%TO.C,C11*%
X79250000Y-69225000D03*
X79250000Y-70775000D03*
%TD*%
D14*
%TO.C,C19*%
X77950000Y-81500000D03*
X76050000Y-81500000D03*
%TD*%
%TO.C,C9*%
X123200000Y-65750000D03*
X121300000Y-65750000D03*
%TD*%
D15*
%TO.C,C8*%
X117050000Y-65750000D03*
X118950000Y-65750000D03*
%TD*%
D16*
%TO.C,U4*%
X115500000Y-61250000D03*
D17*
X118200000Y-59345000D03*
X118200000Y-60615000D03*
X118200000Y-61885000D03*
X118200000Y-63155000D03*
X112800000Y-63155000D03*
X112800000Y-61885000D03*
X112800000Y-60615000D03*
X112800000Y-59345000D03*
%TD*%
D18*
%TO.C,R10*%
X114575000Y-67500000D03*
X112925000Y-67500000D03*
%TD*%
D19*
%TO.C,R11*%
X114575000Y-65500000D03*
X112925000Y-65500000D03*
%TD*%
D20*
%TO.C,L1*%
X117500000Y-54250000D03*
X123000000Y-54250000D03*
%TD*%
D21*
%TO.C,D4*%
X108750000Y-58500000D03*
X108750000Y-62500000D03*
%TD*%
D13*
%TO.C,C6*%
X121000000Y-60725000D03*
X121000000Y-62275000D03*
%TD*%
D22*
%TO.C,C7*%
X113750000Y-72750000D03*
D23*
X113750000Y-70750000D03*
%TD*%
D24*
%TO.C,C5*%
X114025000Y-57250000D03*
X112475000Y-57250000D03*
%TD*%
D25*
%TO.C,R4*%
X108750000Y-53337500D03*
X108750000Y-55162500D03*
%TD*%
D26*
%TO.C,D5*%
X78150000Y-50375000D03*
X74850000Y-50375000D03*
%TD*%
D27*
%TO.C,J5*%
X83020000Y-42000000D03*
X70980000Y-42000000D03*
D28*
X75750000Y-44710000D03*
X78250000Y-44710000D03*
X78250000Y-46710000D03*
D29*
X75750000Y-46710000D03*
%TD*%
D30*
%TO.C,SW1*%
X109225000Y-80675000D03*
X102275000Y-80675000D03*
%TD*%
D13*
%TO.C,C17*%
X80250000Y-78425000D03*
X80250000Y-76875000D03*
%TD*%
D31*
%TO.C,C14*%
X74275000Y-69125000D03*
X72725000Y-69125000D03*
%TD*%
%TO.C,C13*%
X74275000Y-71125000D03*
X72725000Y-71125000D03*
%TD*%
D24*
%TO.C,C23*%
X81475000Y-59625000D03*
X83025000Y-59625000D03*
%TD*%
%TO.C,C22*%
X81475000Y-57625000D03*
X83025000Y-57625000D03*
%TD*%
D13*
%TO.C,C21*%
X83000000Y-54650000D03*
X83000000Y-53100000D03*
%TD*%
%TO.C,C20*%
X80750000Y-54650000D03*
X80750000Y-53100000D03*
%TD*%
D24*
%TO.C,C18*%
X72225000Y-65750000D03*
X73775000Y-65750000D03*
%TD*%
D31*
%TO.C,C10*%
X106525000Y-83625000D03*
X104975000Y-83625000D03*
%TD*%
D32*
%TO.C,C3*%
X79500000Y-57850000D03*
X79500000Y-59400000D03*
%TD*%
D13*
%TO.C,C2*%
X67000000Y-60900000D03*
X67000000Y-59350000D03*
%TD*%
%TO.C,C1*%
X64500000Y-60900000D03*
X64500000Y-59350000D03*
%TD*%
D24*
%TO.C,C16*%
X70975000Y-50875000D03*
X72525000Y-50875000D03*
%TD*%
D33*
%TO.C,C4*%
X111650000Y-41625000D03*
X102850000Y-41625000D03*
%TD*%
D34*
%TO.C,R8*%
X111750000Y-83700000D03*
X111750000Y-82050000D03*
%TD*%
%TO.C,R7*%
X112500000Y-80200000D03*
X112500000Y-78550000D03*
%TD*%
D19*
%TO.C,R6*%
X116075000Y-78125000D03*
X114425000Y-78125000D03*
%TD*%
D35*
%TO.C,R12*%
X80250000Y-63700000D03*
X80250000Y-62050000D03*
%TD*%
D34*
%TO.C,R9*%
X101250000Y-84200000D03*
X101250000Y-82550000D03*
%TD*%
D19*
%TO.C,R3*%
X80925000Y-74125000D03*
X82575000Y-74125000D03*
%TD*%
D34*
%TO.C,R1*%
X82500000Y-72275000D03*
X82500000Y-70625000D03*
%TD*%
D18*
%TO.C,R5*%
X111175000Y-53625000D03*
X112825000Y-53625000D03*
%TD*%
D19*
%TO.C,R2*%
X95825000Y-78875000D03*
X94175000Y-78875000D03*
%TD*%
D36*
%TO.C,U2*%
X93900000Y-68085000D03*
X92500000Y-68085000D03*
X91100000Y-68085000D03*
X93900000Y-66685000D03*
X92500000Y-66685000D03*
X91100000Y-66685000D03*
X93900000Y-65285000D03*
X92500000Y-65285000D03*
X91100000Y-65285000D03*
D37*
X102750000Y-58965000D03*
X102750000Y-60235000D03*
X102750000Y-61505000D03*
X102750000Y-62775000D03*
X102750000Y-64045000D03*
X102750000Y-65315000D03*
X102750000Y-66585000D03*
X102750000Y-67855000D03*
X102750000Y-69125000D03*
X102750000Y-70395000D03*
X102750000Y-71665000D03*
X102750000Y-72935000D03*
X102750000Y-74205000D03*
X102750000Y-75475000D03*
D38*
X100985000Y-76725000D03*
X99715000Y-76725000D03*
X98445000Y-76725000D03*
X97175000Y-76725000D03*
X95905000Y-76725000D03*
X94635000Y-76725000D03*
X93365000Y-76725000D03*
X92095000Y-76725000D03*
X90825000Y-76725000D03*
X89555000Y-76725000D03*
X88285000Y-76725000D03*
X87015000Y-76725000D03*
D37*
X85250000Y-75475000D03*
X85250000Y-74205000D03*
X85250000Y-72935000D03*
X85250000Y-71665000D03*
X85250000Y-70395000D03*
X85250000Y-69125000D03*
X85250000Y-67855000D03*
X85250000Y-66585000D03*
X85250000Y-65315000D03*
X85250000Y-64045000D03*
X85250000Y-62775000D03*
X85250000Y-61505000D03*
X85250000Y-60235000D03*
X85250000Y-58965000D03*
%TD*%
D39*
%TO.C,U1*%
X97000000Y-82600000D03*
X94500000Y-82600000D03*
D40*
X92000000Y-82600000D03*
%TD*%
D41*
%TO.C,U3*%
X115025000Y-84030000D03*
X115025000Y-82760000D03*
X115025000Y-81490000D03*
X115025000Y-80220000D03*
X119975000Y-80220000D03*
X119975000Y-81490000D03*
X119975000Y-82760000D03*
X119975000Y-84030000D03*
%TD*%
D42*
%TO.C,J4*%
X89550000Y-42375000D03*
D43*
X94250000Y-39375000D03*
D44*
X94250000Y-45375000D03*
%TD*%
D45*
%TO.C,D2*%
X95500000Y-50625000D03*
X95500000Y-54625000D03*
%TD*%
D46*
%TO.C,U6*%
X75900000Y-53825000D03*
D47*
X69600000Y-56125000D03*
D46*
X75900000Y-56125000D03*
X75900000Y-58425000D03*
%TD*%
D48*
%TO.C,D7*%
X84300000Y-49875000D03*
X85700000Y-49875000D03*
%TD*%
D49*
%TO.C,U5*%
X75750000Y-76375000D03*
D50*
X73300000Y-77875000D03*
X73300000Y-77375000D03*
X73300000Y-76875000D03*
X73300000Y-76375000D03*
X73300000Y-75875000D03*
X73300000Y-75375000D03*
X73300000Y-74875000D03*
D51*
X74250000Y-73925000D03*
X74750000Y-73925000D03*
X75250000Y-73925000D03*
X75750000Y-73925000D03*
X76250000Y-73925000D03*
X76750000Y-73925000D03*
X77250000Y-73925000D03*
D50*
X78200000Y-74875000D03*
X78200000Y-75375000D03*
X78200000Y-75875000D03*
X78200000Y-76375000D03*
X78200000Y-76875000D03*
X78200000Y-77375000D03*
X78200000Y-77875000D03*
D51*
X77250000Y-78825000D03*
X76750000Y-78825000D03*
X76250000Y-78825000D03*
X75750000Y-78825000D03*
X75250000Y-78825000D03*
X74750000Y-78825000D03*
X74250000Y-78825000D03*
%TD*%
D48*
%TO.C,D8*%
X81050000Y-49875000D03*
X82450000Y-49875000D03*
%TD*%
D52*
%TO.C,Q1*%
X111000000Y-49187500D03*
X111950000Y-51062500D03*
X110050000Y-51062500D03*
%TD*%
D45*
%TO.C,D1*%
X62000000Y-63625000D03*
X62000000Y-67625000D03*
%TD*%
D53*
%TO.C,J6*%
X63750000Y-80125000D03*
X63750000Y-77625000D03*
X63750000Y-75125000D03*
D54*
X63750000Y-72625000D03*
%TD*%
D55*
%TO.C,D3*%
X101750000Y-52125000D03*
D56*
X104250000Y-52125000D03*
%TD*%
D57*
%TO.C,J2*%
X84500000Y-83625000D03*
D29*
X84500000Y-81085000D03*
%TD*%
D58*
%TO.C,R13*%
X68500000Y-74087500D03*
X68500000Y-71162500D03*
%TD*%
%TO.C,R14*%
X68500000Y-81587500D03*
X68500000Y-78662500D03*
%TD*%
D59*
%TO.C,D6*%
X69000000Y-45675000D03*
X69000000Y-47075000D03*
%TD*%
D53*
%TO.C,J1*%
X121025000Y-75250000D03*
X121025000Y-72750000D03*
D54*
X121025000Y-70250000D03*
%TD*%
D31*
%TO.C,C12*%
X77525000Y-83750000D03*
X75975000Y-83750000D03*
%TD*%
D57*
%TO.C,J3*%
X87150000Y-83625000D03*
D29*
X87150000Y-81085000D03*
%TD*%
D60*
%TO.C,SW2*%
X69500000Y-62875000D03*
X76450000Y-62875000D03*
%TD*%
M02*
